<?xml version="1.0" encoding="UTF-8"?>
<svg version="1.1" xmlns="http://www.w3.org/2000/svg" width="405" height="152">
<path d="M0 0 C0.66 0.33 1.32 0.66 2 1 C1.43051086 6.59476144 0.36634282 11.75165042 -1.3125 17.125 C-1.56249756 17.94846924 -1.81249512 18.77193848 -2.07006836 19.62036133 C-3.69853511 24.93889919 -5.39633009 30.23351322 -7.12171936 35.52120972 C-13.21524421 54.20579425 -18.91015542 72.53397913 -22 92 C-18.38077418 84.97102125 -14.92722563 77.91054659 -11.74560547 70.67260742 C-2.36049851 49.33631307 9.59054182 26.92101588 29 13 C32.5625 12 32.5625 12 35 12 C37.38943586 14.48899568 37.9842101 15.73820339 38.1953125 19.23828125 C38.00182923 22.96476897 37.38838536 26.04107616 36.375 29.625 C36.1131189 30.56629761 36.1131189 30.56629761 35.84594727 31.52661133 C35.24125428 33.68756439 34.6217186 35.84388538 34 38 C33.50113971 39.74083889 33.00244954 41.48172655 32.50390625 43.22265625 C31.72248543 45.95004962 30.94045193 48.67725025 30.15527344 51.40356445 C28.29011818 57.9034749 26.55359043 64.41768265 25 71 C28.5919305 68.33223687 31.07229228 65.76717145 33.5625 62.0625 C36.882452 57.35870568 40.47077214 53.0916597 44.375 48.875 C44.89908447 48.306604 45.42316895 47.73820801 45.96313477 47.15258789 C50.68830754 42.1116334 50.68830754 42.1116334 54.9375 41.75 C58 42 58 42 59.59765625 43.12109375 C61.54890151 45.73543628 61.89167383 48.11516661 62.5 51.3125 C62.74621094 52.55128906 62.99242187 53.79007813 63.24609375 55.06640625 C63.49745108 56.37759358 63.74875243 57.68879164 64 59 C64.50787733 61.58630667 65.03225626 64.16805936 65.5625 66.75 C65.90474609 68.47476563 65.90474609 68.47476563 66.25390625 70.234375 C66.7851991 73.11754941 66.7851991 73.11754941 69 75 C71.87768508 74.80474512 73.51561705 74.40709938 75.73828125 72.5390625 C76.25777344 71.90742187 76.77726562 71.27578125 77.3125 70.625 C77.90289062 69.91472656 78.49328125 69.20445313 79.1015625 68.47265625 C81.90712096 64.81850295 84.52731007 61.04001137 87.10546875 57.22265625 C89.10238018 54.87988799 89.99437329 54.31322496 93 54 C93.7109375 55.6796875 93.7109375 55.6796875 94 58 C89.23611667 66.71985661 81.00505518 77.46842384 72 82 C68.9375 82 68.9375 82 66 81 C62 76.89473684 62 76.89473684 62 74 C61.34 73.67 60.68 73.34 60 73 C59.51342773 71.20581055 59.51342773 71.20581055 59.18359375 68.88671875 C59.05919922 68.05076172 58.93480469 67.21480469 58.80664062 66.35351562 C58.68482422 65.47373047 58.56300781 64.59394531 58.4375 63.6875 C58.18770893 61.96202016 57.93645727 60.23675101 57.68359375 58.51171875 C57.57587646 57.74303467 57.46815918 56.97435059 57.35717773 56.18237305 C57.03005907 53.99159265 57.03005907 53.99159265 56.45727539 51.84301758 C56 50 56 50 56 48 C46.66527 52.8088003 41.07627982 61.77587768 35 70 C30.03763697 76.71176751 30.03763697 76.71176751 25.625 77.9375 C24.75875 77.958125 23.8925 77.97875 23 78 C21.09147087 75.85787486 20.05787616 74.54349334 19.75 71.65234375 C20.78340477 60.43021379 24.021535 49.72493469 27.18359375 38.94921875 C28.94724557 32.93471381 30.49939117 27.25761041 31 21 C24.17050284 23.27649905 19.61604049 29.30311198 15.5625 35 C15.09223389 35.65299072 14.62196777 36.30598145 14.13745117 36.97875977 C4.66574817 50.3519983 -2.4144089 65.18800304 -9.25390625 80.03125 C-9.68427437 80.96407303 -9.68427437 80.96407303 -10.12333679 81.91574097 C-11.56798771 85.04965576 -13.00571634 88.18646529 -14.43237305 91.32861328 C-14.96515869 92.49118652 -15.49794434 93.65375977 -16.046875 94.8515625 C-16.51963867 95.89135254 -16.99240234 96.93114258 -17.47949219 98.00244141 C-21.7435778 106.4087425 -21.7435778 106.4087425 -25.125 108 C-25.74375 108 -26.3625 108 -27 108 C-29 106 -29 106 -29.15234375 102.640625 C-29.09789687 101.17634415 -29.02484324 99.71268726 -28.9375 98.25 C-28.89367187 97.46737793 -28.84984375 96.68475586 -28.8046875 95.87841797 C-28.05585015 85.69940818 -25.5093843 75.86364128 -23 66 C-22.85863113 65.41274139 -22.71726227 64.82548279 -22.5716095 64.22042847 C-21.8845723 61.55161879 -21.09587685 58.92290467 -20.29760742 56.28515625 C-19.95022018 55.13716553 -19.60283295 53.9891748 -19.24491882 52.80639648 C-17.86325367 48.26665275 -16.47698657 43.72834343 -15.08439159 39.19194031 C-14.02817828 35.75085653 -12.97691718 32.30842917 -11.93725586 28.86230469 C-10.92925094 25.52149637 -9.90891933 22.18468789 -8.87984657 18.85031128 C-8.30211369 16.96730612 -7.73691206 15.08047091 -7.17192078 13.19360352 C-6.81507706 12.04561279 -6.45823334 10.89762207 -6.09057617 9.71484375 C-5.78270676 8.70542725 -5.47483734 7.69601074 -5.15763855 6.65600586 C-3.88089684 3.72673795 -2.38372495 2.09487762 0 0 Z " fill="#FAFAFA" transform="translate(137,14)"/>
<path d="M0 0 C0.763125 0.825 1.52625 1.65 2.3125 2.5 C4.75434142 5.34055197 4.75434142 5.34055197 8 5 C10.68767578 2.56249975 10.68767578 2.56249975 13 0 C14.32229189 2.64458379 14.09677194 4.67761301 14.0625 7.625 C14.05347656 8.62789062 14.04445312 9.63078125 14.03515625 10.6640625 C14.02355469 11.43492188 14.01195312 12.20578125 14 13 C9.33333333 13 4.66666667 13 0 13 C0 8.71 0 4.42 0 0 Z " fill="#FBFBFB" transform="translate(138,112)"/>
<path d="M0 0 C3.375 0.9375 3.375 0.9375 5.375 3.9375 C5.69662076 7.0250593 5.86224515 9.07765561 4.3125 11.8125 C1.30017484 13.56159203 -1.22002627 13.24151551 -4.625 12.9375 C-5.615 12.2775 -6.605 11.6175 -7.625 10.9375 C-8.13056724 7.03740985 -8.16901977 4.80793163 -6.0625 1.4375 C-3.625 -0.0625 -3.625 -0.0625 0 0 Z M-3.625 3.9375 C-3.28055119 6.41016765 -3.28055119 6.41016765 -2.625 8.9375 C-1.965 9.2675 -1.305 9.5975 -0.625 9.9375 C0.035 9.6075 0.695 9.2775 1.375 8.9375 C1.375 7.2875 1.375 5.6375 1.375 3.9375 C-0.275 3.9375 -1.925 3.9375 -3.625 3.9375 Z " fill="#FBFBFB" transform="translate(235.625,112.0625)"/>
<path d="M0 0 C2.62901288 1.52206009 4.84365964 2.84365964 7 5 C7.33 3.35 7.66 1.7 8 0 C8.99 0 9.98 0 11 0 C11.33 4.29 11.66 8.58 12 13 C8.09161134 13 6.88405893 11.49432124 4 9 C3.67 10.32 3.34 11.64 3 13 C1.68 12.67 0.36 12.34 -1 12 C-1.02687279 10.18757948 -1.04633715 8.37504767 -1.0625 6.5625 C-1.07410156 5.55316406 -1.08570313 4.54382813 -1.09765625 3.50390625 C-1 1 -1 1 0 0 Z " fill="#FAFBFA" transform="translate(192,112)"/>
<path d="M0 0 C2.375 2.125 2.375 2.125 4 5 C3.9375 8.1875 3.9375 8.1875 3 11 C-0.48868651 13.32579101 -1.89718519 13.41865457 -6 13 C-8.375 11.5 -8.375 11.5 -10 10 C-9.51470588 3.56985294 -9.51470588 3.56985294 -7.25 1.0625 C-4.47708502 -0.24693207 -3.02480283 -0.60496057 0 0 Z M-5 4 C-5.33 4.99 -5.66 5.98 -6 7 C-5.01 8.485 -5.01 8.485 -4 10 C-2.68 9.34 -1.36 8.68 0 8 C-0.33 6.68 -0.66 5.36 -1 4 C-2.32 4 -3.64 4 -5 4 Z " fill="#FCFCFC" transform="translate(219,112)"/>
<path d="M0 0 C3.125 0.25 3.125 0.25 5.0625 1.375 C6.6422952 4.16287388 5.75077015 6.18372628 5.125 9.25 C5.4827614 11.52650745 5.4827614 11.52650745 6.125 13.25 C5.403125 13.064375 4.68125 12.87875 3.9375 12.6875 C0.98080541 12.22756973 -0.98749776 12.59485243 -3.875 13.25 C-3.90186553 11.27090602 -3.92133375 9.29171029 -3.9375 7.3125 C-3.94910156 6.21035156 -3.96070313 5.10820313 -3.97265625 3.97265625 C-3.83805711 0.22003236 -3.75483457 0.32650735 0 0 Z M0.125 4.25 C0.455 4.91 0.785 5.57 1.125 6.25 C1.455 5.59 1.785 4.93 2.125 4.25 C1.465 4.25 0.805 4.25 0.125 4.25 Z " fill="#FAFBFA" transform="translate(250.875,111.75)"/>
<path d="M0 0 C0.99 0 1.98 0 3 0 C3 1.65 3 3.3 3 5 C4.65 5 6.3 5 8 5 C7.67 3.68 7.34 2.36 7 1 C8.32 0.67 9.64 0.34 11 0 C11 4.29 11 8.58 11 13 C9.68 13 8.36 13 7 13 C7 12.01 7 11.02 7 10 C6.01 10 5.02 10 4 10 C3.67 10.99 3.34 11.98 3 13 C1.68 12.67 0.36 12.34 -1 12 C-1.02712066 10.56260487 -1.04645067 9.12506137 -1.0625 7.6875 C-1.07410156 6.88699219 -1.08570313 6.08648437 -1.09765625 5.26171875 C-1 3 -1 3 0 0 Z " fill="#FBFBFB" transform="translate(174,112)"/>
<path d="M0 0 C0.66 0 1.32 0 2 0 C3.65 4.29 5.3 8.58 7 13 C4.0703125 12.56054688 4.0703125 12.56054688 1.140625 12.12109375 C-1.12638056 11.99285073 -2.83849957 12.34278703 -5 13 C-4.54554036 11.58208592 -4.08625056 10.16571954 -3.625 8.75 C-3.24214844 7.56664063 -3.24214844 7.56664063 -2.8515625 6.359375 C-2.04826333 4.13372042 -1.10288338 2.09068328 0 0 Z " fill="#FBFBFB" transform="translate(162,112)"/>
<path d="M0 0 C1.32 0 2.64 0 4 0 C3.67 1.65 3.34 3.3 3 5 C1.68 4.67 0.36 4.34 -1 4 C-0.67 2.68 -0.34 1.36 0 0 Z " fill="#F9F9F9" transform="translate(229,91)"/>
<path d="M0 0 C0 0.99 0 1.98 0 3 C-1.53125 4.38671875 -1.53125 4.38671875 -3.5 5.6875 C-4.47453125 6.34298828 -4.47453125 6.34298828 -5.46875 7.01171875 C-5.9740625 7.33785156 -6.479375 7.66398437 -7 8 C-4.18918919 0 -4.18918919 0 0 0 Z " fill="#F0F0F0" transform="translate(229,68)"/>
</svg>
