<?xml version="1.0" encoding="UTF-8"?>
<svg version="1.1" xmlns="http://www.w3.org/2000/svg" width="500" height="500">
<path d="M0 0 C6.65075757 13.30151514 -0.28849222 38.395044 -1.94641495 52.71464157 C-2.35705531 56.28792548 -2.75281687 59.86285194 -3.14916992 63.43774414 C-3.63209352 67.78822264 -4.11551007 72.13863477 -4.60438538 76.4884491 C-6.08081961 89.63057814 -7.47315136 102.78066931 -8.8125 115.9375 C-8.91479919 116.94042084 -9.01709839 117.94334167 -9.12249756 118.97665405 C-12.06688324 144.93393625 -12.06688324 144.93393625 -13 171 C-11.31863556 167.51575024 -9.63827894 164.03101613 -7.95858765 160.54595947 C-7.06134622 158.68510709 -6.16312665 156.82472886 -5.26489258 154.96435547 C-2.61441983 149.46948935 0.02773339 143.97225975 2.5859375 138.43359375 C6.85865783 129.18913019 11.41423292 120.53875222 17 112 C17.80244141 110.6696875 17.80244141 110.6696875 18.62109375 109.3125 C21.46899452 104.69668161 23.56895097 101.59736736 29 100 C31.33801618 99.86743207 33.61073926 99.87102276 35.94921875 99.9921875 C38.20278311 100.11009423 38.20278311 100.11009423 41 99 C41.66 99.33 42.32 99.66 43 100 C42.98839844 100.91523438 42.97679687 101.83046875 42.96484375 102.7734375 C42.95582031 103.96195312 42.94679688 105.15046875 42.9375 106.375 C42.92589844 107.55835938 42.91429687 108.74171875 42.90234375 109.9609375 C42.78533407 112.91921521 42.78533407 112.91921521 44 115 C47.31650094 114.6314999 49.62072548 113.25328562 51.92593384 110.85202026 C54.38198312 106.61703624 53.67789642 101.28391498 53.63671875 96.53515625 C53.64709671 95.31025986 53.65747467 94.08536346 53.66816711 92.823349 C53.69786897 88.90278236 53.69448097 84.98315871 53.6875 81.0625 C53.69644186 77.17424185 53.71263196 73.28623573 53.7389679 69.39805603 C53.75367596 66.98156396 53.75781186 64.56497421 53.74919128 62.14845276 C53.82208287 40.19077367 53.82208287 40.19077367 59 33 C61 32.0625 61 32.0625 63 32 C66 34 66 34 67 37 C68.32374932 53.80658941 65.80966693 69.96121324 63.13452148 86.50073242 C62.99674789 87.35413712 62.8589743 88.20754181 62.71702576 89.08680725 C62.45433936 90.69951802 62.18715141 92.31150436 61.91468811 93.92259216 C61.29849613 97.65268653 60.84270355 101.21645858 61 105 C61.78375 104.030625 62.5675 103.06125 63.375 102.0625 C64.91288705 100.16037654 65.79259913 99.10370043 68 98 C71 97.8125 71 97.8125 74 98 C76.62451617 100.62451617 76.5832868 102.4877828 77.125 106.125 C77.29257812 107.22070312 77.46015625 108.31640625 77.6328125 109.4453125 C77.75398437 110.28835937 77.87515625 111.13140625 78 112 C80.96175123 111.38722388 82.38058783 110.74627478 85 109 C85.57748803 107.03638136 85.57748803 107.03638136 85.6875 104.875 C85.8421875 102.956875 85.8421875 102.956875 86 101 C87.32 100.67 88.64 100.34 90 100 C90.99 101.65 91.98 103.3 93 105 C93.5775 104.21625 94.155 103.4325 94.75 102.625 C96.86884122 100.15301857 97.9324604 98.92955745 101 98 C104.34977063 98.31902577 105.59179639 98.59179639 108 101 C108.1953125 104.2578125 108.1953125 104.2578125 108.125 108.125 C108.10695313 109.40632813 108.08890625 110.68765625 108.0703125 112.0078125 C108.04710937 112.99523437 108.02390625 113.98265625 108 115 C108.66 115 109.32 115 110 115 C111.22542253 113.37766943 111.22542253 113.37766943 112.375 111.3125 C117.53089354 102.73455323 117.53089354 102.73455323 121 101 C128.26224784 100.42363112 128.26224784 100.42363112 131 102.5625 C132.32761013 105.7985497 132.19966912 108.53906866 132 112 C134.66300225 111.62614439 135.77126295 111.25446297 137.59765625 109.22265625 C138.08105469 108.50980469 138.56445312 107.79695313 139.0625 107.0625 C142.94065209 101.39443155 142.94065209 101.39443155 146.9375 100.62890625 C149.05207161 100.56082345 150.92272992 100.58540971 153 101 C155.0625 103.0625 155.0625 103.0625 156 106 C155.6875 109.8125 155.6875 109.8125 155 113 C157.61012067 112.1386077 157.61012067 112.1386077 160 110 C160.56889487 107.62604021 160.74897882 105.39753882 160.859375 102.9609375 C161 101 161 101 162 100 C163.66617115 99.95936168 165.33388095 99.957279 167 100 C167 101.98 167 103.96 167 106 C167.969375 106.144375 168.93875 106.28875 169.9375 106.4375 C173 107 173 107 174 108 C173.90982004 110.19050021 173.75333792 112.378466 173.5625 114.5625 C173.46066406 115.76003906 173.35882813 116.95757812 173.25390625 118.19140625 C173.17011719 119.11824219 173.08632813 120.04507813 173 121 C178.10557473 117.28685474 180.55426749 113.79782471 183 108 C183.66 108 184.32 108 185 108 C183.66306248 114.46186469 181.91253813 119.08746187 177.125 123.875 C174.32128484 125.35931979 172.12299996 125.21293182 169 125 C166.85300031 121.55824478 166.90143205 119.2279708 167.375 115.25 C167.48585938 114.26515625 167.59671875 113.2803125 167.7109375 112.265625 C167.80632812 111.51796875 167.90171875 110.7703125 168 110 C164.20364762 111.38778618 164.20364762 111.38778618 161.125 113.9375 C158.3738877 116.60769723 155.54883642 117.5927028 152 119 C150.989375 119.598125 149.97875 120.19625 148.9375 120.8125 C146 122 146 122 142.75 121.3125 C140 120 140 120 138 118 C137.375 115.875 137.375 115.875 137 114 C136.34 114.66 135.68 115.32 135 116 C132.66666667 117 130.33333333 118 128 119 C127.34 119.66 126.68 120.32 126 121 C122.34014705 122.05729085 120.63167366 122.28837276 117.125 120.6875 C116.42375 120.130625 115.7225 119.57375 115 119 C115 118.34 115 117.68 115 117 C114.29875 117.66 113.5975 118.32 112.875 119 C109.51896425 121.33463357 108.00106924 121.69583813 104 121 C101.93105467 118.86306116 101.07119415 117.52887084 100.671875 114.5625 C100.69765625 113.716875 100.7234375 112.87125 100.75 112 C100.76546875 111.154375 100.7809375 110.30875 100.796875 109.4375 C100.98487981 107.18144231 101.37669908 105.17149996 102 103 C99.37285702 105.34374855 97.96789672 107.71825693 96.4375 110.875 C95.81681641 112.13957031 95.81681641 112.13957031 95.18359375 113.4296875 C93.95810525 116.00411926 93.95810525 116.00411926 92.9765625 118.765625 C92 121 92 121 89.9375 121.875 C89.298125 121.91625 88.65875 121.9575 88 122 C85.95301586 119.95301586 86.29954307 115.69588759 86 113 C85.34 113.66 84.68 114.32 84 115 C79.98141147 117.67905902 77.74694284 117.32182663 73 117 C71.20724134 113.88089144 70.65709282 111.32317572 70.375 107.75 C70.26285156 106.41195312 70.26285156 106.41195312 70.1484375 105.046875 C70.09945312 104.37140625 70.05046875 103.6959375 70 103 C67.59369741 105.15566359 66.43167494 106.94304015 65.3515625 109.9765625 C65.06796875 110.729375 64.784375 111.4821875 64.4921875 112.2578125 C63.91245328 113.84033022 63.34217327 115.4263424 62.78125 117.015625 C61.97271497 119.13529792 61.19992306 121.07389873 60 123 C57.3359375 124.0859375 57.3359375 124.0859375 55 124 C53.03177114 122.03177114 53.33751619 118.65191291 53 116 C52.154375 116.66 51.30875 117.32 50.4375 118 C46.46412407 120.31178236 44.51990817 120.65744119 40 120 C37.0625 118 37.0625 118 35 116 C34.525625 116.804375 34.05125 117.60875 33.5625 118.4375 C30.40861541 121.59138459 28.50767599 121.77998071 24.21875 122.25 C21.41369767 121.93393777 20.09687085 120.82999638 18 119 C10.85302453 133.47893147 4.40623443 148.19611286 -1.82055664 163.08911133 C-2.44022258 164.55812418 -3.05993105 166.02711909 -3.6796875 167.49609375 C-4.09333305 168.49819382 -4.09333305 168.49819382 -4.51533508 169.52053833 C-6.80652886 174.93237805 -9.03359761 179.68906508 -14 183 C-16.6875 182.625 -16.6875 182.625 -19 182 C-23.73447395 167.79657814 -19.41041109 148.06621892 -18.0625 133.4375 C-17.95861969 132.27574249 -17.85473938 131.11398499 -17.74771118 129.91702271 C-14.37473438 92.22611092 -10.1299424 54.61383856 -6 17 C-14.45428083 41.86826734 -14.45428083 41.86826734 -22.20703125 66.9609375 C-22.51349579 68.00767639 -22.81996033 69.05441528 -23.13571167 70.13287354 C-24.34152156 74.27203971 -25.53781691 78.41379345 -26.72241211 82.55908203 C-35.23264224 112.23264224 -35.23264224 112.23264224 -41 118 C-43.9375 118.25 -43.9375 118.25 -47 118 C-48.95732129 115.06401806 -49.30027913 114.1265756 -49.63842773 110.79833984 C-49.72869736 109.95250336 -49.81896698 109.10666687 -49.91197205 108.23519897 C-50.00160721 107.31969269 -50.09124237 106.4041864 -50.18359375 105.4609375 C-50.28462906 104.50667877 -50.38566437 103.55242004 -50.48976135 102.56924438 C-50.81351483 99.50525536 -51.12648845 96.44030674 -51.4375 93.375 C-53.11858068 76.68582129 -53.11858068 76.68582129 -55.59765625 60.1015625 C-55.78478432 59.03293472 -55.78478432 59.03293472 -55.97569275 57.94271851 C-56.37360548 54.69042177 -56.37360548 54.69042177 -58 52 C-62.56478234 69.87790066 -66.09048727 87.81574933 -69.1875 106 C-69.82503285 109.73470857 -70.46512738 113.46887728 -71.11384583 117.20166016 C-71.51228502 119.49446769 -71.90455688 121.78835937 -72.28935242 124.08349609 C-74.73647277 138.17144293 -74.73647277 138.17144293 -77 142 C-78.91300964 142.86230469 -78.91300964 142.86230469 -81 143 C-84 141 -84 141 -84.43237305 138.96655273 C-84.45855713 138.13067627 -84.48474121 137.2947998 -84.51171875 136.43359375 C-84.56489258 134.98823242 -84.56489258 134.98823242 -84.61914062 133.51367188 C-84.64169922 132.49853516 -84.66425781 131.48339844 -84.6875 130.4375 C-84.72166016 129.51130859 -84.75582031 128.58511719 -84.79101562 127.63085938 C-84.90368776 124.08743568 -84.96069357 120.5448302 -85 117 C-85.00920471 116.20065033 -85.01840942 115.40130066 -85.02789307 114.57772827 C-85.21543977 95.03423211 -84.63629681 75.51250885 -84.07287598 55.97979736 C-83.94965682 51.68126493 -83.83049462 47.38261995 -83.7109375 43.08398438 C-83.47781087 34.72254446 -83.24037336 26.36123472 -83 18 C-81.34385343 17.61781233 -79.67542976 17.28604898 -78 17 C-76.19040203 18.80959797 -76.86958627 21.58731153 -76.8671875 24.0234375 C-76.86428711 25.9878479 -76.86428711 25.9878479 -76.86132812 27.99194336 C-76.86546564 29.45296349 -76.87003661 30.91398244 -76.875 32.375 C-76.87588623 33.11718781 -76.87677246 33.85937561 -76.87768555 34.62405396 C-76.897045 48.65351304 -77.2093118 62.67242901 -77.57119751 76.69662476 C-77.96046564 91.80275066 -78.13351505 106.88815016 -78 122 C-77.81937012 120.85337891 -77.63874023 119.70675781 -77.45263672 118.52539062 C-66.71524908 50.71524908 -66.71524908 50.71524908 -59 43 C-56.625 42.625 -56.625 42.625 -54 43 C-46.43995761 53.67230886 -46.76955713 69.28711264 -45.4375 81.875 C-45.12600203 84.80033032 -44.81194761 87.7252711 -44.48976135 90.64944458 C-44.2907891 92.4562693 -44.09785205 94.26377246 -43.91197205 96.07199097 C-43.41128187 100.62967641 -42.66288679 104.68692848 -41 109 C-34.95160369 92.8810745 -30.34830025 76.34911072 -25.61254883 59.80786133 C-21.74082552 46.31019938 -17.75671116 32.87687723 -13.20703125 19.58984375 C-12.84494064 18.52254532 -12.48285004 17.45524689 -12.10978699 16.35560608 C-6.39887275 0 -6.39887275 0 0 0 Z M62 40 C61.11929203 47.23431599 60.87429498 54.3418371 60.9375 61.625 C60.94201172 62.62917969 60.94652344 63.63335937 60.95117188 64.66796875 C60.96281033 67.11204471 60.9791576 69.5559882 61 72 C61.33 72 61.66 72 62 72 C62.33997574 68.35475481 62.67074937 64.70872831 63 61.0625 C63.14308594 59.53012695 63.14308594 59.53012695 63.2890625 57.96679688 C63.82746552 51.94822031 64.10081112 46.04236648 64 40 C63.34 40 62.68 40 62 40 Z M60 72 C60 74.64 60 77.28 60 80 C60.33 80 60.66 80 61 80 C61 77.36 61 74.72 61 72 C60.67 72 60.34 72 60 72 Z M28.375 105.4375 C25.19732828 108.86604054 24.83587212 111.44069753 24 116 C25.32 116.33 26.64 116.66 28 117 C33.08930834 111.81716464 33.08930834 111.81716464 35 105 C32.07707819 103.70092364 31.23612201 103.87069509 28.375 105.4375 Z M125 105 C125.33 106.65 125.66 108.3 126 110 C126.33 108.68 126.66 107.36 127 106 C126.34 105.67 125.68 105.34 125 105 Z M149 105 C149 106.65 149 108.3 149 110 C149.66 109.34 150.32 108.68 151 108 C150.34 107.01 149.68 106.02 149 105 Z M120 110 C118.98459888 114.10223585 118.98459888 114.10223585 120 118 C121.32 117.67 122.64 117.34 124 117 C124.3373846 113.87501834 124.3373846 113.87501834 122 111.8125 C121.34 111.214375 120.68 110.61625 120 110 Z M143 110 C143 112.31 143 114.62 143 117 C143.99 117.33 144.98 117.66 146 118 C146.66 117.67 147.32 117.34 148 117 C147.38722388 114.03824877 146.74627478 112.61941217 145 110 C144.34 110 143.68 110 143 110 Z " fill="#FDFDFD" transform="translate(187,141)"/>
</svg>
