<?xml version="1.0" encoding="UTF-8"?>
<svg xmlns="http://www.w3.org/2000/svg" xmlns:xlink="http://www.w3.org/1999/xlink" width="250px" height="100px" viewBox="0 0 250 100" version="1.1">
<g id="surface1">
<path style=" stroke:none;fill-rule:nonzero;fill:rgb(99.215686%,99.215686%,99.215686%);fill-opacity:1;" d="M 93.5 28.199219 C 96.824219 30.859375 93.355469 35.878906 92.527344 38.742188 C 92.320312 39.457031 92.125 40.171875 91.925781 40.886719 C 91.683594 41.757812 91.441406 42.628906 91.199219 43.496094 C 90.460938 46.125 89.761719 48.757812 89.09375 51.386719 C 89.042969 51.589844 88.992188 51.789062 88.9375 51.996094 C 87.464844 57.1875 87.464844 57.1875 87 62.398438 C 87.839844 61.703125 88.679688 61.007812 89.519531 60.308594 C 89.96875 59.9375 90.417969 59.566406 90.867188 59.191406 C 92.191406 58.09375 93.515625 56.996094 94.792969 55.886719 C 96.929688 54.039062 99.207031 52.308594 102 50.601562 C 102.402344 50.332031 102.402344 50.332031 102.8125 50.0625 C 104.234375 49.140625 105.285156 48.519531 108 48.199219 C 109.167969 48.171875 110.304688 48.175781 111.476562 48.199219 C 112.601562 48.222656 112.601562 48.222656 114 48 C 114.328125 48.066406 114.660156 48.132812 115 48.199219 C 114.996094 48.382812 114.988281 48.566406 114.984375 48.753906 C 114.976562 48.992188 114.972656 49.230469 114.96875 49.476562 C 114.964844 49.710938 114.957031 49.949219 114.953125 50.191406 C 114.894531 50.785156 114.894531 50.785156 115.5 51.199219 C 117.160156 51.125 118.308594 50.851562 119.464844 50.371094 C 120.691406 49.523438 120.339844 48.457031 120.320312 47.507812 C 120.324219 47.261719 120.328125 47.015625 120.335938 46.765625 C 120.347656 45.980469 120.347656 45.195312 120.34375 44.414062 C 120.347656 43.636719 120.355469 42.855469 120.371094 42.078125 C 120.375 41.597656 120.378906 41.113281 120.375 40.628906 C 120.410156 36.238281 120.410156 36.238281 123 34.800781 C 124 34.613281 124 34.613281 125 34.601562 C 126.5 35 126.5 35 127 35.601562 C 127.660156 38.960938 126.40625 42.191406 125.066406 45.5 C 125 45.671875 124.929688 45.839844 124.859375 46.015625 C 124.726562 46.339844 124.59375 46.664062 124.457031 46.984375 C 124.148438 47.730469 123.921875 48.441406 124 49.199219 C 124.390625 49.007812 124.785156 48.8125 125.1875 48.613281 C 125.957031 48.230469 126.394531 48.019531 127.5 47.800781 C 129 47.761719 129 47.761719 130.5 47.800781 C 131.8125 48.324219 131.792969 48.699219 132.0625 49.425781 C 132.144531 49.644531 132.230469 49.863281 132.316406 50.089844 C 132.378906 50.257812 132.4375 50.425781 132.5 50.601562 C 133.980469 50.476562 134.691406 50.347656 136 50 C 136.289062 49.605469 136.289062 49.605469 136.34375 49.175781 C 136.421875 48.792969 136.421875 48.792969 136.5 48.398438 C 137.160156 48.335938 137.820312 48.269531 138.5 48.199219 C 138.996094 48.53125 139.488281 48.859375 140 49.199219 C 140.289062 49.042969 140.578125 48.886719 140.875 48.726562 C 141.933594 48.230469 142.464844 47.984375 144 47.800781 C 145.675781 47.863281 146.296875 47.917969 147.5 48.398438 C 147.597656 49.050781 147.597656 49.050781 147.5625 49.824219 C 147.554688 50.082031 147.542969 50.335938 147.535156 50.601562 C 147.523438 50.800781 147.511719 50.996094 147.5 51.199219 C 147.828125 51.199219 148.160156 51.199219 148.5 51.199219 C 149.113281 50.875 149.113281 50.875 149.6875 50.460938 C 152.265625 48.746094 152.265625 48.746094 154 48.398438 C 157.632812 48.285156 157.632812 48.285156 159 48.710938 C 159.664062 49.359375 159.601562 49.90625 159.5 50.601562 C 160.832031 50.523438 161.386719 50.449219 162.296875 50.042969 C 162.539062 49.902344 162.78125 49.757812 163.03125 49.613281 C 164.96875 48.480469 164.96875 48.480469 166.96875 48.324219 C 168.027344 48.3125 168.960938 48.316406 170 48.398438 C 171.03125 48.8125 171.03125 48.8125 171.5 49.398438 C 171.34375 50.164062 171.34375 50.164062 171 50.800781 C 172.304688 50.628906 172.304688 50.628906 173.5 50.199219 C 173.785156 49.726562 173.875 49.28125 173.929688 48.792969 C 174 48.398438 174 48.398438 174.5 48.199219 C 175.332031 48.191406 176.167969 48.191406 177 48.199219 C 177 48.597656 177 48.992188 177 49.398438 C 177.484375 49.429688 177.96875 49.457031 178.46875 49.488281 C 180 49.601562 180 49.601562 180.5 49.800781 C 180.453125 50.238281 180.375 50.675781 180.28125 51.113281 C 180.230469 51.351562 180.179688 51.589844 180.125 51.839844 C 180.085938 52.023438 180.042969 52.210938 180 52.398438 C 182.554688 51.65625 183.777344 50.960938 185 49.800781 C 185.328125 49.800781 185.660156 49.800781 186 49.800781 C 185.332031 51.09375 184.457031 52.015625 182.0625 52.976562 C 180.660156 53.273438 179.5625 53.242188 178 53.199219 C 176.925781 52.511719 176.949219 52.046875 177.1875 51.25 C 177.242188 51.054688 177.296875 50.855469 177.355469 50.652344 C 177.402344 50.503906 177.449219 50.355469 177.5 50.199219 C 175.601562 50.476562 175.601562 50.476562 174.0625 50.988281 C 172.6875 51.523438 171.273438 51.71875 169.5 52 C 168.996094 52.121094 168.488281 52.238281 167.96875 52.363281 C 166.5 52.601562 166.5 52.601562 164.875 52.460938 C 163.5 52.199219 163.5 52.199219 162.5 51.800781 C 162.1875 51.375 162.1875 51.375 162 51 C 161.671875 51.132812 161.339844 51.265625 161 51.398438 C 159.832031 51.601562 158.667969 51.800781 157.5 52 C 157.171875 52.132812 156.839844 52.265625 156.5 52.398438 C 154.671875 52.613281 153.816406 52.65625 152.0625 52.335938 C 151.710938 52.226562 151.359375 52.113281 151 52 C 151 51.867188 151 51.734375 151 51.601562 C 150.648438 51.730469 150.296875 51.863281 149.9375 52 C 148.257812 52.46875 147.5 52.539062 145.5 52.398438 C 144.464844 51.972656 144.035156 51.707031 143.835938 51.113281 C 143.847656 50.945312 143.863281 50.773438 143.875 50.601562 C 143.882812 50.429688 143.890625 50.261719 143.898438 50.085938 C 143.992188 49.636719 144.1875 49.234375 144.5 48.800781 C 143.1875 49.269531 142.484375 49.742188 141.71875 50.375 C 141.410156 50.628906 141.410156 50.628906 141.09375 50.886719 C 140.480469 51.402344 140.480469 51.402344 139.988281 51.953125 C 139.5 52.398438 139.5 52.398438 138.46875 52.574219 C 138.148438 52.582031 137.828125 52.589844 137.5 52.601562 C 136.476562 52.191406 136.648438 51.339844 136.5 50.800781 C 136.171875 50.933594 135.839844 51.0625 135.5 51.199219 C 133.492188 51.734375 132.375 51.664062 130 51.601562 C 129.105469 50.976562 128.828125 50.464844 128.6875 49.75 C 128.632812 49.480469 128.632812 49.480469 128.574219 49.210938 C 128.550781 49.074219 128.523438 48.9375 128.5 48.800781 C 127.296875 49.230469 126.714844 49.589844 126.175781 50.195312 C 126.035156 50.347656 125.890625 50.496094 125.746094 50.652344 C 125.457031 50.96875 125.171875 51.285156 124.890625 51.601562 C 124.488281 52.027344 124.101562 52.414062 123.5 52.800781 C 122.167969 53.015625 122.167969 53.015625 121 53 C 120.015625 52.605469 120.167969 51.929688 120 51.398438 C 119.578125 51.53125 119.15625 51.664062 118.71875 51.800781 C 116.730469 52.261719 115.761719 52.332031 113.5 52.199219 C 112.03125 51.800781 112.03125 51.800781 111 51.398438 C 110.761719 51.5625 110.527344 51.722656 110.28125 51.886719 C 108.703125 52.519531 107.753906 52.554688 105.609375 52.648438 C 104.207031 52.585938 103.546875 52.367188 102.5 52 C 98.925781 54.894531 95.703125 57.839844 92.589844 60.816406 C 92.28125 61.113281 91.96875 61.40625 91.660156 61.699219 C 91.453125 61.898438 91.453125 61.898438 91.242188 62.105469 C 90.097656 63.1875 88.984375 64.136719 86.5 64.800781 C 85.15625 64.726562 85.15625 64.726562 84 64.601562 C 81.632812 61.757812 83.792969 57.8125 84.46875 54.886719 C 84.519531 54.65625 84.574219 54.421875 84.625 54.183594 C 86.3125 46.644531 88.433594 39.121094 90.5 31.601562 C 86.273438 36.574219 86.273438 36.574219 82.398438 41.59375 C 82.242188 41.800781 82.089844 42.011719 81.933594 42.226562 C 81.328125 43.054688 80.730469 43.882812 80.140625 44.710938 C 75.882812 50.648438 75.882812 50.648438 73 51.800781 C 71.53125 51.851562 71.53125 51.851562 70 51.800781 C 69.019531 51.210938 68.851562 51.023438 68.679688 50.359375 C 68.636719 50.191406 68.589844 50.019531 68.542969 49.847656 C 68.5 49.664062 68.453125 49.480469 68.40625 49.292969 C 68.359375 49.101562 68.308594 48.910156 68.253906 48.714844 C 68.09375 48.101562 67.9375 47.488281 67.78125 46.875 C 66.941406 43.539062 66.941406 43.539062 65.703125 40.21875 C 65.609375 40.007812 65.609375 40.007812 65.511719 39.789062 C 65.3125 39.136719 65.3125 39.136719 64.5 38.601562 C 62.21875 42.175781 60.453125 45.761719 58.90625 49.398438 C 58.585938 50.148438 58.265625 50.894531 57.941406 51.640625 C 57.742188 52.097656 57.546875 52.558594 57.355469 53.015625 C 56.132812 55.835938 56.132812 55.835938 55 56.601562 C 54.042969 56.773438 54.042969 56.773438 53 56.800781 C 51.5 56.398438 51.5 56.398438 51.285156 55.992188 C 51.269531 55.824219 51.257812 55.660156 51.242188 55.488281 C 51.21875 55.199219 51.21875 55.199219 51.191406 54.902344 C 51.179688 54.699219 51.167969 54.496094 51.15625 54.289062 C 51.140625 54.101562 51.121094 53.917969 51.105469 53.726562 C 51.046875 53.015625 51.019531 52.308594 51 51.601562 C 50.996094 51.441406 50.992188 51.28125 50.984375 51.117188 C 50.890625 47.207031 51.183594 43.300781 51.464844 39.394531 C 51.523438 38.535156 51.585938 37.675781 51.644531 36.816406 C 51.761719 35.144531 51.878906 33.472656 52 31.800781 C 52.828125 31.722656 53.664062 31.65625 54.5 31.601562 C 55.40625 31.960938 55.066406 32.515625 55.066406 33.003906 C 55.066406 33.398438 55.066406 33.398438 55.070312 33.796875 C 55.066406 34.089844 55.066406 34.382812 55.0625 34.675781 C 55.0625 34.824219 55.0625 34.972656 55.0625 35.125 C 55.050781 37.929688 54.894531 40.734375 54.714844 43.539062 C 54.519531 46.5625 54.433594 49.578125 54.5 52.601562 C 54.589844 52.371094 54.679688 52.140625 54.773438 51.90625 C 60.140625 38.34375 60.140625 38.34375 64 36.800781 C 65.1875 36.726562 65.1875 36.726562 66.5 36.800781 C 70.28125 38.933594 70.113281 42.058594 70.78125 44.574219 C 70.9375 45.160156 71.09375 45.746094 71.253906 46.328125 C 71.355469 46.691406 71.449219 47.054688 71.542969 47.414062 C 71.792969 48.324219 72.167969 49.136719 73 50 C 76.023438 46.777344 78.324219 43.46875 80.695312 40.160156 C 82.628906 37.460938 84.621094 34.773438 86.898438 32.117188 C 87.078125 31.90625 87.257812 31.691406 87.445312 31.472656 C 90.300781 28.199219 90.300781 28.199219 93.5 28.199219 Z M 124.5 36.199219 C 124.058594 37.648438 123.9375 39.070312 123.96875 40.523438 C 123.972656 40.726562 123.972656 40.925781 123.976562 41.132812 C 123.980469 41.621094 123.988281 42.109375 124 42.601562 C 124.164062 42.601562 124.328125 42.601562 124.5 42.601562 C 124.671875 41.871094 124.835938 41.140625 125 40.414062 C 125.070312 40.105469 125.070312 40.105469 125.144531 39.792969 C 125.414062 38.589844 125.550781 37.410156 125.5 36.199219 C 125.171875 36.199219 124.839844 36.199219 124.5 36.199219 Z M 123.5 42.601562 C 123.5 43.128906 123.5 43.65625 123.5 44.199219 C 123.664062 44.199219 123.828125 44.199219 124 44.199219 C 124 43.671875 124 43.144531 124 42.601562 C 123.835938 42.601562 123.671875 42.601562 123.5 42.601562 Z M 107.6875 49.289062 C 106.097656 49.972656 105.917969 50.488281 105.5 51.398438 C 106.160156 51.464844 106.820312 51.53125 107.5 51.601562 C 110.042969 50.5625 110.042969 50.5625 111 49.199219 C 109.539062 48.941406 109.117188 48.972656 107.6875 49.289062 Z M 156 49.199219 C 156.164062 49.53125 156.328125 49.859375 156.5 50.199219 C 156.664062 49.9375 156.828125 49.671875 157 49.398438 C 156.671875 49.335938 156.339844 49.269531 156 49.199219 Z M 168 49.199219 C 168 49.53125 168 49.859375 168 50.199219 C 168.328125 50.066406 168.660156 49.9375 169 49.800781 C 168.671875 49.601562 168.339844 49.402344 168 49.199219 Z M 153.5 50.199219 C 152.992188 51.019531 152.992188 51.019531 153.5 51.800781 C 154.160156 51.734375 154.820312 51.667969 155.5 51.601562 C 155.667969 50.976562 155.667969 50.976562 154.5 50.5625 C 154.171875 50.441406 153.839844 50.324219 153.5 50.199219 Z M 165 50.199219 C 165 50.660156 165 51.125 165 51.601562 C 165.496094 51.664062 165.988281 51.730469 166.5 51.800781 C 166.828125 51.734375 167.160156 51.667969 167.5 51.601562 C 167.195312 51.007812 166.875 50.722656 166 50.199219 C 165.671875 50.199219 165.339844 50.199219 165 50.199219 Z M 165 50.199219 "/>
</g>
</svg>
