<?xml version="1.0" encoding="UTF-8"?>
<svg version="1.1" xmlns="http://www.w3.org/2000/svg" width="411" height="110">
<path d="M0 0 C135.63 0 271.26 0 411 0 C411 36.3 411 72.6 411 110 C275.37 110 139.74 110 0 110 C0 73.7 0 37.4 0 0 Z " fill="#010101" transform="translate(0,0)"/>
<path d="M0 0 C0.495 12.375 0.495 12.375 1 25 C3.475 22.525 3.475 22.525 6 20 C9.46696038 18.26651981 13.20948937 18.52300621 17 19 C22.46341463 21.92682927 22.46341463 21.92682927 24 25 C24.14301411 27.23828137 24.22647393 29.48047961 24.28125 31.72265625 C24.29965942 32.38333603 24.31806885 33.04401581 24.33703613 33.72471619 C24.41579828 36.55532493 24.48359952 39.38617171 24.55224609 42.21704102 C24.6038644 44.28153648 24.66114518 46.34582059 24.71875 48.41015625 C24.74904297 49.64902588 24.77933594 50.88789551 24.81054688 52.16430664 C24.6807776 54.90024329 24.6807776 54.90024329 26 56 C27.87321948 56.16053815 27.87321948 56.16053815 30 56.125 C30.721875 56.12757812 31.44375 56.13015625 32.1875 56.1328125 C34.02089415 56.19695276 34.02089415 56.19695276 35 55 C35.15888092 52.71011219 35.25138073 50.41556559 35.31640625 48.12109375 C35.33718735 47.4344313 35.35796844 46.74776886 35.37937927 46.04029846 C35.44494143 43.83947065 35.50379015 41.63852025 35.5625 39.4375 C35.60567892 37.94855486 35.649293 36.45962227 35.69335938 34.97070312 C35.8006293 31.31393447 35.90187772 27.65702682 36 24 C34.02 23.34 32.04 22.68 30 22 C30 21.34 30 20.68 30 20 C34.29 19.67 38.58 19.34 43 19 C43.495 21.475 43.495 21.475 44 24 C44.78375 23.360625 45.5675 22.72125 46.375 22.0625 C50.02565013 19.19413204 52.20490195 18.66895648 56.89453125 18.703125 C60.6071136 19.226606 63.39366349 21.39366349 66 24 C66.15971977 26.37338639 66.2592433 28.72118272 66.31640625 31.09765625 C66.33718735 31.80651474 66.35796844 32.51537323 66.37937927 33.24571228 C66.44494598 35.51787305 66.5037923 37.79015264 66.5625 40.0625 C66.60567849 41.59962183 66.64929255 43.1367315 66.69335938 44.67382812 C66.80063449 48.4490959 66.90188137 52.2244836 67 56 C68.65 56.33 70.3 56.66 72 57 C72 57.66 72 58.32 72 59 C66.06 59 60.12 59 54 59 C54 58.34 54 57.68 54 57 C55.65 56.67 57.3 56.34 59 56 C58.88203546 51.46083081 58.75780887 46.92189358 58.62768555 42.38305664 C58.58428015 40.83785711 58.54260929 39.29260786 58.50268555 37.74731445 C58.44511801 35.53060904 58.38138576 33.3141552 58.31640625 31.09765625 C58.29969376 30.4028566 58.28298126 29.70805695 58.26576233 28.99220276 C58.43497144 25.71237971 58.43497144 25.71237971 57 23 C51.34781388 22.37621743 51.34781388 22.37621743 46.5625 24.875 C43.90216825 28.49305117 43.88144229 30.62865077 43.90234375 35.1015625 C43.90556641 36.31328125 43.90878906 37.525 43.91210938 38.7734375 C43.92048828 40.04445312 43.92886719 41.31546875 43.9375 42.625 C43.94201172 43.90375 43.94652344 45.1825 43.95117188 46.5 C43.96298797 49.66671292 43.97946185 52.83333356 44 56 C45.485 56.495 45.485 56.495 47 57 C47 57.66 47 58.32 47 59 C35.45 59 23.9 59 12 59 C12 58.34 12 57.68 12 57 C13.32 56.34 14.64 55.68 16 55 C16.04938628 50.76417673 16.08571263 46.52850535 16.10986328 42.29248047 C16.11992963 40.85104453 16.1335838 39.40962905 16.15087891 37.96826172 C16.17510012 35.89806066 16.18647641 33.82812924 16.1953125 31.7578125 C16.20578613 30.5114502 16.21625977 29.26508789 16.22705078 27.98095703 C16.31652492 24.88228369 16.31652492 24.88228369 14 23 C10.62693382 22.41585298 10.62693382 22.41585298 7 23 C4.36983839 25.1727422 2.52663106 26.94673788 1 30 C0.915085 31.8863912 0.892807 33.77578515 0.90234375 35.6640625 C0.90556641 36.78554688 0.90878906 37.90703125 0.91210938 39.0625 C0.92048828 40.238125 0.92886719 41.41375 0.9375 42.625 C0.94201172 43.80835938 0.94652344 44.99171875 0.95117188 46.2109375 C0.96298533 49.14067507 0.97945742 52.07031272 1 55 C2.32 55.66 3.64 56.32 5 57 C5 57.66 5 58.32 5 59 C0.54172074 59.0578304 -3.9164628 59.09353855 -8.375 59.125 C-9.64601562 59.14175781 -10.91703125 59.15851563 -12.2265625 59.17578125 C-13.43828125 59.18222656 -14.65 59.18867187 -15.8984375 59.1953125 C-17.01911621 59.20578613 -18.13979492 59.21625977 -19.29443359 59.22705078 C-22 59 -22 59 -24 57 C-25.02258233 52.60928712 -25.07687181 48.42969642 -25 43.9375 C-24.88990092 33.42900013 -24.88990092 33.42900013 -26 23 C-28.52475462 21.73762269 -30.31200466 21.90143596 -33.125 21.9375 C-34.03507813 21.94652344 -34.94515625 21.95554687 -35.8828125 21.96484375 C-36.93082031 21.98224609 -36.93082031 21.98224609 -38 22 C-37.34 22.99 -36.68 23.98 -36 25 C-35.875 28.1875 -35.875 28.1875 -36 31 C-38.875 31.625 -38.875 31.625 -42 32 C-44 30 -44 30 -44.625 27.1875 C-43.92144664 23.59937784 -43.53684142 23.1702328 -40.6875 21.125 C-35.60510632 18.33555125 -30.66346544 18.04170021 -25 19 C-21.8534286 20.32131416 -19.56562095 21.86875811 -18 25 C-17.84479443 27.32273159 -17.74980833 29.64959313 -17.68359375 31.9765625 C-17.66281265 32.66181 -17.64203156 33.3470575 -17.62062073 34.05307007 C-17.55519815 36.24361069 -17.49627446 38.43427189 -17.4375 40.625 C-17.39430782 42.1093875 -17.3506933 43.59376278 -17.30664062 45.078125 C-17.19952447 48.71862084 -17.09823638 52.35925251 -17 56 C-13.7 56 -10.4 56 -7 56 C-7.04405274 48.64888854 -7.11378224 41.29864419 -7.20751953 33.94799805 C-7.23577838 31.44644057 -7.2569683 28.94479299 -7.27099609 26.44311523 C-7.29235696 22.85092875 -7.33897407 19.25983136 -7.390625 15.66796875 C-7.39185364 14.54601608 -7.39308228 13.42406342 -7.39434814 12.26811218 C-7.41406677 11.22725967 -7.4337854 10.18640717 -7.45410156 9.11401367 C-7.46298401 8.19690109 -7.47186646 7.27978851 -7.48101807 6.33488464 C-7.80158331 3.82174922 -7.80158331 3.82174922 -10.03411865 2.18037415 C-11.00722992 1.59608894 -11.00722992 1.59608894 -12 1 C-10.37512529 0.83211627 -8.75009558 0.66573213 -7.125 0.5 C-6.22007812 0.4071875 -5.31515625 0.314375 -4.3828125 0.21875 C-2 0 -2 0 0 0 Z " fill="#E8E8E8" transform="translate(170,26)"/>
<path d="M0 0 C3.5 1.8125 3.5 1.8125 6 4 C6.556875 4.433125 7.11375 4.86625 7.6875 5.3125 C12.75127779 11.82307145 12.98186218 19.0318108 12 27 C10.44298112 32.39189872 8.27151519 36.73810881 3.3125 39.625 C-1.38118523 41.48827769 -6.03196992 41.80991415 -11 41 C-16.14163489 38.57470052 -19.24691935 34.8733968 -22 30 C-22.8125 27.625 -22.8125 27.625 -23 25 C-23.05027344 24.34257813 -23.10054687 23.68515625 -23.15234375 23.0078125 C-23.43047219 16.57748307 -22.78770608 10.07809213 -18.3125 5.13671875 C-12.39601114 -0.02788299 -7.84825229 -0.82029756 0 0 Z " fill="#060606" transform="translate(266,45)"/>
<path d="M0 0 C5.45735573 1.92018072 7.97095327 4.91614197 11.08203125 9.64453125 C13.51619385 15.8904889 13.24455736 25.45970536 11.01953125 31.7890625 C8.24333717 36.35056293 5.10452199 39.29849267 0 41 C-6.85724405 41.73127952 -11.46601149 41.20583127 -17 37 C-21.47439512 31.34813247 -22.15860742 27.20792513 -22.25 20.125 C-22.27578125 18.93132813 -22.3015625 17.73765625 -22.328125 16.5078125 C-21.88869091 11.81005281 -20.48611691 8.57879235 -17.24609375 5.13671875 C-16.64925781 4.65847656 -16.05242187 4.18023437 -15.4375 3.6875 C-14.83808594 3.19636719 -14.23867188 2.70523438 -13.62109375 2.19921875 C-9.45147504 -0.88529437 -5.00248449 -0.42328715 0 0 Z " fill="#050505" transform="translate(304,45)"/>
<path d="M0 0 C4.29 0 8.58 0 13 0 C17.08929486 8.83287689 20.511597 17.91825991 24 27 C24.52068068 28.35162132 25.04150448 29.70318751 25.5625 31.0546875 C26.71052 34.0356258 27.85647019 37.01733699 29 40 C30.83217053 37.2517442 31.85416532 34.98695713 32.98828125 31.9140625 C33.36283447 30.90601562 33.7373877 29.89796875 34.12329102 28.859375 C34.51572998 27.79203125 34.90816895 26.7246875 35.3125 25.625 C36.11938963 23.45037162 36.92667848 21.27589132 37.734375 19.1015625 C38.12302734 18.05258789 38.51167969 17.00361328 38.91210938 15.92285156 C40.89443981 10.59689555 42.94664598 5.29897812 45 0 C49.29 0 53.58 0 58 0 C56.68 0.99 55.36 1.98 54 3 C53.42351357 5.18691063 53.42351357 5.18691063 53.54589844 7.6550293 C53.54620056 8.59577805 53.54650269 9.53652679 53.54681396 10.50578308 C53.56745911 11.51836685 53.58810425 12.53095062 53.609375 13.57421875 C53.61786469 15.13267265 53.61786469 15.13267265 53.62652588 16.72261047 C53.64893673 20.04470681 53.6991431 23.36572904 53.75 26.6875 C53.77005885 28.93813548 53.78831069 31.18878784 53.8046875 33.43945312 C53.8488168 38.9600026 53.91577579 44.47992457 54 50 C55.65 50.33 57.3 50.66 59 51 C59 51.66 59 52.32 59 53 C52.4 53 45.8 53 39 53 C39 52.34 39 51.68 39 51 C41.475 50.505 41.475 50.505 44 50 C44 36.8 44 23.6 44 10 C39.85667024 21.15815067 39.85667024 21.15815067 35.71362305 32.31640625 C35.18799838 33.73177458 34.66236423 35.14713939 34.13671875 36.5625 C33.87137329 37.27728516 33.60602783 37.99207031 33.3326416 38.72851562 C31.56441098 43.48919891 29.78521739 48.2456596 28 53 C27.34 53 26.68 53 26 53 C24.30674271 48.89818656 22.62156455 44.79309527 20.9375 40.6875 C20.47150391 39.55892578 20.00550781 38.43035156 19.52539062 37.26757812 C15.43100984 27.26837607 11.68946426 17.15437007 8 7 C7.97532668 12.80240568 7.95715276 18.60478098 7.94506836 24.40722656 C7.9400319 26.38216687 7.93320249 28.35710343 7.92456055 30.33203125 C7.91246492 33.16667605 7.9067649 36.00127166 7.90234375 38.8359375 C7.89460182 40.16569107 7.89460182 40.16569107 7.88670349 41.52230835 C7.74597908 45.89771239 7.74597908 45.89771239 9 50 C11.52733235 50.65555119 11.52733235 50.65555119 14 51 C14 51.66 14 52.32 14 53 C9.05 53 4.1 53 -1 53 C-1 52.34 -1 51.68 -1 51 C0.65 50.34 2.3 49.68 4 49 C4.10129515 42.50396012 4.17142075 36.00812332 4.21972656 29.51147461 C4.23986064 27.30078521 4.26717015 25.09014918 4.30175781 22.87963867 C4.35019629 19.70478154 4.37295072 16.53062752 4.390625 13.35546875 C4.41127014 12.36475876 4.43191528 11.37404877 4.45318604 10.35331726 C4.45348816 9.43258926 4.45379028 8.51186127 4.45410156 7.56323242 C4.46298401 6.7527092 4.47186646 5.94218597 4.48101807 5.10710144 C4.10270888 2.40369812 4.10270888 2.40369812 0 0 Z " fill="#ECECEC" transform="translate(62,32)"/>
<path d="M0 0 C3.63 0 7.26 0 11 0 C11.66 17.82 12.32 35.64 13 54 C14.32 54.66 15.64 55.32 17 56 C17 56.66 17 57.32 17 58 C12.54172074 58.0578304 8.0835372 58.09353855 3.625 58.125 C2.35398438 58.14175781 1.08296875 58.15851563 -0.2265625 58.17578125 C-1.43828125 58.18222656 -2.65 58.18867187 -3.8984375 58.1953125 C-5.01911621 58.20578613 -6.13979492 58.21625977 -7.29443359 58.22705078 C-10 58 -10 58 -12 56 C-13.02258233 51.60928712 -13.07687181 47.42969642 -13 42.9375 C-12.88990092 32.42900013 -12.88990092 32.42900013 -14 22 C-16.52475462 20.73762269 -18.31200466 20.90143596 -21.125 20.9375 C-22.03507813 20.94652344 -22.94515625 20.95554687 -23.8828125 20.96484375 C-24.93082031 20.98224609 -24.93082031 20.98224609 -26 21 C-25.34 21.99 -24.68 22.98 -24 24 C-23.875 27.1875 -23.875 27.1875 -24 30 C-26.875 30.625 -26.875 30.625 -30 31 C-32 29 -32 29 -32.625 26.1875 C-31.92144664 22.59937784 -31.53684142 22.1702328 -28.6875 20.125 C-23.60510632 17.33555125 -18.66346544 17.04170021 -13 18 C-9.8534286 19.32131416 -7.56562095 20.86875811 -6 24 C-5.84479443 26.32273159 -5.74980833 28.64959313 -5.68359375 30.9765625 C-5.66281265 31.66181 -5.64203156 32.3470575 -5.62062073 33.05307007 C-5.55519815 35.24361069 -5.49627446 37.43427189 -5.4375 39.625 C-5.39430782 41.1093875 -5.3506933 42.59376278 -5.30664062 44.078125 C-5.19952447 47.71862084 -5.09823638 51.35925251 -5 55 C-1.7 55 1.6 55 5 55 C4.95594726 47.64888854 4.88621776 40.29864419 4.79248047 32.94799805 C4.76422162 30.44644057 4.7430317 27.94479299 4.72900391 25.44311523 C4.70764304 21.85092875 4.66102593 18.25983136 4.609375 14.66796875 C4.60814636 13.54601608 4.60691772 12.42406342 4.60565186 11.26811218 C4.58593323 10.22725967 4.5662146 9.18640717 4.54589844 8.11401367 C4.53701599 7.19690109 4.52813354 6.27978851 4.51898193 5.33488464 C4.13810084 2.42570626 4.13810084 2.42570626 0 0 Z " fill="#EEEEEE" transform="translate(158,27)"/>
<path d="M0 0 C3.5 1.8125 3.5 1.8125 6 4 C6.556875 4.433125 7.11375 4.86625 7.6875 5.3125 C12.75127779 11.82307145 12.98186218 19.0318108 12 27 C10.44298112 32.39189872 8.27151519 36.73810881 3.3125 39.625 C-1.38118523 41.48827769 -6.03196992 41.80991415 -11 41 C-16.14163489 38.57470052 -19.24691935 34.8733968 -22 30 C-22.8125 27.625 -22.8125 27.625 -23 25 C-23.05027344 24.34257813 -23.10054687 23.68515625 -23.15234375 23.0078125 C-23.43047219 16.57748307 -22.78770608 10.07809213 -18.3125 5.13671875 C-12.39601114 -0.02788299 -7.84825229 -0.82029756 0 0 Z M-11.875 4.625 C-16.43889145 11.87353348 -15.64135552 21.66237818 -15 30 C-13.76719631 33.78020849 -11.81326343 36.18673657 -9 39 C-5.12191063 39.43089882 -2.89769286 39.65507317 0.3125 37.3125 C4.34173037 31.79096208 4.33656897 26.67184009 4.3125 20.0625 C4.32861328 19.18142578 4.34472656 18.30035156 4.36132812 17.39257812 C4.36522368 12.19201003 3.97892148 8.45791762 1 4 C-3.87538786 0.74974142 -7.480665 0.61278109 -11.875 4.625 Z " fill="#E6E6E6" transform="translate(266,45)"/>
<path d="M0 0 C5.45735573 1.92018072 7.97095327 4.91614197 11.08203125 9.64453125 C13.51619385 15.8904889 13.24455736 25.45970536 11.01953125 31.7890625 C8.24333717 36.35056293 5.10452199 39.29849267 0 41 C-6.85724405 41.73127952 -11.46601149 41.20583127 -17 37 C-21.47439512 31.34813247 -22.15860742 27.20792513 -22.25 20.125 C-22.27578125 18.93132813 -22.3015625 17.73765625 -22.328125 16.5078125 C-21.88869091 11.81005281 -20.48611691 8.57879235 -17.24609375 5.13671875 C-16.64925781 4.65847656 -16.05242187 4.18023437 -15.4375 3.6875 C-14.83808594 3.19636719 -14.23867188 2.70523438 -13.62109375 2.19921875 C-9.45147504 -0.88529437 -5.00248449 -0.42328715 0 0 Z M-10.875 4.25 C-14.74642095 9.26007417 -14.27693823 14.63451148 -14.375 20.75 C-14.41238281 21.61882812 -14.44976562 22.48765625 -14.48828125 23.3828125 C-14.56520111 29.07488187 -13.56534968 32.74830831 -10.47729492 37.53710938 C-8.6456818 39.35086343 -7.47573797 39.56100215 -4.9375 39.75 C-2.08443421 39.4437387 -1.02738461 39.01945748 1.375 37.3125 C5.14445282 31.94827868 5.39291813 27.0528003 5.4375 20.6875 C5.47037109 19.87087891 5.50324219 19.05425781 5.53710938 18.21289062 C5.59249054 11.89440304 3.8707704 7.96040392 0 3 C-1.15140868 1.64145975 -1.15140868 1.64145975 -4.25 1.625 C-8.11079661 1.67343037 -8.11079661 1.67343037 -10.875 4.25 Z " fill="#E6E6E6" transform="translate(304,45)"/>
<path d="M0 0 C4.29 0 8.58 0 13 0 C16.38237285 7.30592536 19.30808646 14.76370646 22.1796875 22.28125 C23.34970022 25.34263667 24.56213843 28.38008919 25.8203125 31.40625 C28.7468735 38.57250865 30.94884501 44.20461997 29 52 C27.515 52.495 27.515 52.495 26 53 C24.30674271 48.89818656 22.62156455 44.79309527 20.9375 40.6875 C20.47150391 39.55892578 20.00550781 38.43035156 19.52539062 37.26757812 C15.43100984 27.26837607 11.68946426 17.15437007 8 7 C7.97532668 12.80240568 7.95715276 18.60478098 7.94506836 24.40722656 C7.9400319 26.38216687 7.93320249 28.35710343 7.92456055 30.33203125 C7.91246492 33.16667605 7.9067649 36.00127166 7.90234375 38.8359375 C7.89460182 40.16569107 7.89460182 40.16569107 7.88670349 41.52230835 C7.74597908 45.89771239 7.74597908 45.89771239 9 50 C11.52733235 50.65555119 11.52733235 50.65555119 14 51 C14 51.66 14 52.32 14 53 C9.05 53 4.1 53 -1 53 C-1 52.34 -1 51.68 -1 51 C0.65 50.34 2.3 49.68 4 49 C4.10129515 42.50396012 4.17142075 36.00812332 4.21972656 29.51147461 C4.23986064 27.30078521 4.26717015 25.09014918 4.30175781 22.87963867 C4.35019629 19.70478154 4.37295072 16.53062752 4.390625 13.35546875 C4.41127014 12.36475876 4.43191528 11.37404877 4.45318604 10.35331726 C4.45348816 9.43258926 4.45379028 8.51186127 4.45410156 7.56323242 C4.46298401 6.7527092 4.47186646 5.94218597 4.48101807 5.10710144 C4.10270888 2.40369812 4.10270888 2.40369812 0 0 Z " fill="#EEEEEE" transform="translate(62,32)"/>
<path d="M0 0 C2.375 1.0625 2.375 1.0625 4 3 C4.25 6.6875 4.25 6.6875 4 10 C-1.75 11.125 -1.75 11.125 -4 10 C-4 8.02 -4 6.04 -4 4 C-3.34 4 -2.68 4 -2 4 C-2 3.34 -2 2.68 -2 2 C-3.0725 2.350625 -4.145 2.70125 -5.25 3.0625 C-5.85328125 3.25972656 -6.4565625 3.45695312 -7.078125 3.66015625 C-10.21897876 5.84981649 -11.80167743 8.44610687 -13 12 C-13.4684309 16.32718481 -13.37847095 20.5917231 -13.25 24.9375 C-13.22292969 26.67870117 -13.22292969 26.67870117 -13.1953125 28.45507812 C-13.14841259 31.30424747 -13.08279059 34.15168531 -13 37 C-10.69 37.33 -8.38 37.66 -6 38 C-6 38.66 -6 39.32 -6 40 C-12.6 40 -19.2 40 -26 40 C-26 39.34 -26 38.68 -26 38 C-24.68 37.34 -23.36 36.68 -22 36 C-22 25.77 -22 15.54 -22 5 C-23.32 4.34 -24.64 3.68 -26 3 C-26 2.34 -26 1.68 -26 1 C-22.04 1 -18.08 1 -14 1 C-13.67 2.98 -13.34 4.96 -13 7 C-12.21625 6.030625 -11.4325 5.06125 -10.625 4.0625 C-7.40094503 0.07485306 -5.176903 -0.41415224 0 0 Z " fill="#EDEDED" transform="translate(346,45)"/>
<path d="M0 0 C0 6.6 0 13.2 0 20 C-1.65 20.66 -3.3 21.32 -5 22 C-5.9590625 22.556875 -5.9590625 22.556875 -6.9375 23.125 C-10.41876752 24.60190137 -13.61370542 24.43569258 -17.1875 23.3125 C-19.76865515 21.44338765 -20.77648704 19.96218928 -22 17 C-22.2571585 14.11281141 -21.96373256 11.73521783 -21 9 C-17.13502337 4.38350013 -5.78424611 -2.89212305 0 0 Z " fill="#EAEAEA" transform="translate(146,62)"/>
<path d="M0 0 C0.66 0 1.32 0 2 0 C2.33 8.25 2.66 16.5 3 25 C4.65 23.35 6.3 21.7 8 20 C11.46696038 18.26651981 15.20948937 18.52300621 19 19 C24.46341463 21.92682927 24.46341463 21.92682927 26 25 C26.14301411 27.23828137 26.22647393 29.48047961 26.28125 31.72265625 C26.30886414 32.71367592 26.30886414 32.71367592 26.33703613 33.72471619 C26.41579828 36.55532493 26.48359952 39.38617171 26.55224609 42.21704102 C26.6038644 44.28153648 26.66114518 46.34582059 26.71875 48.41015625 C26.74904297 49.64902588 26.77933594 50.88789551 26.81054688 52.16430664 C26.6807776 54.90024329 26.6807776 54.90024329 28 56 C30.85528607 56.400383 33.69736487 56.7518227 36.5625 57.0625 C37.36880859 57.15337891 38.17511719 57.24425781 39.00585938 57.33789062 C41.00347377 57.56247449 43.0016856 57.78173236 45 58 C45.495 57.01 45.495 57.01 46 56 C46.99 56.33 47.98 56.66 49 57 C49 57.66 49 58.32 49 59 C37.45 59 25.9 59 14 59 C14 58.34 14 57.68 14 57 C15.32 56.34 16.64 55.68 18 55 C18.04938628 50.76417673 18.08571263 46.52850535 18.10986328 42.29248047 C18.11992963 40.85104453 18.1335838 39.40962905 18.15087891 37.96826172 C18.17510012 35.89806066 18.18647641 33.82812924 18.1953125 31.7578125 C18.20578613 30.5114502 18.21625977 29.26508789 18.22705078 27.98095703 C18.31652492 24.88228369 18.31652492 24.88228369 16 23 C12.62693382 22.41585298 12.62693382 22.41585298 9 23 C6.14515489 25.27110728 6.14515489 25.27110728 4 28 C3.34 28.66 2.68 29.32 2 30 C0.60439955 27.20879909 0.78191712 24.79794308 0.68359375 21.6796875 C0.64169922 20.42285156 0.59980469 19.16601562 0.55664062 17.87109375 C0.51732422 16.55238281 0.47800781 15.23367187 0.4375 13.875 C0.39430488 12.53514249 0.35069027 11.19529844 0.30664062 9.85546875 C0.20029019 6.57042185 0.09826192 3.28529719 0 0 Z " fill="#E4E4E4" transform="translate(168,26)"/>
<path d="M0 0 C2.26882926 1.44528787 3.78951981 2.73919587 5 5.16015625 C5.15520557 7.48288784 5.25019167 9.80974938 5.31640625 12.13671875 C5.33718735 12.82196625 5.35796844 13.50721375 5.37937927 14.21322632 C5.44480185 16.40376694 5.50372554 18.59442814 5.5625 20.78515625 C5.60569218 22.26954375 5.6493067 23.75391903 5.69335938 25.23828125 C5.80047553 28.87877709 5.90176362 32.51940876 6 36.16015625 C7.423125 36.12921875 7.423125 36.12921875 8.875 36.09765625 C12 36.16015625 12 36.16015625 14 37.16015625 C16.37402501 37.23132007 18.75000677 37.2442471 21.125 37.22265625 C22.40632813 37.21363281 23.68765625 37.20460937 25.0078125 37.1953125 C25.99523437 37.18371094 26.98265625 37.17210937 28 37.16015625 C28 37.82015625 28 38.48015625 28 39.16015625 C23.54172074 39.21798665 19.0835372 39.2536948 14.625 39.28515625 C13.35398438 39.30191406 12.08296875 39.31867188 10.7734375 39.3359375 C9.56171875 39.34238281 8.35 39.34882812 7.1015625 39.35546875 C5.98088379 39.36594238 4.86020508 39.37641602 3.70556641 39.38720703 C1 39.16015625 1 39.16015625 -1 37.16015625 C-2.02258233 32.76944337 -2.07687181 28.58985267 -2 24.09765625 C-1.88990092 13.58915638 -1.88990092 13.58915638 -3 3.16015625 C-5.52475462 1.89777894 -7.31200466 2.06159221 -10.125 2.09765625 C-11.03507813 2.10667969 -11.94515625 2.11570313 -12.8828125 2.125 C-13.58148438 2.13660156 -14.28015625 2.14820313 -15 2.16015625 C-14.01 3.64515625 -14.01 3.64515625 -13 5.16015625 C-12.875 8.34765625 -12.875 8.34765625 -13 11.16015625 C-15.875 11.78515625 -15.875 11.78515625 -19 12.16015625 C-21 10.16015625 -21 10.16015625 -21.625 7.34765625 C-20.92144664 3.75953409 -20.53684142 3.33038905 -17.6875 1.28515625 C-12.25067752 -1.69881915 -5.81239413 -2.44075144 0 0 Z " fill="#F2F2F2" transform="translate(147,45.83984375)"/>
<path d="M0 0 C3.96 0 7.92 0 12 0 C12.79348625 4.87348823 13.11813526 9.52940184 13.09765625 14.46484375 C13.0962413 15.14301651 13.09482635 15.82118927 13.09336853 16.51991272 C13.08782745 18.65915578 13.07528653 20.79828925 13.0625 22.9375 C13.05747736 24.39908702 13.0529158 25.86067569 13.04882812 27.32226562 C13.03787745 30.88154526 13.02065445 34.44076191 13 38 C9.7 38 6.4 38 3 38 C3.66 37.01 4.32 36.02 5 35 C5.37032217 31.70229658 5.37032217 31.70229658 5.4140625 27.92578125 C5.44311172 26.90003242 5.44311172 26.90003242 5.4727478 25.8535614 C5.53243997 23.67333375 5.57888631 21.49305298 5.625 19.3125 C5.66318943 17.8326595 5.70224174 16.352841 5.7421875 14.87304688 C5.83813202 11.2488995 5.92220151 7.62458743 6 4 C4.02 3.34 2.04 2.68 0 2 C0 1.34 0 0.68 0 0 Z " fill="#EEEEEE" transform="translate(200,46)"/>
<path d="M0 0 C2.98086944 0.33120772 4.7214516 0.7869924 7.125 2.625 C11.91462293 8.69185571 12.59280895 14.08236577 12.42578125 21.6953125 C11.77827463 26.72091432 9.95604562 30.89484369 7 35 C4 37 4 37 0 37 C0.48374074 34.82316666 1.01212853 32.97592882 2.01953125 30.9765625 C3.43812637 26.66991117 3.32890511 22.56734319 3.3125 18.0625 C3.32861328 17.18142578 3.34472656 16.30035156 3.36132812 15.39257812 C3.36529131 10.1017287 2.76163001 6.65615192 0 2 C0 1.34 0 0.68 0 0 Z " fill="#EAEAEA" transform="translate(266,47)"/>
<path d="M0 0 C3.48170548 0.29014212 4.74228955 0.72756324 7.1875 3.3125 C12.05871901 10.53534198 12.12274899 18.48353817 11 27 C9.43447169 31.20772106 7.12877369 33.87122631 4 37 C1.875 36.625 1.875 36.625 0 36 C0.48726563 34.87851563 0.97453125 33.75703125 1.4765625 32.6015625 C3.26881524 27.80744476 3.44750122 23.45008565 3.375 18.375 C3.38660156 17.55515625 3.39820313 16.7353125 3.41015625 15.890625 C3.38548517 10.77548675 2.57140925 7.53057821 0 3 C0 2.01 0 1.02 0 0 Z " fill="#F2F2F2" transform="translate(305,47)"/>
<path d="M0 0 C0.10826289 2.4178712 0.18739789 4.83087556 0.25 7.25 C0.30027344 8.27287109 0.30027344 8.27287109 0.3515625 9.31640625 C0.41785919 12.73068585 0.24674427 14.65191433 -1.75 17.46875 C-5.31438914 19.89451483 -7.77758537 19.28149431 -12 19 C-14.25753085 15.81289762 -14.3849267 12.78571777 -13.80859375 8.96484375 C-12.23348198 5.13739824 -8.56899395 3.70834961 -5 2 C-3.91138672 1.43925781 -3.91138672 1.43925781 -2.80078125 0.8671875 C-1 0 -1 0 0 0 Z " fill="#090909" transform="translate(145,63)"/>
<path d="M0 0 C0.66 0.33 1.32 0.66 2 1 C2.02505615 2.29212402 2.0501123 3.58424805 2.07592773 4.91552734 C2.16991624 9.69769656 2.27015766 14.47971762 2.37231445 19.26171875 C2.41569577 21.33362366 2.45736846 23.40556507 2.49731445 25.47753906 C2.55493965 28.45128391 2.61865625 31.42484448 2.68359375 34.3984375 C2.70030624 35.32868744 2.71701874 36.25893738 2.73423767 37.21737671 C2.75418289 38.07811798 2.77412811 38.93885925 2.79467773 39.82568359 C2.81022202 40.58513275 2.8257663 41.34458191 2.84178162 42.12704468 C2.89127127 44.09115721 2.89127127 44.09115721 4 46 C6.52733235 46.65555119 6.52733235 46.65555119 9 47 C9 47.66 9 48.32 9 49 C4.05 49 -0.9 49 -6 49 C-6 48.34 -6 47.68 -6 47 C-4.35 46.34 -2.7 45.68 -1 45 C-0.67 30.15 -0.34 15.3 0 0 Z " fill="#C8C8C8" transform="translate(67,36)"/>
<path d="M0 0 C2 2 2 2 2.24050903 3.87295532 C2.2338472 5.01212906 2.2338472 5.01212906 2.22705078 6.17431641 C2.22689972 7.03505768 2.22674866 7.89579895 2.22659302 8.78262329 C2.21627045 9.71287323 2.20594788 10.64312317 2.1953125 11.6015625 C2.1924826 12.55316254 2.18965271 13.50476257 2.18673706 14.48519897 C2.17551989 17.53192592 2.15041263 20.57836154 2.125 23.625 C2.11497218 25.68749576 2.10584599 27.74999612 2.09765625 29.8125 C2.07557554 34.87511267 2.0410353 39.9375069 2 45 C1.67 45 1.34 45 1 45 C0.67 32.46 0.34 19.92 0 7 C-4.29 18.55 -8.58 30.1 -13 42 C-13.66 41.01 -14.32 40.02 -15 39 C-14.28076172 36.15600586 -14.28076172 36.15600586 -12.9296875 32.71484375 C-12.69218781 32.09912003 -12.45468811 31.4833963 -12.20999146 30.84901428 C-11.44437554 28.87327605 -10.66002326 26.90559667 -9.875 24.9375 C-9.36855011 23.63915549 -8.86332818 22.34033127 -8.359375 21.04101562 C-6.92443616 17.35330353 -5.4653641 13.67573286 -4 10 C-3.58395508 8.95602051 -3.16791016 7.91204102 -2.73925781 6.83642578 C-1.82862213 4.55662161 -0.91589506 2.27769521 0 0 Z " fill="#A1A1A1" transform="translate(106,35)"/>
<path d="M0 0 C0.66 0.66 1.32 1.32 2 2 C-2.96073422 3.32286246 -7.91111512 3.08893197 -13 3 C-12.01 4.485 -12.01 4.485 -11 6 C-10.875 9.1875 -10.875 9.1875 -11 12 C-13.875 12.625 -13.875 12.625 -17 13 C-19 11 -19 11 -19.625 8.1875 C-18.92144664 4.59937784 -18.53684142 4.1702328 -15.6875 2.125 C-10.71431973 -0.64183196 -5.56578689 -0.8901511 0 0 Z " fill="#ECECEC" transform="translate(145,45)"/>
<path d="M0 0 C2.375 1.0625 2.375 1.0625 4 3 C4.25 6.6875 4.25 6.6875 4 10 C-1.75 11.125 -1.75 11.125 -4 10 C-4 8.02 -4 6.04 -4 4 C-3.34 4 -2.68 4 -2 4 C-2 3.34 -2 2.68 -2 2 C-7.1358421 3.87655769 -9.84442256 5.32974539 -13 10 C-13 5.69032084 -10.83274712 4.10253255 -8 1 C-5.19084526 -0.40457737 -3.11189466 -0.24895157 0 0 Z " fill="#D9D9D9" transform="translate(346,45)"/>
<path d="M0 0 C0.66 0 1.32 0 2 0 C2.33 8.25 2.66 16.5 3 25 C4.65 23.35 6.3 21.7 8 20 C10.40545638 18.79727181 11.94996953 18.89928528 14.625 18.9375 C15.85089844 18.95103516 15.85089844 18.95103516 17.1015625 18.96484375 C17.72804687 18.97644531 18.35453125 18.98804687 19 19 C18.01 19.33 17.02 19.66 16 20 C16 20.66 16 21.32 16 22 C15.39671875 22.07476562 14.7934375 22.14953125 14.171875 22.2265625 C9.4116009 22.9055851 9.4116009 22.9055851 5.51171875 25.46875 C4.29312506 27.28018236 4.29312506 27.28018236 3 30 C0.24560484 27.24560484 0.69010724 25.53396797 0.5859375 21.6796875 C0.54726562 20.42285156 0.50859375 19.16601562 0.46875 17.87109375 C0.4378125 16.55238281 0.406875 15.23367187 0.375 13.875 C0.33681971 12.53513082 0.29776794 11.19528617 0.2578125 9.85546875 C0.1632797 6.57045381 0.07772844 3.28544862 0 0 Z " fill="#CACACA" transform="translate(168,26)"/>
<path d="M0 0 C0.33 0 0.66 0 1 0 C1 13.86 1 27.72 1 42 C0.67 42 0.34 42 0 42 C-0.02505615 40.98574951 -0.0501123 39.97149902 -0.07592773 38.92651367 C-0.17009645 35.16368973 -0.27029405 31.40104631 -0.37231445 27.63842773 C-0.41562749 26.00988996 -0.45730518 24.38130784 -0.49731445 22.75268555 C-0.55510503 20.41181065 -0.61877398 18.07115824 -0.68359375 15.73046875 C-0.70030624 15.00224411 -0.71701874 14.27401947 -0.73423767 13.52372742 C-0.82467238 10.43833061 -1.01723993 7.94828022 -2 5 C-1.0625 2.3125 -1.0625 2.3125 0 0 Z " fill="#181818" transform="translate(106,40)"/>
<path d="M0 0 C0.66 0.99 1.32 1.98 2 3 C1.171875 5.70703125 1.171875 5.70703125 -0.25 8.8125 C-2.06351185 12.83177206 -3.6672288 16.79422672 -5 21 C-5.66 20.67 -6.32 20.34 -7 20 C-5.07443364 13.14381674 -2.7527517 6.56747868 0 0 Z " fill="#C1C1C1" transform="translate(106,35)"/>
<path d="M0 0 C0 4.95 0 9.9 0 15 C-0.33 15 -0.66 15 -1 15 C-1.33 10.71 -1.66 6.42 -2 2 C-2.886875 2.515625 -3.77375 3.03125 -4.6875 3.5625 C-8.20023331 5.0868937 -9.44706507 5.14947895 -13 4 C-10.56272708 2.37515139 -8.62713877 1.34310925 -5.9375 0.3125 C-5.24527344 0.04050781 -4.55304688 -0.23148438 -3.83984375 -0.51171875 C-2 -1 -2 -1 0 0 Z " fill="#B5B5B5" transform="translate(146,62)"/>
<path d="M0 0 C0.9796875 -0.01417969 1.959375 -0.02835938 2.96875 -0.04296875 C5.5 0.1875 5.5 0.1875 7.5 2.1875 C2.53926578 3.51036246 -2.41111512 3.27643197 -7.5 3.1875 C-7.5 3.8475 -7.5 4.5075 -7.5 5.1875 C-8.49 4.8575 -9.48 4.5275 -10.5 4.1875 C-7.02494361 0.5544865 -5.03152647 0.03310215 0 0 Z " fill="#B2B2B2" transform="translate(139.5,44.8125)"/>
<path d="M0 0 C0.99 0 1.98 0 3 0 C3.33 1.65 3.66 3.3 4 5 C4.70125 4.319375 5.4025 3.63875 6.125 2.9375 C9 1 9 1 12.3125 1.25 C13.6428125 1.62125 13.6428125 1.62125 15 2 C15 2.33 15 2.66 15 3 C13.7625 3.226875 12.525 3.45375 11.25 3.6875 C7.07965475 4.7005094 5.32446864 6.31959133 3 10 C1.5216774 7.04335481 1.93967217 4.25770263 2 1 C1.34 0.67 0.68 0.34 0 0 Z " fill="#A0A0A0" transform="translate(210,45)"/>
<path d="M0 0 C0.66 0.33 1.32 0.66 2 1 C1 4 1 4 -0.63671875 5.16796875 C-4.93969729 7.30716379 -8.07385397 8.4926146 -13 8 C-13 7.67 -13 7.34 -13 7 C-11.35 6.67 -9.7 6.34 -8 6 C-8.33 5.34 -8.66 4.68 -9 4 C-7.88625 3.71125 -6.7725 3.4225 -5.625 3.125 C-1.99708908 2.30758671 -1.99708908 2.30758671 0 0 Z " fill="#AFAFAF" transform="translate(144,78)"/>
<path d="M0 0 C0.33 1.32 0.66 2.64 1 4 C-2.31371 6.20914 -3.3446021 6.22481553 -7.1875 6.125 C-8.08855469 6.10695313 -8.98960937 6.08890625 -9.91796875 6.0703125 C-10.60503906 6.04710938 -11.29210937 6.02390625 -12 6 C-9 4 -9 4 -5.4375 3 C-1.96926675 2.29022994 -1.96926675 2.29022994 0 0 Z " fill="#C5C5C5" transform="translate(306,80)"/>
<path d="M0 0 C1.01126953 0.24556641 1.01126953 0.24556641 2.04296875 0.49609375 C5.51367906 1.0875358 8.79322124 1.09539046 12.3125 1.0625 C13.56675781 1.05347656 14.82101563 1.04445313 16.11328125 1.03515625 C17.06589844 1.02355469 18.01851562 1.01195313 19 1 C19 1.66 19 2.32 19 3 C16.20775927 3.08071788 13.41783434 3.14035408 10.625 3.1875 C9.8309375 3.21263672 9.036875 3.23777344 8.21875 3.26367188 C6.14413852 3.29004405 4.06899135 3.15486462 2 3 C1.34 2.01 0.68 1.02 0 0 Z " fill="#C5C5C5" transform="translate(156,82)"/>
<path d="M0 0 C1.60379341 -0.05416188 3.20811406 -0.09286638 4.8125 -0.125 C5.70582031 -0.14820313 6.59914063 -0.17140625 7.51953125 -0.1953125 C10 0 10 0 13 2 C12.34 2 11.68 2 11 2 C10.67 2.66 10.34 3.32 10 4 C6.20696275 2.99806563 3.28463659 2.18975773 0 0 Z " fill="#C0C0C0" transform="translate(294,45)"/>
<path d="M0 0 C1.79133978 -0.05391993 3.58313899 -0.09275571 5.375 -0.125 C6.37273437 -0.14820313 7.37046875 -0.17140625 8.3984375 -0.1953125 C11 0 11 0 13 2 C12.34 2 11.68 2 11 2 C10.67 2.66 10.34 3.32 10 4 C6.50470706 2.88786134 3.25530808 1.68426809 0 0 Z " fill="#B7B7B7" transform="translate(255,45)"/>
<path d="M0 0 C-3.01490557 1.00496852 -5.04181692 1.10335303 -8.1875 1.0625 C-9.53908203 1.04896484 -9.53908203 1.04896484 -10.91796875 1.03515625 C-11.60503906 1.02355469 -12.29210937 1.01195313 -13 1 C-8.55169749 -1.96553501 -4.6635137 -3.04922049 0 0 Z " fill="#C2C2C2" transform="translate(268,85)"/>
<path d="M0 0 C0 0.33 0 0.66 0 1 C-1.6396875 1.4021875 -1.6396875 1.4021875 -3.3125 1.8125 C-8.17096005 3.37708883 -9.23785646 4.85678468 -12 9 C-11.66466723 5.98200506 -11.13434402 4.19118187 -9.375 1.6875 C-6.16715428 -0.5917588 -3.84279789 -0.29559984 0 0 Z " fill="#2B2B2B" transform="translate(303,47)"/>
<path d="M0 0 C6.0546875 -0.1953125 6.0546875 -0.1953125 8 0 C8.66 0.66 9.32 1.32 10 2 C5.94568308 3.15837626 3.78187881 2.83691257 0 1 C0 0.67 0 0.34 0 0 Z " fill="#D0D0D0" transform="translate(137,45)"/>
</svg>
