<?xml version="1.0" encoding="UTF-8"?>
<svg version="1.1" xmlns="http://www.w3.org/2000/svg" width="271" height="192">
<path d="M0 0 C2.475 0.495 2.475 0.495 5 1 C4.41699758 7.58532121 2.78233885 13.43301956 0.71875 19.69921875 C0.38913773 20.71967789 0.05952545 21.74013702 -0.28007507 22.79151917 C-0.98373273 24.96759654 -1.69053819 27.14265817 -2.40023804 29.31677246 C-3.50878789 32.71443454 -4.60796433 36.11499485 -5.7043457 39.51660156 C-7.14759044 43.99348048 -8.59309858 48.46961218 -10.04150391 52.94482422 C-17.6951292 76.34092417 -17.6951292 76.34092417 -24 100.125 C-24.1961792 100.97223633 -24.3923584 101.81947266 -24.59448242 102.69238281 C-25.91390438 108.76184526 -26.55367718 114.80873901 -27 121 C-26.5875 120.08412109 -26.175 119.16824219 -25.75 118.22460938 C-24.18020015 114.74151517 -22.60605512 111.26039781 -21.03076172 107.77978516 C-20.35677145 106.28908854 -19.68387403 104.7978972 -19.01220703 103.30615234 C-7.76513939 78.33327801 4.12485996 54.07741912 21.75 32.9375 C22.18562256 32.41309326 22.62124512 31.88868652 23.07006836 31.34838867 C26.11222763 27.78892983 29.36988434 24.92354872 33 22 C33.515625 21.46375 34.03125 20.9275 34.5625 20.375 C37.7228747 17.3520329 40.27018417 16.10066425 44.625 15.5 C48 16 48 16 49.71801758 18.18115234 C53.33705229 26.13875561 49.3013962 36.4737844 46.8125 44.375 C46.17963148 46.47094457 45.5481528 48.56730923 44.91796875 50.6640625 C44.59876465 51.7149707 44.27956055 52.76587891 43.95068359 53.84863281 C38.16888115 72.09353523 38.16888115 72.09353523 36 91 C40.16870235 86.43099179 44.0312973 81.69018509 47.75 76.75 C52.76961754 70.11221628 58.25052132 64.01582833 64 58 C65.02673828 56.87464844 65.02673828 56.87464844 66.07421875 55.7265625 C68.12976301 53.88366075 69.23501066 53.31745395 71.9375 52.9375 C72.58589844 52.82277344 73.23429687 52.70804688 73.90234375 52.58984375 C77.38265281 53.27035111 78.81528959 55.31364227 81 58 C82.0390625 60.953125 82.0390625 60.953125 82.625 64.25 C82.85445313 65.47332031 83.08390625 66.69664063 83.3203125 67.95703125 C83.55010373 69.30414072 83.77652503 70.65182832 84 72 C84.37303942 74.23773911 84.7466201 76.47531869 85.12646484 78.71191406 C85.36886673 80.15618571 85.60155413 81.60213416 85.82275391 83.04980469 C86.59296735 87.76130066 87.83191965 91.72920856 90 96 C93.01435976 97.34852937 94.51030395 97.12527108 97.6875 96.3125 C100.47312918 94.73146722 100.59257691 93.8196171 102 91 C103.55495157 88.88571333 105.12846105 86.81151692 106.75 84.75 C107.64880897 83.59534114 108.54724706 82.4403935 109.4453125 81.28515625 C109.88133789 80.72586426 110.31736328 80.16657227 110.76660156 79.59033203 C113.22087128 76.42582037 115.60735838 73.21117691 118 70 C119.65 70.33 121.3 70.66 123 71 C122.54573928 76.2474945 120.87739183 79.03129546 117.625 83.125 C117.18526855 83.67905518 116.74553711 84.23311035 116.29248047 84.80395508 C101.23663912 103.52166978 101.23663912 103.52166978 93.125 104.4375 C89.43979501 104.30735336 87.02457047 103.35795709 84.29931641 100.72167969 C79.12425073 93.86437733 78.0489056 84.88317066 76.875 76.625 C76.56586316 74.51213913 76.25099119 72.4001074 75.9296875 70.2890625 C75.79804199 69.36818848 75.66639648 68.44731445 75.53076172 67.49853516 C75.00870128 65.04096084 74.22938971 63.17899608 73 61 C62.56551214 66.88612135 55.74943694 77.81014076 48.796875 87.265625 C40.89553649 97.91199749 40.89553649 97.91199749 35 100 C32.25 100 32.25 100 30 99 C26.71006021 93.98675841 27.70318604 87.05333239 28.5234375 81.37890625 C31.27095983 69.06546904 34.85563826 57.02435361 38.55810547 44.96899414 C40.67966259 37.99629283 42.57997938 31.32153585 43 24 C19.28909826 39.05728797 6.66198517 67.22323079 -5.1875 91.5625 C-5.56536652 92.33829407 -5.94323303 93.11408813 -6.33255005 93.91339111 C-10.84896678 103.21236552 -15.21405871 112.5625254 -19.32389832 122.04908752 C-24.34426301 133.5510142 -24.34426301 133.5510142 -28 137 C-30.55078125 137.83984375 -30.55078125 137.83984375 -33 138 C-35.86302783 135.13697217 -35.42711714 132.28123406 -35.4375 128.4375 C-35.42576771 120.76692671 -34.42969905 113.45329857 -32.9375 105.9375 C-32.75823975 105.02605225 -32.57897949 104.11460449 -32.39428711 103.17553711 C-27.79783802 81.58295809 -20.78113774 60.4888843 -14.09179688 39.47216797 C-12.9560252 35.90305887 -11.83022757 32.3308838 -10.70673752 28.75789261 C-9.82757125 25.96661976 -8.94249972 23.17724631 -8.05570221 20.38838959 C-7.63748004 19.0701921 -7.2212529 17.75135977 -6.80715179 16.43186188 C-6.23272834 14.60399751 -5.64926541 12.77898136 -5.06542969 10.95410156 C-4.57414581 9.40508148 -4.57414581 9.40508148 -4.07293701 7.82476807 C-2.99025146 4.9743346 -1.64841047 2.55859197 0 0 Z " fill="#F8F8F8" transform="translate(88,31)"/>
<path d="M0 0 C2.475 0.495 2.475 0.495 5 1 C4.125 8.75 4.125 8.75 3 11 C2.34 11 1.68 11 1 11 C1.66 8.36 2.32 5.72 3 3 C2.34 3 1.68 3 1 3 C-1.74874034 10.3960818 -4.29080886 17.8335069 -6.671875 25.35546875 C-6.99915588 26.38311844 -7.32643677 27.41076813 -7.66363525 28.46955872 C-8.69453633 31.70820498 -9.72232239 34.94782961 -10.75 38.1875 C-11.4542201 40.40175855 -12.15864534 42.61595187 -12.86328125 44.83007812 C-14.57789007 50.21930121 -16.289952 55.6093281 -18 61 C-18.66 61 -19.32 61 -20 61 C-17.61783996 50.33557995 -14.27252219 39.97325057 -10.95703125 29.57055664 C-9.99518861 26.54737726 -9.04424339 23.52090469 -8.09375 20.49414062 C-7.47982386 18.55968714 -6.86526316 16.6254349 -6.25 14.69140625 C-5.96866211 13.79241104 -5.68732422 12.89341583 -5.39746094 11.96717834 C-4.0042693 7.62961879 -2.59910191 3.79639152 0 0 Z " fill="#EEEEEE" transform="translate(88,31)"/>
<path d="M0 0 C0.99 0 1.98 0 3 0 C5.1875 2.5 5.1875 2.5 7 5 C7.61875 4.175 8.2375 3.35 8.875 2.5 C9.57625 1.675 10.2775 0.85 11 0 C11.66 0 12.32 0 13 0 C13 3.63 13 7.26 13 11 C8.66666667 11 4.33333333 11 0 11 C0 7.37 0 3.74 0 0 Z " fill="#F4F6F5" transform="translate(99,154)"/>
<path d="M0 0 C0.99 0.33 1.98 0.66 3 1 C3 4.96 3 8.92 3 13 C-1 11 -1 11 -4 9 C-4.66 10.32 -5.32 11.64 -6 13 C-6.99 12.67 -7.98 12.34 -9 12 C-9 8.37 -9 4.74 -9 1 C-5.16263678 1.95934081 -4.40339772 2.23609263 -2 5 C-1.34 3.35 -0.68 1.7 0 0 Z " fill="#F6F8F7" transform="translate(157,153)"/>
<path d="M0 0 C2.4375 0.875 2.4375 0.875 5.4375 2.875 C5.91250349 6.60717026 6.19883177 8.87004207 3.875 11.9375 C0.26491725 13.32599337 -2.03764323 12.20513463 -5.5625 10.875 C-6.5625 9.875 -6.5625 9.875 -6.875 7.0625 C-6.5625 3.875 -6.5625 3.875 -4.875 1.4375 C-2.5625 -0.125 -2.5625 -0.125 0 0 Z M-2.5625 3.875 C-2.5625 5.525 -2.5625 7.175 -2.5625 8.875 C-1.2425 8.875 0.0775 8.875 1.4375 8.875 C1.7675 7.885 2.0975 6.895 2.4375 5.875 C2.1075 5.215 1.7775 4.555 1.4375 3.875 C0.1175 3.875 -1.2025 3.875 -2.5625 3.875 Z " fill="#F9FAFA" transform="translate(171.5625,153.125)"/>
<path d="M0 0 C0.99 0.33 1.98 0.66 3 1 C3 2.32 3 3.64 3 5 C3.99 5 4.98 5 6 5 C6.33 3.35 6.66 1.7 7 0 C7.99 0.33 8.98 0.66 10 1 C10 4.63 10 8.26 10 12 C8.68 12 7.36 12 6 12 C6 10.68 6 9.36 6 8 C5.01 8 4.02 8 3 8 C3 9.32 3 10.64 3 12 C1.68 12 0.36 12 -1 12 C-1.02687279 10.18757948 -1.04633715 8.37504767 -1.0625 6.5625 C-1.07410156 5.55316406 -1.08570313 4.54382813 -1.09765625 3.50390625 C-1 1 -1 1 0 0 Z " fill="#F1F3F1" transform="translate(133,153)"/>
<path d="M0 0 C1.875 1.125 1.875 1.125 3 3 C2.6875 6.6875 2.6875 6.6875 2 10 C-0.6875 11.1875 -0.6875 11.1875 -4 12 C-6.9615026 10.81539896 -8.48851042 9.95904297 -10 7.125 C-10 4.06801161 -8.77346569 2.43030483 -7 0 C-4.26634878 -1.36682561 -2.89333621 -0.84683011 0 0 Z M-5 3 C-5.33 4.32 -5.66 5.64 -6 7 C-3.525 7.495 -3.525 7.495 -1 8 C-1.33 6.35 -1.66 4.7 -2 3 C-2.99 3 -3.98 3 -5 3 Z " fill="#FAFBFA" transform="translate(191,154)"/>
<path d="M0 0 C6.75 -0.125 6.75 -0.125 9 1 C8.979375 2.093125 8.95875 3.18625 8.9375 4.3125 C8.81455548 7.94384191 8.81455548 7.94384191 10 11 C6.25 12.125 6.25 12.125 4 11 C2.68 11 1.36 11 0 11 C0 7.37 0 3.74 0 0 Z M4 3 C5 5 5 5 5 5 Z " fill="#F8F9F9" transform="translate(199,154)"/>
<path d="M0 0 C0.33 0 0.66 0 1 0 C0.53597578 9.38256963 -2.13041785 17.90374516 -4.875 26.8125 C-5.77383975 29.75483099 -6.66688925 32.69885014 -7.5546875 35.64453125 C-7.7684906 36.35272003 -7.9822937 37.06090881 -8.20257568 37.79055786 C-10.09158853 44.13352801 -11.62358573 50.5252061 -13 57 C-13.66 57 -14.32 57 -15 57 C-14.35936545 53.66116346 -13.68422116 50.33016503 -13 47 C-12.81695312 46.08089844 -12.63390625 45.16179687 -12.4453125 44.21484375 C-10.68688826 35.97630057 -8.16471015 28.0609536 -5.56347656 20.05517578 C-3.41814951 13.42259713 -1.50854527 6.81000438 0 0 Z " fill="#E9E9E9" transform="translate(137,58)"/>
<path d="M0 0 C3.17218843 3.62535821 4.42902597 7.51150278 6 12 C4.68 12.33 3.36 12.66 2 13 C1.67 12.01 1.34 11.02 1 10 C-1.475 11.485 -1.475 11.485 -4 13 C-4.66 12.34 -5.32 11.68 -6 11 C-5.18993474 9.35296694 -4.3768779 7.70740494 -3.5625 6.0625 C-3.11003906 5.14597656 -2.65757813 4.22945312 -2.19140625 3.28515625 C-1 1 -1 1 0 0 Z " fill="#FBFBFB" transform="translate(122,153)"/>
<path d="M0 0 C0 0.99 0 1.98 0 3 C-0.66 3 -1.32 3 -2 3 C-2.226875 3.556875 -2.45375 4.11375 -2.6875 4.6875 C-4.37028092 7.65239972 -6.56108512 9.616515 -9 12 C-11.03793695 14.30166997 -13.02464837 16.64451198 -15 19 C-15.66 18.67 -16.32 18.34 -17 18 C-15.10981419 15.74504149 -13.21319486 13.49607317 -11.3125 11.25 C-10.78205078 10.61578125 -10.25160156 9.9815625 -9.70507812 9.328125 C-6.71074092 5.80105295 -3.75295455 2.75727273 0 0 Z " fill="#EFEFEF" transform="translate(120,54)"/>
<path d="M0 0 C0.66 0.33 1.32 0.66 2 1 C1.46890625 1.78503906 0.9378125 2.57007812 0.390625 3.37890625 C-3.27114064 8.82478032 -6.856823 14.23750883 -10 20 C-10.66 19.67 -11.32 19.34 -12 19 C-8.26601 12.44668614 -4.52858165 6.03810887 0 0 Z " fill="#EEEEEE" transform="translate(101,75)"/>
<path d="M0 0 C0.99 0.33 1.98 0.66 3 1 C3 2.32 3 3.64 3 5 C3.99 5 4.98 5 6 5 C6.33 3.68 6.66 2.36 7 1 C7 1.66 7 2.32 7 3 C7.66 3.33 8.32 3.66 9 4 C8.67 5.32 8.34 6.64 8 8 C5.69 8 3.38 8 1 8 C1 6.35 1 4.7 1 3 C0.34 3 -0.32 3 -1 3 C-0.67 2.01 -0.34 1.02 0 0 Z " fill="#F9FBFA" transform="translate(133,153)"/>
<path d="M0 0 C2.625 0.375 2.625 0.375 5 1 C4.67 2.32 4.34 3.64 4 5 C2.35 5.33 0.7 5.66 -1 6 C-1.625 4.125 -1.625 4.125 -2 2 C-1.34 1.34 -0.68 0.68 0 0 Z " fill="#F6F6F6" transform="translate(210,130)"/>
<path d="M0 0 C0.99 0 1.98 0 3 0 C3.66 1.65 4.32 3.3 5 5 C4.505 5.433125 4.01 5.86625 3.5 6.3125 C1.66781808 7.99740483 1.66781808 7.99740483 2 11 C1.34 11 0.68 11 0 11 C0 7.37 0 3.74 0 0 Z " fill="#FCFCFC" transform="translate(99,154)"/>
<path d="M0 0 C0.99 0 1.98 0 3 0 C2.34 2.31 1.68 4.62 1 7 C1.66 7.33 2.32 7.66 3 8 C2.67 8.99 2.34 9.98 2 11 C1.34 11 0.68 11 0 11 C0 7.37 0 3.74 0 0 Z " fill="#EEF1F0" transform="translate(148,154)"/>
<path d="M0 0 C0.66 0 1.32 0 2 0 C2 1.98 2 3.96 2 6 C0.35 5.67 -1.3 5.34 -3 5 C-1.625 2.5 -1.625 2.5 0 0 Z " fill="#FAFAFA" transform="translate(110,154)"/>
<path d="M0 0 C1.125 3.75 1.125 3.75 0 6 C-0.99 5.67 -1.98 5.34 -3 5 C-3 3.68 -3 2.36 -3 1 C-2.01 0.67 -1.02 0.34 0 0 Z " fill="#F0F2F0" transform="translate(193,158)"/>
</svg>
