<?xml version="1.0" encoding="UTF-8"?>
<svg xmlns="http://www.w3.org/2000/svg" xmlns:xlink="http://www.w3.org/1999/xlink" width="250px" height="120px" viewBox="0 0 250 120" version="1.1">
<g id="surface1">
<path style=" stroke:none;fill-rule:nonzero;fill:rgb(99.215686%,99.215686%,99.215686%);fill-opacity:1;" d="M 93.5 33.839844 C 96.824219 37.03125 93.355469 43.054688 92.527344 46.492188 C 92.320312 47.347656 92.125 48.207031 91.925781 49.066406 C 91.683594 50.109375 91.441406 51.152344 91.199219 52.195312 C 90.460938 55.351562 89.761719 58.507812 89.09375 61.664062 C 89.042969 61.90625 88.992188 62.144531 88.9375 62.394531 C 87.464844 68.625 87.464844 68.625 87 74.878906 C 87.839844 74.042969 88.679688 73.207031 89.519531 72.371094 C 89.96875 71.925781 90.417969 71.476562 90.867188 71.03125 C 92.191406 69.710938 93.515625 68.394531 94.792969 67.0625 C 96.929688 64.84375 99.207031 62.769531 102 60.71875 C 102.402344 60.402344 102.402344 60.402344 102.8125 60.074219 C 104.234375 58.96875 105.285156 58.222656 108 57.839844 C 109.167969 57.808594 110.304688 57.808594 111.476562 57.839844 C 112.601562 57.867188 112.601562 57.867188 114 57.601562 C 114.328125 57.679688 114.660156 57.757812 115 57.839844 C 114.996094 58.058594 114.988281 58.28125 114.984375 58.503906 C 114.976562 58.789062 114.972656 59.074219 114.96875 59.371094 C 114.964844 59.652344 114.957031 59.9375 114.953125 60.230469 C 114.894531 60.941406 114.894531 60.941406 115.5 61.441406 C 117.160156 61.351562 118.308594 61.019531 119.464844 60.445312 C 120.691406 59.429688 120.339844 58.148438 120.320312 57.007812 C 120.324219 56.714844 120.328125 56.421875 120.335938 56.117188 C 120.347656 55.175781 120.347656 54.234375 120.34375 53.296875 C 120.347656 52.363281 120.355469 51.429688 120.371094 50.496094 C 120.375 49.914062 120.378906 49.335938 120.375 48.753906 C 120.410156 43.484375 120.410156 43.484375 123 41.761719 C 124 41.535156 124 41.535156 125 41.519531 C 126.5 42 126.5 42 127 42.71875 C 127.660156 46.753906 126.40625 50.628906 125.066406 54.601562 C 125 54.804688 124.929688 55.011719 124.859375 55.222656 C 124.726562 55.609375 124.59375 55.996094 124.457031 56.382812 C 124.148438 57.277344 123.921875 58.132812 124 59.039062 C 124.390625 58.808594 124.785156 58.574219 125.1875 58.335938 C 125.957031 57.878906 126.394531 57.625 127.5 57.359375 C 129 57.316406 129 57.316406 130.5 57.359375 C 131.8125 57.988281 131.792969 58.4375 132.0625 59.308594 C 132.144531 59.574219 132.230469 59.835938 132.316406 60.105469 C 132.378906 60.308594 132.4375 60.511719 132.5 60.71875 C 133.980469 60.574219 134.691406 60.417969 136 60 C 136.289062 59.527344 136.289062 59.527344 136.34375 59.011719 C 136.421875 58.550781 136.421875 58.550781 136.5 58.078125 C 137.160156 58 137.820312 57.921875 138.5 57.839844 C 138.996094 58.234375 139.488281 58.632812 140 59.039062 C 140.289062 58.851562 140.578125 58.664062 140.875 58.46875 C 141.933594 57.875 142.464844 57.582031 144 57.359375 C 145.675781 57.4375 146.296875 57.503906 147.5 58.078125 C 147.597656 58.863281 147.597656 58.863281 147.5625 59.789062 C 147.554688 60.097656 147.542969 60.40625 147.535156 60.722656 C 147.523438 60.957031 147.511719 61.195312 147.5 61.441406 C 147.828125 61.441406 148.160156 61.441406 148.5 61.441406 C 149.113281 61.050781 149.113281 61.050781 149.6875 60.554688 C 152.265625 58.496094 152.265625 58.496094 154 58.078125 C 157.632812 57.941406 157.632812 57.941406 159 58.453125 C 159.664062 59.230469 159.601562 59.890625 159.5 60.71875 C 160.832031 60.628906 161.386719 60.542969 162.296875 60.054688 C 162.539062 59.882812 162.78125 59.710938 163.03125 59.535156 C 164.96875 58.175781 164.96875 58.175781 166.96875 57.992188 C 168.027344 57.972656 168.960938 57.980469 170 58.078125 C 171.03125 58.574219 171.03125 58.574219 171.5 59.28125 C 171.34375 60.195312 171.34375 60.195312 171 60.960938 C 172.304688 60.753906 172.304688 60.753906 173.5 60.238281 C 173.785156 59.671875 173.875 59.136719 173.929688 58.550781 C 174 58.078125 174 58.078125 174.5 57.839844 C 175.332031 57.832031 176.167969 57.828125 177 57.839844 C 177 58.316406 177 58.789062 177 59.28125 C 177.484375 59.316406 177.96875 59.347656 178.46875 59.386719 C 180 59.519531 180 59.519531 180.5 59.761719 C 180.453125 60.285156 180.375 60.8125 180.28125 61.335938 C 180.230469 61.621094 180.179688 61.910156 180.125 62.207031 C 180.085938 62.429688 180.042969 62.652344 180 62.878906 C 182.554688 61.988281 183.777344 61.152344 185 59.761719 C 185.328125 59.761719 185.660156 59.761719 186 59.761719 C 185.332031 61.3125 184.457031 62.421875 182.0625 63.570312 C 180.660156 63.925781 179.5625 63.890625 178 63.839844 C 176.925781 63.015625 176.949219 62.453125 177.1875 61.5 C 177.242188 61.261719 177.296875 61.027344 177.355469 60.785156 C 177.402344 60.605469 177.449219 60.425781 177.5 60.238281 C 175.601562 60.574219 175.601562 60.574219 174.0625 61.183594 C 172.6875 61.824219 171.273438 62.0625 169.5 62.398438 C 168.996094 62.542969 168.488281 62.6875 167.96875 62.835938 C 166.5 63.121094 166.5 63.121094 164.875 62.953125 C 163.5 62.640625 163.5 62.640625 162.5 62.160156 C 162.1875 61.648438 162.1875 61.648438 162 61.199219 C 161.671875 61.359375 161.339844 61.515625 161 61.679688 C 159.832031 61.921875 158.667969 62.160156 157.5 62.398438 C 157.171875 62.558594 156.839844 62.71875 156.5 62.878906 C 154.671875 63.132812 153.816406 63.1875 152.0625 62.804688 C 151.710938 62.671875 151.359375 62.539062 151 62.398438 C 151 62.242188 151 62.082031 151 61.921875 C 150.648438 62.078125 150.296875 62.238281 149.9375 62.398438 C 148.257812 62.960938 147.5 63.046875 145.5 62.878906 C 144.464844 62.367188 144.035156 62.046875 143.835938 61.335938 C 143.847656 61.132812 143.863281 60.929688 143.875 60.71875 C 143.882812 60.515625 143.890625 60.3125 143.898438 60.105469 C 143.992188 59.5625 144.1875 59.082031 144.5 58.558594 C 143.1875 59.121094 142.484375 59.691406 141.71875 60.449219 C 141.410156 60.753906 141.410156 60.753906 141.09375 61.0625 C 140.480469 61.679688 140.480469 61.679688 139.988281 62.34375 C 139.5 62.878906 139.5 62.878906 138.46875 63.089844 C 138.148438 63.101562 137.828125 63.109375 137.5 63.121094 C 136.476562 62.628906 136.648438 61.605469 136.5 60.960938 C 136.171875 61.117188 135.839844 61.277344 135.5 61.441406 C 133.492188 62.082031 132.375 61.996094 130 61.921875 C 129.105469 61.171875 128.828125 60.558594 128.6875 59.699219 C 128.632812 59.378906 128.632812 59.378906 128.574219 59.050781 C 128.550781 58.890625 128.523438 58.726562 128.5 58.558594 C 127.296875 59.078125 126.714844 59.507812 126.175781 60.234375 C 126.035156 60.414062 125.890625 60.597656 125.746094 60.78125 C 125.457031 61.160156 125.171875 61.542969 124.890625 61.921875 C 124.488281 62.433594 124.101562 62.898438 123.5 63.359375 C 122.167969 63.621094 122.167969 63.621094 121 63.601562 C 120.015625 63.128906 120.167969 62.316406 120 61.679688 C 119.578125 61.839844 119.15625 61.996094 118.71875 62.160156 C 116.730469 62.714844 115.761719 62.796875 113.5 62.640625 C 112.03125 62.160156 112.03125 62.160156 111 61.679688 C 110.761719 61.875 110.527344 62.066406 110.28125 62.265625 C 108.703125 63.023438 107.753906 63.066406 105.609375 63.179688 C 104.207031 63.105469 103.546875 62.839844 102.5 62.398438 C 98.925781 65.875 95.703125 69.40625 92.589844 72.980469 C 92.28125 73.332031 91.96875 73.6875 91.660156 74.039062 C 91.453125 74.28125 91.453125 74.28125 91.242188 74.523438 C 90.097656 75.824219 88.984375 76.964844 86.5 77.761719 C 85.15625 77.671875 85.15625 77.671875 84 77.519531 C 81.632812 74.109375 83.792969 69.375 84.46875 65.863281 C 84.519531 65.585938 84.574219 65.308594 84.625 65.019531 C 86.3125 55.972656 88.433594 46.949219 90.5 37.921875 C 86.273438 43.886719 86.273438 43.886719 82.398438 49.910156 C 82.242188 50.160156 82.089844 50.414062 81.933594 50.671875 C 81.328125 51.664062 80.730469 52.660156 80.140625 53.652344 C 75.882812 60.777344 75.882812 60.777344 73 62.160156 C 71.53125 62.21875 71.53125 62.21875 70 62.160156 C 69.019531 61.457031 68.851562 61.230469 68.679688 60.429688 C 68.636719 60.230469 68.589844 60.027344 68.542969 59.816406 C 68.5 59.597656 68.453125 59.378906 68.40625 59.152344 C 68.359375 58.921875 68.308594 58.691406 68.253906 58.457031 C 68.09375 57.722656 67.9375 56.984375 67.78125 56.25 C 66.941406 52.246094 66.941406 52.246094 65.703125 48.265625 C 65.609375 48.007812 65.609375 48.007812 65.511719 47.746094 C 65.3125 46.964844 65.3125 46.964844 64.5 46.320312 C 62.21875 50.609375 60.453125 54.914062 58.90625 59.28125 C 58.585938 60.175781 58.265625 61.074219 57.941406 61.96875 C 57.742188 62.519531 57.546875 63.070312 57.355469 63.621094 C 56.132812 67 56.132812 67 55 67.921875 C 54.042969 68.128906 54.042969 68.128906 53 68.160156 C 51.5 67.679688 51.5 67.679688 51.285156 67.191406 C 51.269531 66.992188 51.257812 66.789062 51.242188 66.585938 C 51.21875 66.238281 51.21875 66.238281 51.191406 65.882812 C 51.179688 65.640625 51.167969 65.394531 51.15625 65.144531 C 51.140625 64.921875 51.121094 64.699219 51.105469 64.472656 C 51.046875 63.621094 51.019531 62.769531 51 61.921875 C 50.996094 61.726562 50.992188 61.535156 50.984375 61.339844 C 50.890625 56.648438 51.183594 51.964844 51.464844 47.273438 C 51.523438 46.242188 51.585938 45.210938 51.644531 44.179688 C 51.761719 42.171875 51.878906 40.167969 52 38.160156 C 52.828125 38.066406 53.664062 37.988281 54.5 37.921875 C 55.40625 38.355469 55.066406 39.019531 55.066406 39.605469 C 55.066406 40.078125 55.066406 40.078125 55.070312 40.558594 C 55.066406 40.910156 55.066406 41.257812 55.0625 41.609375 C 55.0625 41.789062 55.0625 41.964844 55.0625 42.148438 C 55.050781 45.515625 54.894531 48.882812 54.714844 52.246094 C 54.519531 55.871094 54.433594 59.492188 54.5 63.121094 C 54.589844 62.84375 54.679688 62.570312 54.773438 62.285156 C 60.140625 46.011719 60.140625 46.011719 64 44.160156 C 65.1875 44.070312 65.1875 44.070312 66.5 44.160156 C 70.28125 46.722656 70.113281 50.46875 70.78125 53.488281 C 70.9375 54.191406 71.09375 54.894531 71.253906 55.597656 C 71.355469 56.03125 71.449219 56.464844 71.542969 56.898438 C 71.792969 57.992188 72.167969 58.964844 73 60 C 76.023438 56.132812 78.324219 52.164062 80.695312 48.195312 C 82.628906 44.953125 84.621094 41.730469 86.898438 38.542969 C 87.078125 38.285156 87.257812 38.027344 87.445312 37.765625 C 90.300781 33.839844 90.300781 33.839844 93.5 33.839844 Z M 124.5 43.441406 C 124.058594 45.175781 123.9375 46.882812 123.96875 48.628906 C 123.972656 48.871094 123.972656 49.113281 123.976562 49.359375 C 123.980469 49.945312 123.988281 50.535156 124 51.121094 C 124.164062 51.121094 124.328125 51.121094 124.5 51.121094 C 124.671875 50.246094 124.835938 49.371094 125 48.496094 C 125.070312 48.128906 125.070312 48.128906 125.144531 47.753906 C 125.414062 46.308594 125.550781 44.890625 125.5 43.441406 C 125.171875 43.441406 124.839844 43.441406 124.5 43.441406 Z M 123.5 51.121094 C 123.5 51.753906 123.5 52.386719 123.5 53.039062 C 123.664062 53.039062 123.828125 53.039062 124 53.039062 C 124 52.40625 124 51.773438 124 51.121094 C 123.835938 51.121094 123.671875 51.121094 123.5 51.121094 Z M 107.6875 59.144531 C 106.097656 59.96875 105.917969 60.585938 105.5 61.679688 C 106.160156 61.757812 106.820312 61.839844 107.5 61.921875 C 110.042969 60.675781 110.042969 60.675781 111 59.039062 C 109.539062 58.726562 109.117188 58.769531 107.6875 59.144531 Z M 156 59.039062 C 156.164062 59.4375 156.328125 59.832031 156.5 60.238281 C 156.664062 59.921875 156.828125 59.605469 157 59.28125 C 156.671875 59.199219 156.339844 59.121094 156 59.039062 Z M 168 59.039062 C 168 59.4375 168 59.832031 168 60.238281 C 168.328125 60.082031 168.660156 59.921875 169 59.761719 C 168.671875 59.523438 168.339844 59.285156 168 59.039062 Z M 153.5 60.238281 C 152.992188 61.222656 152.992188 61.222656 153.5 62.160156 C 154.160156 62.082031 154.820312 62 155.5 61.921875 C 155.667969 61.171875 155.667969 61.171875 154.5 60.675781 C 154.171875 60.53125 153.839844 60.386719 153.5 60.238281 Z M 165 60.238281 C 165 60.792969 165 61.347656 165 61.921875 C 165.496094 62 165.988281 62.078125 166.5 62.160156 C 166.828125 62.082031 167.160156 62 167.5 61.921875 C 167.195312 61.210938 166.875 60.867188 166 60.238281 C 165.671875 60.238281 165.339844 60.238281 165 60.238281 Z M 165 60.238281 "/>
</g>
</svg>
