<?xml version="1.0" encoding="UTF-8"?>
<svg xmlns="http://www.w3.org/2000/svg" xmlns:xlink="http://www.w3.org/1999/xlink" width="260px" height="69px" viewBox="0 0 258 69" version="1.1">
<g id="surface1">
<path style=" stroke:none;fill-rule:nonzero;fill:rgb(97.254902%,97.254902%,97.254902%);fill-opacity:1;" d="M 107.488281 15.683594 C 107.796875 23.132812 107.796875 23.132812 108.113281 30.738281 C 108.730469 30.117188 109.34375 29.492188 109.984375 28.851562 C 112.683594 27.945312 115.261719 27.886719 118.089844 28.226562 C 119.917969 29.355469 120.878906 30.074219 121.828125 31.988281 C 121.925781 33.449219 121.984375 34.90625 122.027344 36.367188 C 122.039062 36.796875 122.054688 37.226562 122.066406 37.671875 C 122.105469 39.046875 122.144531 40.417969 122.179688 41.789062 C 122.207031 42.722656 122.234375 43.652344 122.261719 44.582031 C 122.328125 46.867188 122.390625 49.152344 122.453125 51.4375 C 125.351562 51.605469 125.351562 51.605469 128.066406 50.808594 C 128.066406 44.1875 128.066406 37.5625 128.066406 30.738281 C 127.035156 30.527344 126.007812 30.320312 124.945312 30.109375 C 124.945312 29.695312 124.945312 29.28125 124.945312 28.851562 C 127.828125 28.648438 130.710938 28.4375 133.675781 28.226562 C 133.984375 29.46875 133.984375 29.46875 134.300781 30.738281 C 135.011719 30.117188 135.011719 30.117188 135.742188 29.484375 C 138.546875 27.605469 141.664062 27.644531 144.898438 28.226562 C 147.03125 29.808594 147.808594 30.738281 148.640625 33.246094 C 148.738281 34.585938 148.796875 35.929688 148.839844 37.273438 C 148.863281 38.058594 148.890625 38.84375 148.917969 39.65625 C 148.941406 40.476562 148.96875 41.300781 148.992188 42.144531 C 149.019531 42.984375 149.046875 43.820312 149.074219 44.65625 C 149.140625 46.707031 149.203125 48.757812 149.265625 50.808594 C 150.089844 51.222656 150.914062 51.636719 151.761719 52.0625 C 151.761719 52.476562 151.761719 52.890625 151.761719 53.316406 C 147.847656 53.316406 143.9375 53.316406 139.910156 53.316406 C 139.910156 52.90625 139.910156 52.492188 139.910156 52.0625 C 140.734375 51.859375 141.558594 51.648438 142.40625 51.4375 C 142.421875 48.691406 142.433594 45.945312 142.441406 43.195312 C 142.445312 42.261719 142.449219 41.328125 142.453125 40.394531 C 142.460938 39.050781 142.464844 37.710938 142.46875 36.367188 C 142.472656 35.152344 142.472656 35.152344 142.476562 33.917969 C 142.542969 32.042969 142.542969 32.042969 141.78125 30.738281 C 139.605469 30.539062 138.441406 30.445312 136.640625 31.753906 C 133.933594 35.449219 134.125 39.363281 134.183594 43.75 C 134.183594 44.355469 134.183594 44.953125 134.183594 45.574219 C 134.089844 48.601562 134.089844 48.601562 134.921875 51.4375 C 135.851562 51.746094 135.851562 51.746094 136.792969 52.0625 C 136.792969 52.476562 136.792969 52.890625 136.792969 53.316406 C 129.179688 53.316406 121.566406 53.316406 113.722656 53.316406 C 113.722656 52.90625 113.722656 52.492188 113.722656 52.0625 C 114.542969 51.648438 115.367188 51.234375 116.21875 50.808594 C 116.246094 48.253906 116.269531 45.695312 116.285156 43.140625 C 116.292969 42.273438 116.300781 41.398438 116.3125 40.53125 C 116.324219 39.28125 116.332031 38.03125 116.339844 36.78125 C 116.34375 36.03125 116.351562 35.277344 116.359375 34.503906 C 116.363281 32.503906 116.363281 32.503906 114.972656 30.738281 C 112.425781 30.835938 111.046875 30.910156 109.222656 32.773438 C 107.316406 35.898438 107.851562 39.675781 107.953125 43.203125 C 107.96875 43.933594 107.976562 44.664062 107.992188 45.417969 C 108.015625 47.214844 108.0625 49.011719 108.113281 50.808594 C 108.933594 51.222656 109.757812 51.636719 110.605469 52.0625 C 110.605469 52.476562 110.605469 52.890625 110.605469 53.316406 C 107.75 53.496094 104.890625 53.644531 102.03125 53.789062 C 101.21875 53.839844 100.410156 53.890625 99.570312 53.941406 C 98.402344 53.996094 98.402344 53.996094 97.210938 54.054688 C 96.132812 54.113281 96.132812 54.113281 95.03125 54.171875 C 92.742188 53.894531 92.066406 53.210938 90.652344 51.4375 C 90.140625 51.851562 89.621094 52.265625 89.09375 52.691406 C 86.625 54.339844 84.84375 54.273438 81.921875 53.945312 C 80.109375 53.152344 79.140625 52.53125 77.984375 50.929688 C 77.398438 49.039062 77.28125 47.765625 77.558594 45.789062 C 79.796875 42.5 81.855469 41.210938 85.546875 39.910156 C 86.195312 39.664062 86.195312 39.664062 86.855469 39.417969 C 87.90625 39.019531 88.96875 38.640625 90.027344 38.261719 C 90.027344 35.78125 90.027344 33.296875 90.027344 30.738281 C 88.605469 30.019531 87.789062 30.042969 86.207031 30.070312 C 85.410156 30.082031 84.613281 30.097656 83.792969 30.109375 C 84.203125 30.730469 84.617188 31.351562 85.039062 31.988281 C 85.195312 33.597656 85.195312 33.597656 85.039062 35.125 C 83.792969 36.382812 83.792969 36.382812 81.921875 36.539062 C 80.050781 36.382812 80.050781 36.382812 78.804688 35.125 C 78.492188 33.679688 78.492188 33.679688 78.804688 31.988281 C 82.558594 28.378906 84.820312 27.972656 89.890625 28.007812 C 92.824219 28.328125 93.789062 29.089844 95.640625 31.363281 C 96.417969 33.535156 96.332031 35.667969 96.324219 37.960938 C 96.324219 38.746094 96.320312 39.53125 96.316406 40.335938 C 96.3125 41.152344 96.304688 41.96875 96.304688 42.8125 C 96.300781 43.636719 96.296875 44.460938 96.292969 45.316406 C 96.285156 47.355469 96.277344 49.394531 96.261719 51.4375 C 97.132812 51.261719 97.132812 51.261719 98.015625 51.082031 C 100.003906 50.808594 100.003906 50.808594 101.875 51.4375 C 101.667969 40.671875 101.464844 29.90625 101.25 18.816406 C 100.429688 18.609375 99.605469 18.40625 98.757812 18.191406 C 98.757812 17.570312 98.757812 16.949219 98.757812 16.308594 C 99.976562 16.207031 101.199219 16.101562 102.421875 15.996094 C 103.441406 15.910156 103.441406 15.910156 104.484375 15.816406 C 105.480469 15.742188 106.484375 15.683594 107.488281 15.683594 Z M 87.261719 41.59375 C 86.757812 41.863281 86.257812 42.132812 85.746094 42.410156 C 84.25 43.265625 84.25 43.265625 83.167969 45.164062 C 82.902344 46.921875 83.027344 48.378906 83.167969 50.183594 C 84.925781 51.636719 84.925781 51.636719 86.910156 51.320312 C 88.90625 50.777344 89.492188 50.601562 90.652344 48.925781 C 90.878906 46.773438 90.878906 46.773438 90.765625 44.417969 C 90.75 43.621094 90.734375 42.820312 90.714844 42 C 90.695312 41.390625 90.671875 40.777344 90.652344 40.148438 C 89.425781 40.148438 88.308594 41.023438 87.261719 41.59375 Z M 87.261719 41.59375 "/>
<path style=" stroke:none;fill-rule:nonzero;fill:rgb(97.647059%,97.647059%,97.647059%);fill-opacity:1;" d="M 37.648438 18.816406 C 40.941406 19.027344 44.234375 19.230469 47.625 19.445312 C 50.136719 24.832031 52.296875 30.304688 54.367188 35.871094 C 54.683594 36.71875 55 37.5625 55.320312 38.40625 C 56.082031 40.449219 56.84375 42.492188 57.601562 44.535156 C 60.21875 38.066406 62.691406 31.554688 65.09375 25.003906 C 65.328125 24.375 65.5625 23.746094 65.800781 23.09375 C 66.007812 22.53125 66.214844 21.960938 66.433594 21.378906 C 66.957031 20.074219 66.957031 20.074219 67.582031 19.445312 C 69.046875 19.398438 70.515625 19.394531 71.984375 19.40625 C 72.789062 19.414062 73.59375 19.417969 74.421875 19.421875 C 75.046875 19.429688 75.667969 19.4375 76.308594 19.445312 C 76.101562 20.066406 75.898438 20.6875 75.6875 21.328125 C 74.863281 21.328125 74.039062 21.328125 73.191406 21.328125 C 73.191406 31.058594 73.191406 40.785156 73.191406 50.808594 C 74.222656 51.222656 75.25 51.636719 76.308594 52.0625 C 76.308594 52.476562 76.308594 52.890625 76.308594 53.316406 C 71.988281 53.316406 67.667969 53.316406 63.214844 53.316406 C 63.214844 52.90625 63.214844 52.492188 63.214844 52.0625 C 65.066406 51.753906 65.066406 51.753906 66.957031 51.4375 C 66.976562 48.730469 66.984375 46.027344 66.996094 43.320312 C 67.003906 42.179688 67.003906 42.179688 67.011719 41.015625 C 67.011719 40.269531 67.015625 39.523438 67.015625 38.753906 C 67.019531 38.074219 67.023438 37.398438 67.027344 36.695312 C 66.941406 34.058594 66.65625 31.472656 66.335938 28.851562 C 66.070312 29.570312 65.808594 30.285156 65.542969 31.023438 C 64.574219 33.671875 63.605469 36.320312 62.640625 38.972656 C 62.21875 40.117188 61.800781 41.265625 61.378906 42.410156 C 60.777344 44.058594 60.175781 45.707031 59.574219 47.351562 C 59.386719 47.867188 59.199219 48.382812 59.003906 48.914062 C 57.671875 52.546875 57.671875 52.546875 56.976562 53.945312 C 55.109375 53.316406 55.109375 53.316406 54.328125 51.910156 C 53.925781 50.917969 53.925781 50.917969 53.511719 49.90625 C 53.359375 49.539062 53.210938 49.171875 53.054688 48.792969 C 50.289062 41.988281 47.738281 35.09375 45.132812 28.226562 C 45.132812 35.679688 45.132812 43.132812 45.132812 50.808594 C 46.367188 51.429688 47.601562 52.050781 48.871094 52.691406 C 48.871094 52.898438 48.871094 53.105469 48.871094 53.316406 C 43.933594 53.628906 43.933594 53.628906 38.898438 53.945312 C 38.589844 53.011719 38.589844 53.011719 38.273438 52.0625 C 38.773438 51.882812 39.277344 51.703125 39.792969 51.515625 C 41.476562 50.976562 41.476562 50.976562 42.015625 49.554688 C 42.070312 48.664062 42.085938 47.769531 42.085938 46.878906 C 42.085938 46.324219 42.085938 45.773438 42.085938 45.203125 C 42.082031 44.609375 42.078125 44.011719 42.074219 43.394531 C 42.074219 42.476562 42.074219 42.476562 42.074219 41.542969 C 42.070312 39.585938 42.0625 37.632812 42.050781 35.675781 C 42.050781 34.351562 42.046875 33.027344 42.046875 31.703125 C 42.039062 28.457031 42.027344 25.203125 42.015625 21.953125 C 40.574219 21.332031 39.132812 20.714844 37.648438 20.074219 C 37.648438 19.660156 37.648438 19.246094 37.648438 18.816406 Z M 66.957031 25.714844 C 67.582031 27.601562 67.582031 27.601562 67.582031 27.601562 Z M 66.957031 25.714844 "/>
<path style=" stroke:none;fill-rule:nonzero;fill:rgb(96.078432%,96.078432%,96.078432%);fill-opacity:1;" d="M 168.753906 28.644531 C 171.703125 30.121094 172.875 32.242188 174.207031 35.125 C 175.535156 39.4375 175.359375 44.339844 173.574219 48.476562 C 172.132812 51.003906 170.085938 52.972656 167.347656 53.945312 C 163.929688 54.738281 161.230469 54.59375 157.996094 53.316406 C 155.34375 51.601562 153.617188 49.621094 152.660156 46.5625 C 151.734375 41.863281 151.792969 36.820312 154.0625 32.542969 C 157.546875 27.496094 163.054688 26.953125 168.753906 28.644531 Z M 160.722656 30.460938 C 157.875 33.402344 157.824219 37.140625 157.839844 41.085938 C 157.835938 41.867188 157.832031 42.652344 157.832031 43.457031 C 158.058594 46.695312 158.453125 49.300781 160.644531 51.75 C 162.316406 52.832031 162.316406 52.832031 164.269531 52.769531 C 166.746094 51.8125 167.386719 50.636719 168.597656 48.300781 C 169.972656 42.859375 169.988281 36.414062 167.347656 31.363281 C 166.246094 30.019531 166.246094 30.019531 164.855469 29.484375 C 162.398438 29.269531 162.398438 29.269531 160.722656 30.460938 Z M 160.722656 30.460938 "/>
<path style=" stroke:none;fill-rule:nonzero;fill:rgb(97.254902%,97.254902%,97.254902%);fill-opacity:1;" d="M 191.664062 28.226562 C 194.75 29.695312 197.136719 31.804688 198.355469 35.085938 C 199.5625 39.609375 199.328125 44.125 197.785156 48.535156 C 195.707031 51.566406 193.691406 53.265625 190.1875 54.21875 C 186.265625 54.910156 183.539062 54.132812 180.246094 51.945312 C 176.382812 47.878906 176.363281 44.128906 176.480469 38.648438 C 176.859375 34.75 178.007812 32.476562 180.832031 29.832031 C 184.226562 27.589844 187.691406 27.875 191.664062 28.226562 Z M 183.558594 31.988281 C 182.003906 34.929688 182.105469 37.796875 182.117188 41.046875 C 182.109375 41.570312 182.097656 42.09375 182.089844 42.628906 C 182.085938 46.417969 182.90625 48.820312 184.964844 52.023438 C 186.144531 52.867188 186.144531 52.867188 188.199219 52.769531 C 190.515625 52.242188 190.515625 52.242188 191.902344 50.378906 C 194.207031 45.519531 194.039062 39.054688 192.785156 33.914062 C 192 31.847656 190.960938 30.738281 189.171875 29.484375 C 186.386719 28.867188 185.261719 29.808594 183.558594 31.988281 Z M 183.558594 31.988281 "/>
<path style=" stroke:none;fill-rule:nonzero;fill:rgb(98.431373%,98.431373%,98.431373%);fill-opacity:1;" d="M 206.632812 27.601562 C 207.25 27.804688 207.867188 28.015625 208.503906 28.226562 C 208.933594 29.519531 208.933594 29.519531 209.128906 30.738281 C 209.539062 30.320312 209.949219 29.90625 210.375 29.484375 C 212.929688 27.765625 214.195312 27.882812 217.234375 28.226562 C 218.636719 29.140625 218.972656 29.8125 219.648438 31.324219 C 219.726562 32.617188 219.726562 32.617188 219.023438 34.027344 C 217.855469 35.125 217.855469 35.125 216.261719 35.363281 C 214.738281 35.125 214.738281 35.125 213.492188 33.875 C 213.726562 31.914062 213.726562 31.914062 214.117188 30.109375 C 211.617188 31.261719 210.519531 32.429688 209.492188 34.996094 C 208.75 37.800781 208.9375 40.675781 209.011719 43.554688 C 209.015625 44.191406 209.027344 44.832031 209.035156 45.488281 C 209.058594 47.054688 209.085938 48.617188 209.128906 50.183594 C 210.566406 50.804688 212.007812 51.421875 213.492188 52.0625 C 213.492188 52.476562 213.492188 52.890625 213.492188 53.316406 C 208.964844 53.316406 204.4375 53.316406 199.773438 53.316406 C 199.773438 52.90625 199.773438 52.492188 199.773438 52.0625 C 201.316406 51.753906 201.316406 51.753906 202.890625 51.4375 C 202.890625 44.605469 202.890625 37.773438 202.890625 30.738281 C 201.863281 30.527344 200.832031 30.320312 199.773438 30.109375 C 199.773438 29.695312 199.773438 29.28125 199.773438 28.851562 C 200.359375 28.796875 200.359375 28.796875 200.957031 28.738281 C 201.71875 28.660156 201.71875 28.660156 202.5 28.582031 C 203.007812 28.53125 203.515625 28.480469 204.035156 28.425781 C 205.414062 28.292969 205.414062 28.292969 206.632812 27.601562 Z M 206.632812 27.601562 "/>
<path style=" stroke:none;fill-rule:nonzero;fill:rgb(98.039216%,98.039216%,98.039216%);fill-opacity:1;" d="M 160.492188 30.109375 C 160.089844 30.640625 159.691406 31.171875 159.28125 31.71875 C 156.542969 35.871094 156.941406 41.496094 157.878906 46.222656 C 158.414062 48.4375 159.113281 50.21875 160.492188 52.0625 C 161.914062 52.78125 162.726562 52.757812 164.308594 52.730469 C 165.507812 52.710938 165.507812 52.710938 166.726562 52.691406 C 166.929688 53.105469 167.136719 53.519531 167.347656 53.945312 C 163.167969 54.824219 159.890625 54.546875 156.242188 52.179688 C 152.972656 48.894531 152.289062 45.804688 152.191406 41.28125 C 152.214844 36.964844 153.019531 33.230469 156.125 30.109375 C 158 29.441406 158.527344 29.449219 160.492188 30.109375 Z M 160.492188 30.109375 "/>
<path style=" stroke:none;fill-rule:nonzero;fill:rgb(93.333334%,94.509804%,93.725491%);fill-opacity:1;" d="M 66.335938 21.953125 C 67.582031 22.582031 67.582031 22.582031 68.203125 23.210938 C 68.460938 28.464844 68.460938 28.464844 66.957031 30.738281 C 66.75 30.117188 66.546875 29.492188 66.335938 28.851562 C 63.65625 36.101562 60.984375 43.34375 58.226562 50.808594 C 57.816406 50.601562 57.40625 50.394531 56.976562 50.183594 C 57.1875 49.558594 57.390625 48.941406 57.601562 48.300781 C 57.039062 46.816406 56.449219 45.414062 55.773438 43.988281 C 54.558594 41.421875 53.59375 39.289062 53.859375 36.382812 C 55 38.101562 55.691406 39.605469 56.433594 41.519531 C 56.65625 42.082031 56.875 42.648438 57.101562 43.230469 C 57.265625 43.660156 57.433594 44.09375 57.601562 44.535156 C 60.621094 37.050781 63.492188 29.511719 66.335938 21.953125 Z M 66.957031 25.714844 C 67.582031 27.601562 67.582031 27.601562 67.582031 27.601562 Z M 66.957031 25.714844 "/>
<path style=" stroke:none;fill-rule:nonzero;fill:rgb(95.294118%,95.294118%,95.294118%);fill-opacity:1;" d="M 106.238281 15.683594 C 106.652344 15.683594 107.0625 15.683594 107.488281 15.683594 C 107.695312 20.648438 107.898438 25.617188 108.113281 30.738281 C 108.730469 30.117188 109.34375 29.492188 109.984375 28.851562 C 111.859375 28.222656 113.128906 28.164062 115.085938 28.191406 C 115.648438 28.191406 116.210938 28.199219 116.789062 28.207031 C 117.21875 28.214844 117.644531 28.21875 118.089844 28.226562 C 118.292969 28.640625 118.5 29.054688 118.710938 29.484375 C 117.683594 29.484375 116.652344 29.484375 115.59375 29.484375 C 115.800781 29.894531 116.007812 30.308594 116.21875 30.738281 C 115.5625 30.671875 114.902344 30.609375 114.230469 30.542969 C 111.773438 30.515625 111.773438 30.515625 110.058594 32.226562 C 108.746094 33.738281 108.746094 33.738281 108.113281 35.125 C 106.863281 34.5 106.863281 34.5 106.238281 33.875 C 106.035156 31.371094 105.976562 28.863281 105.894531 26.355469 C 105.851562 25.097656 105.804688 23.835938 105.753906 22.578125 C 105.726562 21.789062 105.699219 21.003906 105.667969 20.191406 C 105.644531 19.460938 105.617188 18.734375 105.59375 17.980469 C 105.617188 16.308594 105.617188 16.308594 106.238281 15.683594 Z M 106.238281 15.683594 "/>
<path style=" stroke:none;fill-rule:nonzero;fill:rgb(92.941177%,92.941177%,92.941177%);fill-opacity:1;" d="M 163.414062 28.148438 C 164.148438 28.160156 164.886719 28.171875 165.640625 28.183594 C 166.488281 28.207031 166.488281 28.207031 167.347656 28.226562 C 167.554688 29.261719 167.761719 30.296875 167.972656 31.363281 C 167.535156 31.144531 167.097656 30.925781 166.648438 30.695312 C 164.460938 29.980469 163.292969 30.023438 161.113281 30.738281 C 159.011719 33.433594 158.535156 36.019531 158.558594 39.371094 C 158.558594 39.925781 158.5625 40.488281 158.5625 41.0625 C 158.570312 41.640625 158.574219 42.214844 158.578125 42.8125 C 158.582031 43.398438 158.585938 43.984375 158.589844 44.589844 C 158.597656 46.035156 158.605469 47.480469 158.621094 48.925781 C 156.457031 46.75 156.773438 43.8125 156.628906 40.851562 C 156.691406 37.023438 157.140625 32.972656 159.867188 30.109375 C 159.042969 29.902344 158.21875 29.695312 157.375 29.484375 C 159.636719 27.964844 160.730469 28.09375 163.414062 28.148438 Z M 163.414062 28.148438 "/>
<path style=" stroke:none;fill-rule:nonzero;fill:rgb(92.156863%,92.156863%,91.764706%);fill-opacity:1;" d="M 192.914062 43.910156 C 193.121094 43.910156 193.324219 43.910156 193.535156 43.910156 C 193.644531 47.070312 193.574219 49.140625 192.289062 52.0625 C 192.496094 52.476562 192.699219 52.890625 192.914062 53.316406 C 189.125 54.464844 186.007812 55.007812 182.3125 53.316406 C 180.925781 52.363281 179.800781 51.355469 178.570312 50.183594 C 178.777344 49.769531 178.984375 49.355469 179.195312 48.925781 C 180.128906 49.726562 181.0625 50.519531 181.996094 51.316406 C 182.941406 52.117188 182.941406 52.117188 184.183594 52.691406 C 184.390625 52.070312 184.59375 51.449219 184.808594 50.808594 C 185.21875 51.222656 185.632812 51.636719 186.054688 52.0625 C 188.238281 52.160156 188.238281 52.160156 190.417969 51.4375 C 192.070312 49.058594 192.574219 46.761719 192.914062 43.910156 Z M 192.914062 43.910156 "/>
<path style=" stroke:none;fill-rule:nonzero;fill:rgb(90.588236%,91.764706%,90.980393%);fill-opacity:1;" d="M 43.882812 23.835938 C 44.089844 24.457031 44.296875 25.078125 44.507812 25.714844 C 44.921875 25.714844 45.332031 25.714844 45.753906 25.714844 C 45.65625 26.03125 45.554688 26.34375 45.457031 26.667969 C 45.007812 28.816406 44.984375 30.953125 44.933594 33.140625 C 44.921875 33.605469 44.90625 34.078125 44.894531 34.5625 C 44.855469 36.054688 44.816406 37.550781 44.78125 39.046875 C 44.753906 40.0625 44.726562 41.078125 44.699219 42.097656 C 44.632812 44.582031 44.570312 47.066406 44.507812 49.554688 C 44.304688 49.554688 44.097656 49.554688 43.882812 49.554688 C 43.859375 48.910156 43.859375 48.910156 43.835938 48.253906 C 43.765625 46.28125 43.6875 44.3125 43.613281 42.339844 C 43.589844 41.667969 43.5625 40.988281 43.539062 40.292969 C 43.421875 37.402344 43.304688 34.542969 42.914062 31.671875 C 42.582031 29.046875 42.808594 27.058594 43.261719 24.464844 C 43.46875 24.257812 43.671875 24.050781 43.882812 23.835938 Z M 43.882812 23.835938 "/>
<path style=" stroke:none;fill-rule:nonzero;fill:rgb(90.980393%,91.37255%,91.37255%);fill-opacity:1;" d="M 133.054688 28.851562 C 133.667969 29.785156 133.667969 29.785156 134.300781 30.738281 C 134.914062 30.527344 135.535156 30.320312 136.171875 30.109375 C 135.875 31.789062 135.523438 33.3125 134.921875 34.910156 C 134.1875 37.394531 134.023438 39.683594 133.910156 42.261719 C 133.886719 42.722656 133.859375 43.1875 133.835938 43.660156 C 133.78125 44.789062 133.726562 45.917969 133.675781 47.046875 C 133.472656 47.046875 133.265625 47.046875 133.054688 47.046875 C 133.054688 41.042969 133.054688 35.039062 133.054688 28.851562 Z M 133.054688 28.851562 "/>
<path style=" stroke:none;fill-rule:nonzero;fill:rgb(89.803922%,90.980393%,90.588236%);fill-opacity:1;" d="M 66.335938 21.953125 C 67.582031 22.582031 67.582031 22.582031 68.203125 23.210938 C 68.460938 28.464844 68.460938 28.464844 66.957031 30.738281 C 66.75 30.117188 66.546875 29.492188 66.335938 28.851562 C 65.714844 29.167969 65.714844 29.167969 65.085938 29.484375 C 64.386719 27.40625 64.527344 26.3125 65.359375 24.308594 C 65.539062 23.863281 65.714844 23.421875 65.902344 22.964844 C 66.046875 22.628906 66.1875 22.296875 66.335938 21.953125 Z M 66.957031 25.714844 C 67.582031 27.601562 67.582031 27.601562 67.582031 27.601562 Z M 66.957031 25.714844 "/>
<path style=" stroke:none;fill-rule:nonzero;fill:rgb(85.09804%,85.09804%,85.09804%);fill-opacity:1;" d="M 106.238281 15.683594 C 106.652344 15.683594 107.0625 15.683594 107.488281 15.683594 C 107.488281 19.820312 107.488281 23.960938 107.488281 28.226562 C 105.613281 26.339844 105.925781 24.140625 105.808594 21.601562 C 105.785156 21.105469 105.753906 20.605469 105.722656 20.09375 C 105.660156 18.832031 105.632812 17.570312 105.617188 16.308594 C 105.824219 16.101562 106.027344 15.894531 106.238281 15.683594 Z M 106.238281 15.683594 "/>
<path style=" stroke:none;fill-rule:nonzero;fill:rgb(91.37255%,91.764706%,90.980393%);fill-opacity:1;" d="M 106.238281 26.972656 C 107.488281 28.226562 107.488281 28.226562 107.5625 29.875 C 107.539062 30.367188 107.511719 30.859375 107.488281 31.363281 C 107.898438 31.363281 108.308594 31.363281 108.734375 31.363281 C 108.527344 32.605469 108.324219 33.847656 108.113281 35.125 C 106.863281 34.5 106.863281 34.5 106.238281 33.875 C 106.195312 32.710938 106.1875 31.546875 106.199219 30.382812 C 106.207031 29.75 106.214844 29.113281 106.21875 28.460938 C 106.226562 27.96875 106.234375 27.480469 106.238281 26.972656 Z M 106.238281 26.972656 "/>
<path style=" stroke:none;fill-rule:nonzero;fill:rgb(93.725491%,93.725491%,93.725491%);fill-opacity:1;" d="M 98.757812 16.308594 C 101.019531 16.308594 103.285156 16.308594 105.617188 16.308594 C 104.382812 16.929688 104.382812 16.929688 103.121094 17.5625 C 102.917969 17.976562 102.710938 18.390625 102.496094 18.816406 C 100.648438 18.507812 100.648438 18.507812 98.757812 18.191406 C 98.757812 17.570312 98.757812 16.949219 98.757812 16.308594 Z M 98.757812 16.308594 "/>
<path style=" stroke:none;fill-rule:nonzero;fill:rgb(92.156863%,92.941177%,92.941177%);fill-opacity:1;" d="M 210.375 29.484375 C 210.785156 29.484375 211.195312 29.484375 211.621094 29.484375 C 211.230469 31.320312 210.632812 32.847656 209.75 34.5 C 209.132812 34.292969 208.515625 34.085938 207.878906 33.875 C 207.878906 33.457031 207.878906 33.042969 207.878906 32.617188 C 208.292969 32.617188 208.699219 32.617188 209.128906 32.617188 C 209.261719 32.015625 209.261719 32.015625 209.398438 31.402344 C 209.75 30.109375 209.75 30.109375 210.375 29.484375 Z M 210.375 29.484375 "/>
<path style=" stroke:none;fill-rule:nonzero;fill:rgb(94.509804%,94.509804%,94.509804%);fill-opacity:1;" d="M 66.957031 49.554688 C 67.367188 50.175781 67.777344 50.796875 68.203125 51.4375 C 67.996094 52.054688 67.792969 52.679688 67.582031 53.316406 C 66.140625 53.316406 64.699219 53.316406 63.214844 53.316406 C 63.214844 52.90625 63.214844 52.492188 63.214844 52.0625 C 64.449219 51.859375 65.6875 51.648438 66.957031 51.4375 C 66.957031 50.816406 66.957031 50.195312 66.957031 49.554688 Z M 66.957031 49.554688 "/>
<path style=" stroke:none;fill-rule:nonzero;fill:rgb(96.078432%,96.078432%,96.078432%);fill-opacity:1;" d="M 133.054688 47.046875 C 133.257812 47.046875 133.464844 47.046875 133.675781 47.046875 C 133.84375 47.757812 134.011719 48.46875 134.183594 49.203125 C 134.429688 49.941406 134.671875 50.675781 134.921875 51.4375 C 135.539062 51.640625 136.160156 51.851562 136.792969 52.0625 C 136.792969 52.476562 136.792969 52.890625 136.792969 53.316406 C 133.753906 52.769531 133.753906 52.769531 133.054688 52.0625 C 132.964844 50.390625 133.027344 48.722656 133.054688 47.046875 Z M 133.054688 47.046875 "/>
<path style=" stroke:none;fill-rule:nonzero;fill:rgb(95.686275%,96.862745%,96.862745%);fill-opacity:1;" d="M 62.59375 31.988281 C 63.210938 32.40625 63.824219 32.820312 64.464844 33.246094 C 63.609375 35.226562 63.222656 35.75 61.34375 37.011719 C 61.890625 33.402344 61.890625 33.402344 62.59375 31.988281 Z M 62.59375 31.988281 "/>
<path style=" stroke:none;fill-rule:nonzero;fill:rgb(95.686275%,95.686275%,95.686275%);fill-opacity:1;" d="M 209.128906 50.808594 C 210.566406 51.222656 212.007812 51.636719 213.492188 52.0625 C 213.492188 52.476562 213.492188 52.890625 213.492188 53.316406 C 212.050781 53.316406 210.609375 53.316406 209.128906 53.316406 C 209.128906 52.492188 209.128906 51.664062 209.128906 50.808594 Z M 209.128906 50.808594 "/>
<path style=" stroke:none;fill-rule:nonzero;fill:rgb(93.725491%,93.725491%,93.725491%);fill-opacity:1;" d="M 153.007812 45.789062 C 154.605469 47.203125 154.605469 47.203125 156.125 48.925781 C 156.007812 50.378906 156.007812 50.378906 155.503906 51.4375 C 153.007812 47.910156 153.007812 47.910156 153.007812 45.789062 Z M 153.007812 45.789062 "/>
</g>
</svg>
