<?xml version="1.0" encoding="UTF-8"?>
<svg version="1.1" xmlns="http://www.w3.org/2000/svg" width="304" height="86">
<path d="M0 0 C3.2955098 5.77981719 4.88943414 12.001063 6.6875 18.375 C7.00783203 19.49261719 7.32816406 20.61023438 7.65820312 21.76171875 C8.44406162 24.50635887 9.22447974 27.25242433 10 30 C12.68813224 24.18912731 14.43891407 18.29319375 16.125 12.125 C16.64548127 10.23095598 17.16876423 8.33767885 17.6953125 6.4453125 C18.0358667 5.20031982 18.0358667 5.20031982 18.38330078 3.93017578 C19 2 19 2 20 1 C22.01964199 0.92755947 24.04167124 0.91622812 26.0625 0.9375 C27.71958984 0.95103516 27.71958984 0.95103516 29.41015625 0.96484375 C30.26480469 0.97644531 31.11945312 0.98804687 32 1 C32 2.32 32 3.64 32 5 C30.68 5 29.36 5 28 5 C28.33 16.22 28.66 27.44 29 39 C32.85938975 40.34513424 32.85938975 40.34513424 36 39 C37.31610546 36.1527586 37.31610546 36.1527586 38.375 32.62109375 C38.58560059 31.97560074 38.79620117 31.33010773 39.01318359 30.66505432 C39.68682589 28.5926773 40.34382538 26.51546649 41 24.4375 C41.65834702 22.38981875 42.32007141 20.34325178 42.98217773 18.29678345 C43.407603 16.98098251 43.83161562 15.66472393 44.25415039 14.34799194 C45.70550148 9.84131412 47.27519093 5.4084758 49 1 C50.98 1 52.96 1 55 1 C56.57192837 6.07038112 58.13836117 11.1424146 59.69970703 16.21606445 C60.231724 17.94211706 60.76524444 19.66770699 61.30029297 21.39282227 C62.06873198 23.87135885 62.83176337 26.35150453 63.59375 28.83203125 C63.83436157 29.60400345 64.07497314 30.37597565 64.32287598 31.17134094 C65.25334781 34.21556414 66 36.79743983 66 40 C68.64 39.67 71.28 39.34 74 39 C74.33 27.78 74.66 16.56 75 5 C73.35 4.67 71.7 4.34 70 4 C70.33 3.01 70.66 2.02 71 1 C75.95 1 80.9 1 86 1 C85.67 2.32 85.34 3.64 85 5 C84.01 5 83.02 5 82 5 C82 9.62 82 14.24 82 19 C86.62 19 91.24 19 96 19 C96 14.38 96 9.76 96 5 C94.68 4.67 93.36 4.34 92 4 C92 3.01 92 2.02 92 1 C97.28 1 102.56 1 108 1 C108 1.99 108 2.98 108 4 C106.68 4.66 105.36 5.32 104 6 C104 16.89 104 27.78 104 39 C105.32 39.66 106.64 40.32 108 41 C108 41.99 108 42.98 108 44 C102.72 44 97.44 44 92 44 C92 42.68 92 41.36 92 40 C93.32 40 94.64 40 96 40 C96 34.39 96 28.78 96 23 C91.38 23 86.76 23 82 23 C82.495 30.92 82.495 30.92 83 39 C84.485 39.495 84.485 39.495 86 40 C86 41.32 86 42.64 86 44 C75.77 44 65.54 44 55 44 C55 42.68 55 41.36 55 40 C55.99 39.34 56.98 38.68 58 38 C57.505 34.04 57.505 34.04 57 30 C52.71 30 48.42 30 44 30 C43.67 32.97 43.34 35.94 43 39 C44.32 39.66 45.64 40.32 47 41 C46.67 41.99 46.34 42.98 46 44 C36.76 44 27.52 44 18 44 C18 42.68 18 41.36 18 40 C18.99 40 19.98 40 21 40 C20.67 32.08 20.34 24.16 20 16 C19.46890625 17.93746094 18.9378125 19.87492187 18.390625 21.87109375 C17.86223522 23.74131548 17.33372483 25.61150552 16.80175781 27.48071289 C16.43491026 28.78172314 16.07419172 30.08447772 15.71972656 31.38891602 C15.20947816 33.26243982 14.6753762 35.12941594 14.140625 36.99609375 C13.82641602 38.12200928 13.51220703 39.2479248 13.18847656 40.40795898 C12 43 12 43 9.86621094 43.87524414 C9.25036133 43.91641357 8.63451172 43.95758301 8 44 C5.06951649 37.71523998 3.20596194 31.22187375 1.3125 24.5625 C0.219375 20.746875 -0.87375 16.93125 -2 13 C-2 21.58 -2 30.16 -2 39 C-1.01 39.33 -0.02 39.66 1 40 C1 41.32 1 42.64 1 44 C-2.96 44 -6.92 44 -11 44 C-11 42.68 -11 41.36 -11 40 C-9.515 39.505 -9.515 39.505 -8 39 C-7.67 29.76 -7.34 20.52 -7 11 C-7.66 11 -8.32 11 -9 11 C-9 9.68 -9 8.36 -9 7 C-9.66 6.67 -10.32 6.34 -11 6 C-11 5.34 -11 4.68 -11 4 C-10.34 4 -9.68 4 -9 4 C-8.67 3.01 -8.34 2.02 -8 1 C-5.29120665 -0.35439668 -2.99066732 -0.06501451 0 0 Z M50 10 C49.32815382 12.10251861 48.66269032 14.20707763 48 16.3125 C47.62875 17.48425781 47.2575 18.65601563 46.875 19.86328125 C45.86565228 22.93886676 45.86565228 22.93886676 46 26 C48.97 26 51.94 26 55 26 C53.68 20.72 52.36 15.44 51 10 C50.67 10 50.34 10 50 10 Z " fill="#EBECEC" transform="translate(27,16)"/>
<path d="M0 0 C5.08453421 3.35117027 7.1660551 7.02736217 8.75 12.8125 C8.96143714 15.48704254 9.08272188 18.01821215 9.0625 20.6875 C9.06121094 21.39132813 9.05992187 22.09515625 9.05859375 22.8203125 C8.96007811 28.14015727 8.1135847 32.0853306 5.75 36.8125 C6.44867188 36.52375 7.14734375 36.235 7.8671875 35.9375 C8.77726562 35.56625 9.68734375 35.195 10.625 34.8125 C11.52992188 34.44125 12.43484375 34.07 13.3671875 33.6875 C15.75 32.8125 15.75 32.8125 17.75 32.8125 C17.42 23.2425 17.09 13.6725 16.75 3.8125 C15.43 3.4825 14.11 3.1525 12.75 2.8125 C12.75 1.8225 12.75 0.8325 12.75 -0.1875 C15.97899426 -0.2750127 19.20768116 -0.32806146 22.4375 -0.375 C23.80551758 -0.41270508 23.80551758 -0.41270508 25.20117188 -0.45117188 C31.40031181 -0.51879886 34.84954607 0.21209303 39.5625 4.4375 C41.38943895 8.09137789 41.29364959 11.8022017 40.75 15.8125 C39.73046875 18.09375 39.73046875 18.09375 38.75 19.8125 C39.65492188 20.05033203 39.65492188 20.05033203 40.578125 20.29296875 C44.42421966 21.41578025 47.23439194 22.37234678 50.3125 25 C52.2191177 28.73033899 52.58160692 31.70436182 51.75 35.8125 C49.57435788 39.38676919 47.57900801 41.23190273 43.75 42.8125 C41.69709778 43.02609253 41.69709778 43.02609253 39.49145508 42.97607422 C38.65991409 42.96301239 37.82837311 42.94995056 36.97163391 42.93649292 C36.07994003 42.91362213 35.18824615 42.89075134 34.26953125 42.8671875 C32.36393974 42.84188046 30.45834038 42.81715962 28.55273438 42.79296875 C25.56184138 42.74350012 22.57136198 42.68769882 19.58081055 42.62060547 C16.68535926 42.55973941 13.7904231 42.52450468 10.89453125 42.4921875 C10.01295853 42.46526825 9.1313858 42.438349 8.22309875 42.41061401 C2.55961057 42.36544585 -1.29069018 43.36101978 -6.24726868 46.14407349 C-8.25 46.8125 -8.25 46.8125 -10.38615417 46.04171753 C-12.67073538 44.53502248 -14.37196758 42.80435256 -16.25 40.8125 C-17.11625 40.02875 -17.9825 39.245 -18.875 38.4375 C-23.56981181 33.24849747 -24.16229386 26.60485349 -24.25 19.8125 C-23.60059889 12.21553784 -22.11543633 6.20939859 -16.1875 1 C-11.04600443 -2.15123922 -5.48396699 -2.00375717 0 0 Z M-13.6875 6.0625 C-16.46498683 10.95087681 -16.46172731 15.58981184 -16.5 21.125 C-16.520625 21.85912109 -16.54125 22.59324219 -16.5625 23.34960938 C-16.59961337 28.57795606 -15.75453313 32.19549851 -13.25 36.8125 C-9.73175489 39.15799674 -8.39224306 39.39241403 -4.25 38.8125 C-0.82192833 36.07004266 0.97073441 34.10200287 1.75 29.8125 C1.89640279 27.02803161 1.98074488 24.28477111 2 21.5 C2.020625 20.76587891 2.04125 20.03175781 2.0625 19.27539062 C2.09967409 14.03849125 1.18031715 10.46667531 -1.25 5.8125 C-3.24114614 3.40581253 -3.24114614 3.40581253 -7.125 3.375 C-10.53315378 3.45541016 -11.04313956 3.62155191 -13.6875 6.0625 Z M23.75 3.8125 C23.75 9.0925 23.75 14.3725 23.75 19.8125 C30.23587017 20.52670206 30.23587017 20.52670206 32.6875 18.3125 C34.20346205 14.74553046 34.30539679 11.62987513 33.75 7.8125 C32.88575439 5.21380685 32.88575439 5.21380685 30.75 3.8125 C28.44 3.8125 26.13 3.8125 23.75 3.8125 Z M23.75 24.8125 C24.08 26.1325 24.41 27.4525 24.75 28.8125 C25.74 28.1525 26.73 27.4925 27.75 26.8125 C27.75 26.1525 27.75 25.4925 27.75 24.8125 C26.43 24.8125 25.11 24.8125 23.75 24.8125 Z " fill="#EDEEEE" transform="translate(237.25,17.1875)"/>
<path d="M0 0 C5.00566288 -0.29445076 7.99160747 -0.11763863 12 3 C14.15212195 4.92948865 14.91063023 6.24314974 15.25 9.1171875 C15.36152169 13.36895212 15.13944941 16.24957075 13 20 C13.60328125 20.15855469 14.2065625 20.31710938 14.828125 20.48046875 C18.67421966 21.60328025 21.48439194 22.55984678 24.5625 25.1875 C26.4691177 28.91783899 26.83160692 31.89186182 26 36 C23.85259759 39.52787538 21.88253314 41.62067902 18 43 C15.19541585 42.98310491 12.5322837 42.87078478 9.75 42.625 C8.63238281 42.53992187 8.63238281 42.53992187 7.4921875 42.453125 C5.66064892 42.31223742 3.83018648 42.15748116 2 42 C2 41.34 2 40.68 2 40 C1.360625 39.87625 0.72125 39.7525 0.0625 39.625 C-0.618125 39.41875 -1.29875 39.2125 -2 39 C-3.42073811 36.15852379 -3.09424675 33.72659252 -3.0625 30.5625 C-3.05347656 29.40878906 -3.04445313 28.25507812 -3.03515625 27.06640625 C-3.02355469 26.05449219 -3.01195312 25.04257812 -3 24 C-3 23.01 -3 22.02 -3 21 C-3 15 -3 9 -3 3 C0.465 2.505 0.465 2.505 4 2 C2.68 1.34 1.36 0.68 0 0 Z M-2 4 C-2 9.28 -2 14.56 -2 20 C4.48587017 20.71420206 4.48587017 20.71420206 6.9375 18.5 C8.45346205 14.93303046 8.55539679 11.81737513 8 8 C7.13575439 5.40130685 7.13575439 5.40130685 5 4 C2.69 4 0.38 4 -2 4 Z M-2 25 C-1.67 26.32 -1.34 27.64 -1 29 C-0.01 28.34 0.98 27.68 2 27 C2 26.34 2 25.68 2 25 C0.68 25 -0.64 25 -2 25 Z " fill="#EAE8EA" transform="translate(263,17)"/>
<path d="M0 0 C3.63 0 7.26 0 11 0 C12.93880859 3.54095584 14.87609028 7.08273262 16.8125 10.625 C17.35970703 11.62402344 17.90691406 12.62304688 18.47070312 13.65234375 C19.00244141 14.62558594 19.53417969 15.59882812 20.08203125 16.6015625 C20.56905518 17.49182129 21.0560791 18.38208008 21.55786133 19.29931641 C23.09173142 22.17178483 24.54371484 25.08742968 26 28 C26.33 20.08 26.66 12.16 27 4 C25.68 3.67 24.36 3.34 23 3 C23 2.01 23 1.02 23 0 C27.29 0 31.58 0 36 0 C35.67 1.32 35.34 2.64 35 4 C34.01 4 33.02 4 32 4 C32 16.54 32 29.08 32 42 C29.525 42.495 29.525 42.495 27 43 C20.91230872 33.23914479 15.51602674 23.09029282 10 13 C10 21.25 10 29.5 10 38 C11.32 38.66 12.64 39.32 14 40 C13.67 40.99 13.34 41.98 13 43 C8.71 43 4.42 43 0 43 C0 41.68 0 40.36 0 39 C1.98 38.505 1.98 38.505 4 38 C4 27.11 4 16.22 4 5 C2.68 4.34 1.36 3.68 0 3 C0 2.01 0 1.02 0 0 Z " fill="#F1F2F2" transform="translate(137,17)"/>
<path d="M0 0 C4.01458917 2.99348714 5.88157279 7.50060709 6.796875 12.33984375 C7.46176144 21.70275274 7.7573998 30.4215231 1.44140625 37.95703125 C-2.14114618 41.35709441 -5.35021999 42.33984375 -10.203125 42.33984375 C-15.14605496 41.52311178 -19.00599624 40.19314837 -22.140625 36.15234375 C-26.56025543 28.8675736 -27.40957395 20.19300621 -25.703125 11.9140625 C-23.9355498 5.93845318 -21.3856042 1.18233171 -15.828125 -2.03515625 C-9.86230564 -3.45558943 -5.32819026 -2.90159198 0 0 Z M-15.640625 4.65234375 C-18.56751054 9.68658687 -18.41898514 13.99792899 -18.453125 19.65234375 C-18.47375 20.49474609 -18.494375 21.33714844 -18.515625 22.20507812 C-18.54769373 27.33206626 -18.12614061 30.93483191 -15.203125 35.33984375 C-11.71188483 37.6673372 -10.31090249 37.84283691 -6.203125 37.33984375 C-2.94824835 35.07951274 -1.44369414 32.51109162 -0.51953125 28.65625 C0.64026299 20.16541067 0.66648406 12.07906187 -3.203125 4.33984375 C-5.19427114 1.93315628 -5.19427114 1.93315628 -9.078125 1.90234375 C-12.52519666 1.97741609 -12.9934665 2.14093697 -15.640625 4.65234375 Z " fill="#EDEEEE" transform="translate(202.203125,18.66015625)"/>
<path d="M0 0 C3.2955098 5.77981719 4.88943414 12.001063 6.6875 18.375 C7.00783203 19.49261719 7.32816406 20.61023438 7.65820312 21.76171875 C8.44406162 24.50635887 9.22447974 27.25242433 10 30 C11.90768718 25.71972707 13.50831922 21.61076874 14.6875 17.0625 C14.93886719 16.10472656 15.19023438 15.14695312 15.44921875 14.16015625 C15.63097656 13.44730469 15.81273438 12.73445313 16 12 C16.33 12.99 16.66 13.98 17 15 C17.66 15 18.32 15 19 15 C19.12375 14.0925 19.2475 13.185 19.375 12.25 C19.92109677 9.41029677 20.57263803 7.47409409 22 5 C22.33 5 22.66 5 23 5 C23.04952706 9.34161825 23.08577954 13.68308575 23.10986328 18.02490234 C23.11990591 19.50116847 23.13354265 20.97741479 23.15087891 22.45361328 C23.17520421 24.57850034 23.1865004 26.70312385 23.1953125 28.828125 C23.21102295 30.7447998 23.21102295 30.7447998 23.22705078 32.70019531 C23 36 23 36 21 40 C20.67 32.08 20.34 24.16 20 16 C19.46890625 17.93746094 18.9378125 19.87492187 18.390625 21.87109375 C17.86223522 23.74131548 17.33372483 25.61150552 16.80175781 27.48071289 C16.43491026 28.78172314 16.07419172 30.08447772 15.71972656 31.38891602 C15.20947816 33.26243982 14.6753762 35.12941594 14.140625 36.99609375 C13.82641602 38.12200928 13.51220703 39.2479248 13.18847656 40.40795898 C12 43 12 43 9.86621094 43.87524414 C9.25036133 43.91641357 8.63451172 43.95758301 8 44 C5.06951649 37.71523998 3.20596194 31.22187375 1.3125 24.5625 C0.219375 20.746875 -0.87375 16.93125 -2 13 C-2 21.58 -2 30.16 -2 39 C-1.01 39.33 -0.02 39.66 1 40 C1 41.32 1 42.64 1 44 C-2.96 44 -6.92 44 -11 44 C-11 42.68 -11 41.36 -11 40 C-9.515 39.505 -9.515 39.505 -8 39 C-7.67 29.76 -7.34 20.52 -7 11 C-7.66 11 -8.32 11 -9 11 C-9 9.68 -9 8.36 -9 7 C-9.66 6.67 -10.32 6.34 -11 6 C-11 5.34 -11 4.68 -11 4 C-10.34 4 -9.68 4 -9 4 C-8.67 3.01 -8.34 2.02 -8 1 C-5.29120665 -0.35439668 -2.99066732 -0.06501451 0 0 Z " fill="#EAEAEA" transform="translate(27,16)"/>
<path d="M0 0 C0.33 0.66 0.66 1.32 1 2 C-2.3 2 -5.6 2 -9 2 C-12.18301721 8.36603442 -13.34351876 13.4210556 -13.3125 20.4375 C-13.32861328 21.16259766 -13.34472656 21.88769531 -13.36132812 22.63476562 C-13.36595674 27.7864167 -12.64214694 31.52779457 -10 36 C-7.55621053 37.25550804 -7.55621053 37.25550804 -4.8125 37.4375 C-3.46091797 37.62119141 -3.46091797 37.62119141 -2.08203125 37.80859375 C-1.39496094 37.87175781 -0.70789063 37.93492188 0 38 C-0.66 39.32 -1.32 40.64 -2 42 C-7.470346 42.33491914 -11.23529392 41.78690356 -16 39 C-21.18618542 32.55231002 -22.30785455 24.04753194 -21.8125 15.92578125 C-20.78381169 9.19338368 -18.83961761 4.83961761 -14 0 C-9.08704522 -1.05965691 -4.9125262 -1.08075576 0 0 Z " fill="#F0F1F1" transform="translate(235,18)"/>
<path d="M0 0 C1.98 0 3.96 0 6 0 C7.57192837 5.07038112 9.13836117 10.1424146 10.69970703 15.21606445 C11.231724 16.94211706 11.76524444 18.66770699 12.30029297 20.39282227 C13.06873198 22.87135885 13.83176337 25.35150453 14.59375 27.83203125 C14.95466736 28.98998955 14.95466736 28.98998955 15.32287598 30.17134094 C16.25334781 33.21556414 17 35.79743983 17 39 C17.99 39 18.98 39 20 39 C20 39.99 20 40.98 20 42 C15.38 42 10.76 42 6 42 C6 41.01 6 40.02 6 39 C6.99 38.34 7.98 37.68 9 37 C8.67 34.03 8.34 31.06 8 28 C4.7 28 1.4 28 -2 28 C-2.33 27.34 -2.66 26.68 -3 26 C-0.03 25.67 2.94 25.34 6 25 C4.83445193 18.9490696 3.54656904 12.96533774 2 7 C1.01 7.33 0.02 7.66 -1 8 C-0.67 5.36 -0.34 2.72 0 0 Z " fill="#F3F5F4" transform="translate(76,17)"/>
<path d="M0 0 C2.0622048 -0.054348 4.12482816 -0.09294961 6.1875 -0.125 C7.33605469 -0.14820312 8.48460937 -0.17140625 9.66796875 -0.1953125 C12.91740372 -0.00484152 15.08660521 0.60639873 18 2 C18 2.33 18 2.66 18 3 C15.36 3 12.72 3 10 3 C10.0721875 4.26457031 10.144375 5.52914063 10.21875 6.83203125 C10.312544 8.49218501 10.40629158 10.1523414 10.5 11.8125 C10.54769531 12.64587891 10.59539062 13.47925781 10.64453125 14.33789062 C10.68964844 15.14033203 10.73476563 15.94277344 10.78125 16.76953125 C10.8440918 17.87711792 10.8440918 17.87711792 10.90820312 19.00708008 C11.03206153 21.69605916 10.99569983 24.37507078 10.96484375 27.06640625 C10.95582031 28.22011719 10.94679688 29.37382813 10.9375 30.5625 C10.92589844 31.71878906 10.91429687 32.87507813 10.90234375 34.06640625 C10.7936209 36.9349151 10.7936209 36.9349151 12 39 C12.99 39.33 13.98 39.66 15 40 C15 40.99 15 41.98 15 43 C10.05 43 5.1 43 0 43 C0 42.01 0 41.02 0 40 C1.32 39.34 2.64 38.68 4 38 C4 26.78 4 15.56 4 4 C2.68 3.67 1.36 3.34 0 3 C0 2.01 0 1.02 0 0 Z " fill="#F5F2F5" transform="translate(250,17)"/>
<path d="M0 0 C0.88751953 0.10441406 0.88751953 0.10441406 1.79296875 0.2109375 C1.46296875 0.8709375 1.13296875 1.5309375 0.79296875 2.2109375 C-0.19703125 2.2109375 -1.18703125 2.2109375 -2.20703125 2.2109375 C-2.89323156 3.53432382 -3.55489586 4.87043698 -4.20703125 6.2109375 C-4.55378906 6.88898437 -4.90054688 7.56703125 -5.2578125 8.265625 C-6.59490119 12.41445163 -6.53620548 16.31647292 -6.51953125 20.6484375 C-6.53564453 21.48181641 -6.55175781 22.31519531 -6.56835938 23.17382812 C-6.57247242 28.37683473 -5.78710689 31.58858563 -3.20703125 36.2109375 C-3.20703125 37.5309375 -3.20703125 38.8509375 -3.20703125 40.2109375 C-7.67638575 38.80628323 -10.26881553 36.86385434 -13.20703125 33.2109375 C-16.41414893 24.20046401 -16.30313553 14.91723202 -12.20703125 6.2109375 C-9.24815534 0.58327155 -6.09010892 -0.41726684 0 0 Z " fill="#F4F6F5" transform="translate(191.20703125,17.7890625)"/>
<path d="M0 0 C4.29 0 8.58 0 13 0 C11.515 1.485 11.515 1.485 10 3 C9.73843739 5.72906362 9.65078869 8.2246099 9.70703125 10.94921875 C9.71127609 11.72183548 9.71552094 12.49445221 9.71989441 13.29048157 C9.73667817 15.75650992 9.77432853 18.22171896 9.8125 20.6875 C9.82754729 22.36001423 9.84123562 24.03254128 9.85351562 25.70507812 C9.88658054 29.80370078 9.93835972 33.90171151 10 38 C10.99 38.33 11.98 38.66 13 39 C13 39.66 13 40.32 13 41 C8.71 41 4.42 41 0 41 C0 40.34 0 39.68 0 39 C1.485 38.505 1.485 38.505 3 38 C3.33 26.12 3.66 14.24 4 2 C2.68 1.34 1.36 0.68 0 0 Z " fill="#FBFDFD" transform="translate(99,18)"/>
<path d="M0 0 C3.37625536 0.78368555 4.94714214 1.34411506 7.6875 3.5625 C9.48943349 7.33017911 9.89765313 10.33615394 9.0625 14.4375 C7.25 17.4375 7.25 17.4375 5.0625 19.4375 C4.0725 19.4375 3.0825 19.4375 2.0625 19.4375 C2.0625 18.7775 2.0625 18.1175 2.0625 17.4375 C1.46953125 17.37046875 0.8765625 17.3034375 0.265625 17.234375 C-2.81586316 16.11979418 -3.5502058 14.48247697 -5.1875 11.6875 C-5.70828125 10.82640625 -6.2290625 9.9653125 -6.765625 9.078125 C-8.03071319 6.22745961 -8.41894808 4.5145812 -7.9375 1.4375 C-4.48470437 -0.86436375 -3.89784776 -0.744401 0 0 Z " fill="#C5449A" transform="translate(279.9375,38.5625)"/>
<path d="M0 0 C4.29 0 8.58 0 13 0 C12.67 1.32 12.34 2.64 12 4 C11.01 4 10.02 4 9 4 C9 16.54 9 29.08 9 42 C5.625 37.5 5.625 37.5 6 33 C5.01 32.67 4.02 32.34 3 32 C3.33 22.76 3.66 13.52 4 4 C2.68 3.67 1.36 3.34 0 3 C0 2.01 0 1.02 0 0 Z " fill="#DDE1E1" transform="translate(160,17)"/>
<path d="M0 0 C0.99 0.33 1.98 0.66 3 1 C2.67 1.33 2.34 1.66 2 2 C1.98317483 4.22035526 2.03753887 6.4413099 2.12109375 8.66015625 C2.14470474 9.32462265 2.16831573 9.98908905 2.19264221 10.6736908 C2.26943685 12.80350279 2.35339213 14.93296546 2.4375 17.0625 C2.49070494 18.50323791 2.54344543 19.94399305 2.59570312 21.38476562 C2.72507286 24.92339313 2.86086741 28.46174141 3 32 C3.99 32.33 4.98 32.66 6 33 C6 34.32 6 35.64 6 37 C2.04 37 -1.92 37 -6 37 C-6 35.68 -6 34.36 -6 33 C-3.525 32.505 -3.525 32.505 -1 32 C-1.00523682 31.06615479 -1.01047363 30.13230957 -1.01586914 29.17016602 C-1.0328762 25.71687204 -1.04543302 22.26362233 -1.05493164 18.81030273 C-1.05997121 17.31355082 -1.06680287 15.81680384 -1.07543945 14.32006836 C-1.08752159 12.17300193 -1.09323191 10.02600038 -1.09765625 7.87890625 C-1.10289307 6.5854126 -1.10812988 5.29191895 -1.11352539 3.95922852 C-1 1 -1 1 0 0 Z " fill="#F1F3F1" transform="translate(22,23)"/>
<path d="M0 0 C0.33 0 0.66 0 1 0 C1 1.98 1 3.96 1 6 C1.99 6 2.98 6 4 6 C6.27678571 14.03571429 6.27678571 14.03571429 5 18 C4.34 15.69 3.68 13.38 3 11 C1.09610151 13.85584773 0.30537823 15.9311762 -0.625 19.1875 C-0.88539062 20.08855469 -1.14578125 20.98960938 -1.4140625 21.91796875 C-1.60742188 22.60503906 -1.80078125 23.29210937 -2 24 C-1.01 24.33 -0.02 24.66 1 25 C0.34 25.33 -0.32 25.66 -1 26 C2.3 26.33 5.6 26.66 9 27 C9 27.33 9 27.66 9 28 C4.71 28 0.42 28 -4 28 C-4.33 29.98 -4.66 31.96 -5 34 C-5.33 34 -5.66 34 -6 34 C-6 32.35 -6 30.7 -6 29 C-6.66 29 -7.32 29 -8 29 C-6.36559954 19.0301572 -3.13564949 9.57803752 0 0 Z " fill="#E1E4E3" transform="translate(75,18)"/>
<path d="M0 0 C2.82144057 2.49199092 4.37080031 5.25243979 6.125 8.5625 C6.64320313 9.53316406 7.16140625 10.50382812 7.6953125 11.50390625 C8.47544804 12.99644102 9.24683714 14.49367427 10 16 C6.7 16 3.4 16 0 16 C0 15.34 0 14.68 0 14 C-1.32 13.67 -2.64 13.34 -4 13 C-4 10.03 -4 7.06 -4 4 C-3.34 4 -2.68 4 -2 4 C-1.34 2.68 -0.68 1.36 0 0 Z " fill="#B544AC" transform="translate(265,43)"/>
<path d="M0 0 C0.125 2.375 0.125 2.375 0 5 C-0.66 5.66 -1.32 6.32 -2 7 C-2.99 7 -3.98 7 -5 7 C-5 7.66 -5 8.32 -5 9 C-5.76183594 9.02578125 -6.52367187 9.0515625 -7.30859375 9.078125 C-13.66625408 9.42735977 -18.49140117 10.20062301 -24.0625 13.35546875 C-26 14 -26 14 -28.1875 13.30078125 C-30 12 -30 12 -31 9 C-30.40832031 9.02320313 -29.81664062 9.04640625 -29.20703125 9.0703125 C-23.79867555 9.19383123 -19.60639011 9.14096331 -15.25 5.5625 C-12.35102647 3.54932394 -9.37758317 2.68476822 -6.0234375 1.6484375 C-0.87951807 0 -0.87951807 0 0 0 Z " fill="#AA59B1" transform="translate(255,50)"/>
<path d="M0 0 C4.29 0 8.58 0 13 0 C12.67 1.32 12.34 2.64 12 4 C10.68 4 9.36 4 8 4 C7.67 12.25 7.34 20.5 7 29 C6.67 29 6.34 29 6 29 C5.18145807 25.79184371 4.92117766 22.75394445 4.859375 19.4609375 C4.84003906 18.63335937 4.82070312 17.80578125 4.80078125 16.953125 C4.7667779 15.22680112 4.74868633 13.50009428 4.74609375 11.7734375 C4.67600309 9.41248903 4.57661785 7.29153908 4 5 C1.62972038 2.82917914 1.62972038 2.82917914 -1 2 C-0.67 1.34 -0.34 0.68 0 0 Z " fill="#F3F5F5" transform="translate(160,17)"/>
<path d="M0 0 C0.66 0 1.32 0 2 0 C2.66 0.66 3.32 1.32 4 2 C4.66 1.34 5.32 0.68 6 0 C6.39832031 0.71027344 6.79664063 1.42054687 7.20703125 2.15234375 C7.73683594 3.07144531 8.26664062 3.99054687 8.8125 4.9375 C9.33457031 5.85402344 9.85664063 6.77054688 10.39453125 7.71484375 C11.86140987 10.284062 11.86140987 10.284062 15 11 C15.33 11.99 15.66 12.98 16 14 C12.55019 14.96273768 10.70878466 15.34574862 7.4375 13.75 C3.84018213 9.69148753 2.02237295 4.99138855 0 0 Z " fill="#FBEAFA" transform="translate(267,45)"/>
<path d="M0 0 C0.763125 0.680625 1.52625 1.36125 2.3125 2.0625 C3.6428125 3.0215625 3.6428125 3.0215625 5 4 C5.99 3.67 6.98 3.34 8 3 C7.53199289 7.05606165 7.12046792 10.46588679 5 14 C3.109375 13.7734375 3.109375 13.7734375 1 13 C-0.046875 11.0390625 -0.046875 11.0390625 -0.75 8.625 C-0.99234375 7.83351563 -1.2346875 7.04203125 -1.484375 6.2265625 C-2 4 -2 4 -2 1 C-1.34 0.67 -0.68 0.34 0 0 Z " fill="#F2F3F3" transform="translate(33,46)"/>
<path d="M0 0 C5.28 0 10.56 0 16 0 C17.65497356 3.30994713 17.10084335 6.99123 17.0625 10.625 C17.05798828 11.42679688 17.05347656 12.22859375 17.04882812 13.0546875 C17.03703168 15.03649006 17.01909605 17.01825433 17 19 C16.34 19.33 15.68 19.66 15 20 C15 14.39 15 8.78 15 3 C10.05 3 5.1 3 0 3 C0 2.01 0 1.02 0 0 Z " fill="#ECECEC" transform="translate(108,36)"/>
<path d="M0 0 C0.33 0 0.66 0 1 0 C1 1.98 1 3.96 1 6 C1.99 6 2.98 6 4 6 C6.27678571 14.03571429 6.27678571 14.03571429 5 18 C4.34 15.69 3.68 13.38 3 11 C2.01 12.485 2.01 12.485 1 14 C0.01 15.485 0.01 15.485 -1 17 C-1.33 16.34 -1.66 15.68 -2 15 C-2.99 15.495 -2.99 15.495 -4 16 C-2.84941444 10.60204011 -1.57578241 5.29012667 0 0 Z " fill="#DADCDB" transform="translate(75,18)"/>
<path d="M0 0 C3.37625536 0.78368555 4.94714214 1.34411506 7.6875 3.5625 C9.58705948 7.53430618 9.49350734 10.05559202 9.0625 14.4375 C8.4025 15.0975 7.7425 15.7575 7.0625 16.4375 C7.0625 13.1375 7.0625 9.8375 7.0625 6.4375 C5.7425 6.4375 4.4225 6.4375 3.0625 6.4375 C3.0625 5.1175 3.0625 3.7975 3.0625 2.4375 C-1.73058342 1.97227707 -1.73058342 1.97227707 -5.875 3.9375 C-6.225625 4.4325 -6.57625 4.9275 -6.9375 5.4375 C-7.2675 4.1175 -7.5975 2.7975 -7.9375 1.4375 C-4.48470437 -0.86436375 -3.89784776 -0.744401 0 0 Z " fill="#AB4E81" transform="translate(279.9375,38.5625)"/>
<path d="M0 0 C0.66 0.66 1.32 1.32 2 2 C4.60280568 1.67958603 4.60280568 1.67958603 7 1 C7.125 3.875 7.125 3.875 7 7 C6.34 7.66 5.68 8.32 5 9 C4.01 9 3.02 9 2 9 C2 8.34 2 7.68 2 7 C1.071875 6.9071875 1.071875 6.9071875 0.125 6.8125 C-2 6 -2 6 -3.25 3.4375 C-3.4975 2.633125 -3.745 1.82875 -4 1 C-2.125 0.375 -2.125 0.375 0 0 Z " fill="#BB4BAB" transform="translate(280,49)"/>
<path d="M0 0 C0.66 0 1.32 0 2 0 C2.04898438 0.69867188 2.09796875 1.39734375 2.1484375 2.1171875 C2.22320312 3.02726562 2.29796875 3.93734375 2.375 4.875 C2.44460937 5.77992187 2.51421875 6.68484375 2.5859375 7.6171875 C2.79568132 10.17941903 2.79568132 10.17941903 5 12 C1.37 12 -2.26 12 -6 12 C-6 11.34 -6 10.68 -6 10 C-5.01 9.67 -4.02 9.34 -3 9 C-1.97718482 6.90280128 -1.97718482 6.90280128 -1.3125 4.4375 C-1.06113281 3.61121094 -0.80976562 2.78492188 -0.55078125 1.93359375 C-0.36902344 1.29550781 -0.18726562 0.65742187 0 0 Z " fill="#F8FBFA" transform="translate(67,47)"/>
<path d="M0 0 C3.875 0.875 3.875 0.875 5 2 C5.08843793 4.44830426 5.11528752 6.86820599 5.09765625 9.31640625 C5.0962413 10.04746078 5.09482635 10.77851532 5.09336853 11.53172302 C5.08775408 13.87535632 5.07519922 16.21889539 5.0625 18.5625 C5.05748686 20.14778508 5.05292363 21.73307166 5.04882812 23.31835938 C5.03777997 27.2122761 5.02050572 31.10612205 5 35 C4.67 35 4.34 35 4 35 C4 25.76 4 16.52 4 7 C3.34 7 2.68 7 2 7 C2 5.68 2 4.36 2 3 C1.34 2.67 0.68 2.34 0 2 C0 1.34 0 0.68 0 0 Z " fill="#969698" transform="translate(16,20)"/>
<path d="M0 0 C4.75 1.875 4.75 1.875 7 3 C7 2.01 7 1.02 7 0 C9.64 0.33 12.28 0.66 15 1 C13.68 1.33 12.36 1.66 11 2 C11 2.66 11 3.32 11 4 C15.455 3.505 15.455 3.505 20 3 C17.10193429 5.89806571 15.06866376 5.80625411 11 6 C6.138875 4.9753511 2.81923256 4.22884884 0 0 Z " fill="#DBDBDB" transform="translate(181,55)"/>
<path d="M0 0 C0.33 0 0.66 0 1 0 C0.25 6.625 0.25 6.625 -2 10 C-2.99 10 -3.98 10 -5 10 C-5 10.66 -5 11.32 -5 12 C-0.545 11.505 -0.545 11.505 4 11 C4 10.01 4 9.02 4 8 C5.32 8.66 6.64 9.32 8 10 C7.67 10.99 7.34 11.98 7 13 C2.71 13 -1.58 13 -6 13 C-6 11.68 -6 10.36 -6 9 C-5.01 8.67 -4.02 8.34 -3 8 C-1.98245132 6.1346755 -1.98245132 6.1346755 -1.3125 3.9375 C-1.06113281 3.20402344 -0.80976562 2.47054687 -0.55078125 1.71484375 C-0.36902344 1.14894531 -0.18726562 0.58304688 0 0 Z " fill="#D5D8D6" transform="translate(66,47)"/>
<path d="M0 0 C0.66 0 1.32 0 2 0 C2.433125 0.9590625 2.433125 0.9590625 2.875 1.9375 C3.82823451 4.15206079 3.82823451 4.15206079 6 5 C6.625 8.0625 6.625 8.0625 7 11 C5.125 10.75 5.125 10.75 3 10 C1.875 8 1.875 8 1 6 C0.34 5.67 -0.32 5.34 -1 5 C-0.67 3.35 -0.34 1.7 0 0 Z " fill="#C13AAE" transform="translate(264,47)"/>
<path d="M0 0 C0.89749822 3.0682638 1.11711768 5.79269976 1.09765625 8.984375 C1.09443359 9.91894531 1.09121094 10.85351562 1.08789062 11.81640625 C1.07951172 12.78449219 1.07113281 13.75257812 1.0625 14.75 C1.05798828 15.73355469 1.05347656 16.71710937 1.04882812 17.73046875 C1.03706483 20.15370791 1.02062684 22.57682273 1 25 C-2.65916215 19.51125678 -2.42906157 13.42594537 -2 7 C-1.5017307 4.55631403 -0.82176315 2.36256906 0 0 Z " fill="#E0E4E4" transform="translate(178,26)"/>
<path d="M0 0 C0.33 0 0.66 0 1 0 C1 3.63 1 7.26 1 11 C0.34 10.34 -0.32 9.68 -1 9 C-4.32901247 11.21934164 -4.75023244 12.34683329 -6 16 C-7.60080151 11.99799622 -6.29279692 8.95443764 -5 5 C-4.67 5.99 -4.34 6.98 -4 8 C-3.34 8 -2.68 8 -2 8 C-1.7834375 6.576875 -1.7834375 6.576875 -1.5625 5.125 C-1 2 -1 2 0 0 Z " fill="#DEDFDE" transform="translate(48,23)"/>
<path d="M0 0 C1.3921875 0.3403125 1.3921875 0.3403125 2.8125 0.6875 C2.8125 1.3475 2.8125 2.0075 2.8125 2.6875 C1.1625 2.6875 -0.4875 2.6875 -2.1875 2.6875 C-2.1875 4.6675 -2.1875 6.6475 -2.1875 8.6875 C-3.1775 9.1825 -3.1775 9.1825 -4.1875 9.6875 C-5.75 7.3125 -5.75 7.3125 -7.1875 4.6875 C-5.30900579 0.93051159 -4.40930902 -0.4322852 0 0 Z " fill="#C35699" transform="translate(279.1875,40.3125)"/>
<path d="M0 0 C3.875 4.75 3.875 4.75 5 7 C1.7 7 -1.6 7 -5 7 C-5 6.34 -5 5.68 -5 5 C-5.99 5 -6.98 5 -8 5 C-8 4.34 -8 3.68 -8 3 C-4.65626525 3.55728913 -1.96687001 4.35173889 1 6 C0.67 4.02 0.34 2.04 0 0 Z " fill="#AD57AE" transform="translate(270,52)"/>
<path d="M0 0 C3.63 0 7.26 0 11 0 C10.67 0.99 10.34 1.98 10 3 C6.4375 4.1875 6.4375 4.1875 3 5 C2.01 3.35 1.02 1.7 0 0 Z " fill="#BCA5D7" transform="translate(224,59)"/>
<path d="M0 0 C0.99 0.66 1.98 1.32 3 2 C2.67 2.66 2.34 3.32 2 4 C4.31 4 6.62 4 9 4 C9 4.33 9 4.66 9 5 C4.05 5.33 -0.9 5.66 -6 6 C-4 4 -2 2 0 0 Z " fill="#886A91" transform="translate(241,54)"/>
<path d="M0 0 C0.66 0.33 1.32 0.66 2 1 C1.74445946 2.46109063 1.46999628 3.91888096 1.1875 5.375 C1.03667969 6.18710937 0.88585938 6.99921875 0.73046875 7.8359375 C0 10 0 10 -3 12 C-2.49202991 7.6822542 -1.80317221 3.96697886 0 0 Z " fill="#F4F6F5" transform="translate(44,32)"/>
<path d="M0 0 C0 1.98 0 3.96 0 6 C-0.99 6.495 -0.99 6.495 -2 7 C-2 6.34 -2 5.68 -2 5 C-3.65 4.67 -5.3 4.34 -7 4 C-7 3.34 -7 2.68 -7 2 C-3.88692954 -0.07538031 -3.52734766 0 0 0 Z " fill="#BF3FAA" transform="translate(287,50)"/>
<path d="M0 0 C3.96 0 7.92 0 12 0 C12 1.32 12 2.64 12 4 C10.68 3.67 9.36 3.34 8 3 C8.33 2.67 8.66 2.34 9 2 C4.9899066 1.82135369 4.9899066 1.82135369 1 2 C0.34 2.66 -0.32 3.32 -1 4 C-0.67 2.68 -0.34 1.36 0 0 Z " fill="#D1D2D2" transform="translate(47,17)"/>
<path d="M0 0 C0 1.32 0 2.64 0 4 C-2.31 4.33 -4.62 4.66 -7 5 C-7 4.01 -7 3.02 -7 2 C-4.35261084 0.5393715 -3.10551666 0 0 0 Z " fill="#B53FBA" transform="translate(253,53)"/>
<path d="M0 0 C3.0916909 2.52956528 3.90931332 5.22454612 5 9 C4.01 8.67 3.02 8.34 2 8 C1.3125 5.9375 1.3125 5.9375 1 4 C0.01 4 -0.98 4 -2 4 C-1.34 2.68 -0.68 1.36 0 0 Z " fill="#B861A9" transform="translate(265,43)"/>
<path d="M0 0 C0.66 0 1.32 0 2 0 C1.46274105 3.37705625 0.88935377 6.696686 0 10 C-0.66 10 -1.32 10 -2 10 C-1.85950482 8.52031676 -1.71245174 7.04125484 -1.5625 5.5625 C-1.48128906 4.73878906 -1.40007813 3.91507813 -1.31640625 3.06640625 C-1 1 -1 1 0 0 Z " fill="#F0F2F1" transform="translate(46,21)"/>
<path d="M0 0 C0.33 0.99 0.66 1.98 1 3 C4.3 2.67 7.6 2.34 11 2 C10.67 1.34 10.34 0.68 10 0 C11.32 0.33 12.64 0.66 14 1 C13.67 1.99 13.34 2.98 13 4 C8.71 4 4.42 4 0 4 C0 2.68 0 1.36 0 0 Z " fill="#D8D9D9" transform="translate(137,56)"/>
<path d="M0 0 C0.99 0.33 1.98 0.66 3 1 C2.67 1.33 2.34 1.66 2 2 C5.96 2.33 9.92 2.66 14 3 C14 3.33 14 3.66 14 4 C9.38 4 4.76 4 0 4 C0 2.68 0 1.36 0 0 Z " fill="#D7DBD9" transform="translate(45,56)"/>
<path d="M0 0 C0.6875 1.625 0.6875 1.625 1 4 C-0.4375 7.25 -0.4375 7.25 -2 10 C-3.01136941 7.26930259 -3.04557718 6.13998707 -2.125 3.3125 C-1 1 -1 1 0 0 Z " fill="#F8FAFA" transform="translate(73,32)"/>
<path d="M0 0 C2.475 0.495 2.475 0.495 5 1 C5.33 2.32 5.66 3.64 6 5 C4.125 4.75 4.125 4.75 2 4 C0.75 1.9375 0.75 1.9375 0 0 Z " fill="#BF34BE" transform="translate(265,53)"/>
</svg>
