<?xml version="1.0" encoding="UTF-8"?>
<svg xmlns="http://www.w3.org/2000/svg" xmlns:xlink="http://www.w3.org/1999/xlink" width="212px" height="60px" viewBox="0 0 212 60" version="1.1">
<g id="surface1">
<path style=" stroke:none;fill-rule:nonzero;fill:rgb(92.156863%,92.54902%,92.54902%);fill-opacity:1;" d="M 18.828125 11.164062 C 21.128906 15.195312 22.238281 19.535156 23.492188 23.984375 C 23.714844 24.761719 23.9375 25.542969 24.167969 26.34375 C 24.71875 28.261719 25.261719 30.175781 25.800781 32.09375 C 27.675781 28.039062 28.898438 23.925781 30.074219 19.621094 C 30.4375 18.300781 30.800781 16.980469 31.167969 15.660156 C 31.40625 14.789062 31.40625 14.789062 31.648438 13.90625 C 32.078125 12.558594 32.078125 12.558594 32.777344 11.859375 C 34.183594 11.808594 35.59375 11.800781 37.003906 11.816406 C 38.160156 11.828125 38.160156 11.828125 39.339844 11.835938 C 39.933594 11.84375 40.53125 11.851562 41.144531 11.859375 C 41.144531 12.78125 41.144531 13.703125 41.144531 14.652344 C 40.222656 14.652344 39.304688 14.652344 38.355469 14.652344 C 38.585938 22.480469 38.816406 30.308594 39.050781 38.371094 C 41.742188 39.3125 41.742188 39.3125 43.933594 38.371094 C 44.851562 36.386719 44.851562 36.386719 45.589844 33.921875 C 45.738281 33.472656 45.882812 33.019531 46.035156 32.558594 C 46.503906 31.109375 46.964844 29.660156 47.421875 28.210938 C 47.878906 26.785156 48.339844 25.355469 48.804688 23.929688 C 49.101562 23.011719 49.394531 22.089844 49.691406 21.171875 C 50.703125 18.027344 51.796875 14.9375 53 11.859375 C 54.378906 11.859375 55.761719 11.859375 57.183594 11.859375 C 58.28125 15.398438 59.371094 18.9375 60.460938 22.476562 C 60.832031 23.679688 61.203125 24.882812 61.578125 26.089844 C 62.113281 27.816406 62.644531 29.546875 63.175781 31.277344 C 63.34375 31.816406 63.511719 32.355469 63.6875 32.910156 C 64.335938 35.035156 64.855469 36.835938 64.855469 39.070312 C 66.695312 38.839844 68.539062 38.609375 70.433594 38.371094 C 70.664062 30.542969 70.894531 22.714844 71.132812 14.652344 C 69.980469 14.421875 68.832031 14.191406 67.644531 13.953125 C 67.875 13.261719 68.105469 12.570312 68.34375 11.859375 C 71.792969 11.859375 75.246094 11.859375 78.800781 11.859375 C 78.574219 12.78125 78.34375 13.703125 78.105469 14.652344 C 77.414062 14.652344 76.722656 14.652344 76.011719 14.652344 C 76.011719 17.875 76.011719 21.097656 76.011719 24.417969 C 79.234375 24.417969 82.457031 24.417969 85.777344 24.417969 C 85.777344 21.195312 85.777344 17.972656 85.777344 14.652344 C 84.855469 14.421875 83.933594 14.191406 82.988281 13.953125 C 82.988281 13.261719 82.988281 12.570312 82.988281 11.859375 C 86.667969 11.859375 90.351562 11.859375 94.144531 11.859375 C 94.144531 12.550781 94.144531 13.242188 94.144531 13.953125 C 93.222656 14.414062 92.304688 14.875 91.355469 15.347656 C 91.355469 22.945312 91.355469 30.542969 91.355469 38.371094 C 92.277344 38.832031 93.195312 39.292969 94.144531 39.765625 C 94.144531 40.457031 94.144531 41.148438 94.144531 41.859375 C 90.460938 41.859375 86.78125 41.859375 82.988281 41.859375 C 82.988281 40.941406 82.988281 40.019531 82.988281 39.070312 C 83.90625 39.070312 84.828125 39.070312 85.777344 39.070312 C 85.777344 35.15625 85.777344 31.242188 85.777344 27.210938 C 82.554688 27.210938 79.332031 27.210938 76.011719 27.210938 C 76.359375 32.734375 76.359375 32.734375 76.710938 38.371094 C 77.746094 38.71875 77.746094 38.71875 78.800781 39.070312 C 78.800781 39.992188 78.800781 40.910156 78.800781 41.859375 C 71.667969 41.859375 64.535156 41.859375 57.183594 41.859375 C 57.183594 40.941406 57.183594 40.019531 57.183594 39.070312 C 57.875 38.609375 58.566406 38.148438 59.277344 37.675781 C 58.929688 34.910156 58.929688 34.910156 58.578125 32.09375 C 55.585938 32.09375 52.59375 32.09375 49.511719 32.09375 C 49.28125 34.164062 49.054688 36.238281 48.816406 38.371094 C 49.734375 38.832031 50.65625 39.292969 51.605469 39.765625 C 51.375 40.457031 51.144531 41.148438 50.90625 41.859375 C 44.464844 41.859375 38.019531 41.859375 31.382812 41.859375 C 31.382812 40.941406 31.382812 40.019531 31.382812 39.070312 C 32.070312 39.070312 32.761719 39.070312 33.472656 39.070312 C 33.242188 33.542969 33.011719 28.019531 32.777344 22.324219 C 32.40625 23.675781 32.035156 25.027344 31.652344 26.421875 C 31.285156 27.726562 30.917969 29.03125 30.546875 30.335938 C 30.289062 31.242188 30.039062 32.152344 29.792969 33.0625 C 29.4375 34.371094 29.0625 35.671875 28.691406 36.972656 C 28.472656 37.757812 28.25 38.546875 28.027344 39.355469 C 27.199219 41.164062 27.199219 41.164062 25.710938 41.773438 C 25.28125 41.800781 24.851562 41.832031 24.40625 41.859375 C 22.363281 37.476562 21.066406 32.945312 19.746094 28.300781 C 18.980469 25.636719 18.21875 22.976562 17.433594 20.234375 C 17.433594 26.21875 17.433594 32.203125 17.433594 38.371094 C 18.125 38.601562 18.816406 38.832031 19.527344 39.070312 C 19.527344 39.992188 19.527344 40.910156 19.527344 41.859375 C 16.765625 41.859375 14.003906 41.859375 11.15625 41.859375 C 11.15625 40.941406 11.15625 40.019531 11.15625 39.070312 C 12.195312 38.722656 12.195312 38.722656 13.25 38.371094 C 13.480469 31.925781 13.710938 25.480469 13.949219 18.835938 C 13.488281 18.835938 13.027344 18.835938 12.550781 18.835938 C 12.550781 17.917969 12.550781 16.996094 12.550781 16.046875 C 12.09375 15.816406 11.632812 15.585938 11.15625 15.347656 C 11.15625 14.886719 11.15625 14.429688 11.15625 13.953125 C 11.617188 13.953125 12.078125 13.953125 12.550781 13.953125 C 12.78125 13.261719 13.011719 12.570312 13.25 11.859375 C 15.140625 10.914062 16.742188 11.117188 18.828125 11.164062 Z M 53.699219 18.140625 C 53.230469 19.605469 52.765625 21.074219 52.300781 22.542969 C 52.042969 23.359375 51.785156 24.179688 51.519531 25.019531 C 50.8125 27.167969 50.8125 27.167969 50.90625 29.300781 C 52.980469 29.300781 55.050781 29.300781 57.183594 29.300781 C 56.265625 25.617188 55.34375 21.933594 54.394531 18.140625 C 54.164062 18.140625 53.933594 18.140625 53.699219 18.140625 Z M 53.699219 18.140625 "/>
<path style=" stroke:none;fill-rule:nonzero;fill:rgb(92.941177%,93.333334%,93.333334%);fill-opacity:1;" d="M 165.449219 11.992188 C 168.996094 14.328125 170.449219 16.894531 171.550781 20.929688 C 171.699219 22.796875 171.785156 24.5625 171.769531 26.425781 C 171.769531 26.914062 171.769531 27.40625 171.769531 27.914062 C 171.699219 31.625 171.109375 34.375 169.460938 37.675781 C 169.949219 37.472656 170.433594 37.273438 170.9375 37.0625 C 171.570312 36.804688 172.207031 36.546875 172.859375 36.277344 C 173.492188 36.019531 174.121094 35.761719 174.773438 35.496094 C 176.433594 34.882812 176.433594 34.882812 177.828125 34.882812 C 177.597656 28.207031 177.367188 21.53125 177.132812 14.652344 C 176.210938 14.421875 175.289062 14.191406 174.34375 13.953125 C 174.34375 13.261719 174.34375 12.570312 174.34375 11.859375 C 176.59375 11.800781 178.84375 11.761719 181.097656 11.730469 C 182.050781 11.703125 182.050781 11.703125 183.023438 11.675781 C 187.347656 11.628906 189.753906 12.140625 193.039062 15.085938 C 194.3125 17.636719 194.246094 20.226562 193.867188 23.023438 C 193.15625 24.613281 193.15625 24.613281 192.472656 25.8125 C 193.105469 25.980469 193.105469 25.980469 193.75 26.148438 C 196.429688 26.933594 198.390625 27.601562 200.535156 29.433594 C 201.867188 32.035156 202.121094 34.109375 201.539062 36.976562 C 200.023438 39.46875 198.628906 40.757812 195.960938 41.859375 C 194.527344 42.007812 194.527344 42.007812 192.992188 41.972656 C 192.410156 41.964844 191.832031 41.957031 191.234375 41.945312 C 190.613281 41.929688 189.988281 41.914062 189.347656 41.898438 C 188.019531 41.882812 186.691406 41.863281 185.363281 41.847656 C 183.277344 41.8125 181.191406 41.773438 179.105469 41.726562 C 177.085938 41.683594 175.066406 41.660156 173.046875 41.636719 C 172.433594 41.617188 171.820312 41.597656 171.183594 41.582031 C 167.234375 41.546875 164.550781 42.242188 161.09375 44.183594 C 159.699219 44.652344 159.699219 44.652344 158.207031 44.113281 C 156.613281 43.0625 155.429688 41.855469 154.117188 40.464844 C 153.515625 39.917969 152.910156 39.371094 152.289062 38.808594 C 149.015625 35.1875 148.601562 30.554688 148.539062 25.8125 C 148.992188 20.515625 150.027344 16.324219 154.160156 12.6875 C 157.746094 10.492188 161.625 10.59375 165.449219 11.992188 Z M 155.90625 16.222656 C 153.96875 19.632812 153.972656 22.867188 153.945312 26.730469 C 153.929688 27.242188 153.914062 27.753906 153.902344 28.28125 C 153.875 31.929688 154.464844 34.453125 156.210938 37.675781 C 158.664062 39.3125 159.597656 39.472656 162.488281 39.070312 C 164.878906 37.15625 166.128906 35.785156 166.671875 32.789062 C 166.773438 30.847656 166.832031 28.933594 166.84375 26.992188 C 166.859375 26.480469 166.875 25.96875 166.890625 25.4375 C 166.914062 21.785156 166.273438 19.292969 164.578125 16.046875 C 163.191406 14.367188 163.191406 14.367188 160.480469 14.347656 C 158.105469 14.402344 157.75 14.519531 155.90625 16.222656 Z M 182.011719 14.652344 C 182.011719 18.335938 182.011719 22.019531 182.011719 25.8125 C 186.535156 26.3125 186.535156 26.3125 188.246094 24.765625 C 189.304688 22.277344 189.375 20.105469 188.988281 17.441406 C 188.382812 15.628906 188.382812 15.628906 186.894531 14.652344 C 185.285156 14.652344 183.671875 14.652344 182.011719 14.652344 Z M 182.011719 29.300781 C 182.242188 30.222656 182.472656 31.144531 182.710938 32.09375 C 183.402344 31.632812 184.089844 31.171875 184.800781 30.699219 C 184.800781 30.238281 184.800781 29.777344 184.800781 29.300781 C 183.882812 29.300781 182.960938 29.300781 182.011719 29.300781 Z M 182.011719 29.300781 "/>
<path style=" stroke:none;fill-rule:nonzero;fill:rgb(91.764706%,90.980393%,91.764706%);fill-opacity:1;" d="M 183.40625 11.859375 C 186.898438 11.65625 188.980469 11.777344 191.777344 13.953125 C 193.277344 15.300781 193.804688 16.214844 194.042969 18.222656 C 194.121094 21.1875 193.964844 23.199219 192.472656 25.8125 C 192.894531 25.925781 193.316406 26.035156 193.75 26.148438 C 196.429688 26.933594 198.390625 27.601562 200.535156 29.433594 C 201.867188 32.035156 202.121094 34.109375 201.539062 36.976562 C 200.042969 39.4375 198.667969 40.898438 195.960938 41.859375 C 194.003906 41.847656 192.148438 41.769531 190.207031 41.597656 C 189.429688 41.539062 189.429688 41.539062 188.632812 41.480469 C 187.355469 41.378906 186.078125 41.273438 184.800781 41.164062 C 184.800781 40.703125 184.800781 40.242188 184.800781 39.765625 C 184.355469 39.679688 183.910156 39.59375 183.453125 39.503906 C 182.976562 39.363281 182.503906 39.21875 182.011719 39.070312 C 181.023438 37.085938 181.25 35.390625 181.273438 33.183594 C 181.277344 32.378906 181.285156 31.574219 181.292969 30.742188 C 181.300781 30.039062 181.308594 29.332031 181.316406 28.605469 C 181.316406 27.914062 181.316406 27.222656 181.316406 26.511719 C 181.316406 22.324219 181.316406 18.140625 181.316406 13.953125 C 183.730469 13.609375 183.730469 13.609375 186.199219 13.253906 C 185.277344 12.796875 184.355469 12.335938 183.40625 11.859375 Z M 182.011719 14.652344 C 182.011719 18.335938 182.011719 22.019531 182.011719 25.8125 C 186.535156 26.3125 186.535156 26.3125 188.246094 24.765625 C 189.304688 22.277344 189.375 20.105469 188.988281 17.441406 C 188.382812 15.628906 188.382812 15.628906 186.894531 14.652344 C 185.285156 14.652344 183.671875 14.652344 182.011719 14.652344 Z M 182.011719 29.300781 C 182.242188 30.222656 182.472656 31.144531 182.710938 32.09375 C 183.402344 31.632812 184.089844 31.171875 184.800781 30.699219 C 184.800781 30.238281 184.800781 29.777344 184.800781 29.300781 C 183.882812 29.300781 182.960938 29.300781 182.011719 29.300781 Z M 182.011719 29.300781 "/>
<path style=" stroke:none;fill-rule:nonzero;fill:rgb(94.509804%,94.901961%,94.901961%);fill-opacity:1;" d="M 95.539062 11.859375 C 98.070312 11.859375 100.601562 11.859375 103.210938 11.859375 C 104.5625 14.332031 105.914062 16.800781 107.265625 19.273438 C 107.644531 19.96875 108.027344 20.667969 108.421875 21.386719 C 108.792969 22.0625 109.160156 22.742188 109.542969 23.441406 C 109.882812 24.0625 110.222656 24.683594 110.574219 25.324219 C 111.644531 27.328125 112.65625 29.363281 113.671875 31.394531 C 113.902344 25.871094 114.132812 20.34375 114.367188 14.652344 C 113.449219 14.421875 112.527344 14.191406 111.578125 13.953125 C 111.578125 13.261719 111.578125 12.570312 111.578125 11.859375 C 114.570312 11.859375 117.5625 11.859375 120.644531 11.859375 C 120.414062 12.78125 120.183594 13.703125 119.949219 14.652344 C 119.257812 14.652344 118.566406 14.652344 117.855469 14.652344 C 117.855469 23.398438 117.855469 32.148438 117.855469 41.164062 C 116.128906 41.507812 116.128906 41.507812 114.367188 41.859375 C 110.125 35.050781 106.359375 27.96875 102.511719 20.929688 C 102.511719 26.6875 102.511719 32.441406 102.511719 38.371094 C 103.433594 38.832031 104.355469 39.292969 105.300781 39.765625 C 105.074219 40.457031 104.84375 41.148438 104.605469 41.859375 C 101.613281 41.859375 98.621094 41.859375 95.539062 41.859375 C 95.539062 40.941406 95.539062 40.019531 95.539062 39.070312 C 96.921875 38.722656 96.921875 38.722656 98.328125 38.371094 C 98.328125 30.773438 98.328125 23.175781 98.328125 15.347656 C 97.410156 14.886719 96.488281 14.429688 95.539062 13.953125 C 95.539062 13.261719 95.539062 12.570312 95.539062 11.859375 Z M 95.539062 11.859375 "/>
<path style=" stroke:none;fill-rule:nonzero;fill:rgb(92.941177%,93.333334%,93.333334%);fill-opacity:1;" d="M 141.011719 13.019531 C 143.808594 15.105469 145.113281 18.25 145.75 21.628906 C 146.214844 28.160156 146.417969 34.242188 142.015625 39.5 C 139.515625 41.871094 137.277344 42.558594 133.894531 42.558594 C 130.449219 41.988281 127.757812 41.058594 125.570312 38.242188 C 122.488281 33.160156 121.894531 27.105469 123.085938 21.332031 C 124.316406 17.160156 126.097656 13.84375 129.972656 11.597656 C 134.132812 10.609375 137.292969 10.996094 141.011719 13.019531 Z M 130.101562 16.265625 C 128.0625 19.777344 128.164062 22.785156 128.140625 26.730469 C 128.128906 27.316406 128.113281 27.90625 128.097656 28.511719 C 128.074219 32.085938 128.371094 34.601562 130.40625 37.675781 C 132.84375 39.296875 133.820312 39.421875 136.683594 39.070312 C 138.953125 37.492188 140.003906 35.699219 140.648438 33.011719 C 141.457031 27.085938 141.476562 21.445312 138.777344 16.046875 C 137.386719 14.367188 137.386719 14.367188 134.679688 14.347656 C 132.277344 14.398438 131.949219 14.511719 130.101562 16.265625 Z M 130.101562 16.265625 "/>
<path style=" stroke:none;fill-rule:nonzero;fill:rgb(91.764706%,91.764706%,91.764706%);fill-opacity:1;" d="M 18.828125 11.164062 C 21.128906 15.195312 22.238281 19.535156 23.492188 23.984375 C 23.714844 24.761719 23.9375 25.542969 24.167969 26.34375 C 24.71875 28.261719 25.261719 30.175781 25.800781 32.09375 C 27.132812 29.105469 28.25 26.238281 29.070312 23.066406 C 29.246094 22.398438 29.421875 21.730469 29.601562 21.042969 C 29.730469 20.542969 29.855469 20.046875 29.988281 19.535156 C 30.21875 20.226562 30.445312 20.917969 30.683594 21.628906 C 31.144531 21.628906 31.605469 21.628906 32.078125 21.628906 C 32.164062 20.996094 32.25 20.363281 32.339844 19.710938 C 32.722656 17.726562 33.175781 16.378906 34.171875 14.652344 C 34.402344 14.652344 34.632812 14.652344 34.867188 14.652344 C 34.902344 17.679688 34.929688 20.710938 34.945312 23.738281 C 34.953125 24.769531 34.960938 25.796875 34.972656 26.828125 C 34.992188 28.3125 35 29.792969 35.003906 31.277344 C 35.015625 32.613281 35.015625 32.613281 35.027344 33.976562 C 34.867188 36.277344 34.867188 36.277344 33.472656 39.070312 C 33.242188 33.542969 33.011719 28.019531 32.777344 22.324219 C 32.40625 23.675781 32.035156 25.027344 31.652344 26.421875 C 31.285156 27.726562 30.917969 29.03125 30.546875 30.335938 C 30.289062 31.242188 30.039062 32.152344 29.792969 33.0625 C 29.4375 34.371094 29.0625 35.671875 28.691406 36.972656 C 28.472656 37.757812 28.25 38.546875 28.027344 39.355469 C 27.199219 41.164062 27.199219 41.164062 25.710938 41.773438 C 25.28125 41.800781 24.851562 41.832031 24.40625 41.859375 C 22.363281 37.476562 21.066406 32.945312 19.746094 28.300781 C 18.980469 25.636719 18.21875 22.976562 17.433594 20.234375 C 17.433594 26.21875 17.433594 32.203125 17.433594 38.371094 C 18.125 38.601562 18.816406 38.832031 19.527344 39.070312 C 19.527344 39.992188 19.527344 40.910156 19.527344 41.859375 C 16.765625 41.859375 14.003906 41.859375 11.15625 41.859375 C 11.15625 40.941406 11.15625 40.019531 11.15625 39.070312 C 12.195312 38.722656 12.195312 38.722656 13.25 38.371094 C 13.480469 31.925781 13.710938 25.480469 13.949219 18.835938 C 13.488281 18.835938 13.027344 18.835938 12.550781 18.835938 C 12.550781 17.917969 12.550781 16.996094 12.550781 16.046875 C 12.09375 15.816406 11.632812 15.585938 11.15625 15.347656 C 11.15625 14.886719 11.15625 14.429688 11.15625 13.953125 C 11.617188 13.953125 12.078125 13.953125 12.550781 13.953125 C 12.78125 13.261719 13.011719 12.570312 13.25 11.859375 C 15.140625 10.914062 16.742188 11.117188 18.828125 11.164062 Z M 18.828125 11.164062 "/>
<path style=" stroke:none;fill-rule:nonzero;fill:rgb(94.117647%,94.509804%,94.509804%);fill-opacity:1;" d="M 163.882812 12.558594 C 164.113281 13.019531 164.34375 13.480469 164.578125 13.953125 C 162.277344 13.953125 159.976562 13.953125 157.605469 13.953125 C 155.386719 18.394531 154.578125 21.921875 154.597656 26.816406 C 154.585938 27.324219 154.574219 27.828125 154.5625 28.351562 C 154.5625 31.945312 155.066406 34.554688 156.90625 37.675781 C 158.613281 38.550781 158.613281 38.550781 160.527344 38.675781 C 161.46875 38.804688 161.46875 38.804688 162.429688 38.9375 C 162.910156 38.980469 163.386719 39.023438 163.882812 39.070312 C 163.421875 39.992188 162.960938 40.910156 162.488281 41.859375 C 158.671875 42.09375 156.046875 41.710938 152.722656 39.765625 C 149.105469 35.269531 148.324219 29.335938 148.671875 23.667969 C 149.386719 18.972656 150.742188 15.933594 154.117188 12.558594 C 157.542969 11.820312 160.457031 11.804688 163.882812 12.558594 Z M 163.882812 12.558594 "/>
<path style=" stroke:none;fill-rule:nonzero;fill:rgb(95.294118%,96.078432%,95.686275%);fill-opacity:1;" d="M 53 11.859375 C 54.378906 11.859375 55.761719 11.859375 57.183594 11.859375 C 58.28125 15.398438 59.371094 18.9375 60.460938 22.476562 C 60.832031 23.679688 61.203125 24.882812 61.578125 26.089844 C 62.113281 27.816406 62.644531 29.546875 63.175781 31.277344 C 63.429688 32.085938 63.429688 32.085938 63.6875 32.910156 C 64.335938 35.035156 64.855469 36.835938 64.855469 39.070312 C 65.546875 39.070312 66.234375 39.070312 66.949219 39.070312 C 66.949219 39.761719 66.949219 40.449219 66.949219 41.164062 C 63.726562 41.164062 60.503906 41.164062 57.183594 41.164062 C 57.183594 40.472656 57.183594 39.78125 57.183594 39.070312 C 57.875 38.609375 58.566406 38.148438 59.277344 37.675781 C 59.046875 35.601562 58.816406 33.53125 58.578125 31.394531 C 56.277344 31.394531 53.976562 31.394531 51.605469 31.394531 C 51.375 30.933594 51.144531 30.472656 50.90625 30 C 52.980469 29.769531 55.050781 29.539062 57.183594 29.300781 C 56.371094 25.082031 55.472656 20.90625 54.394531 16.746094 C 53.703125 16.972656 53.015625 17.203125 52.300781 17.441406 C 52.53125 15.601562 52.761719 13.757812 53 11.859375 Z M 53 11.859375 "/>
<path style=" stroke:none;fill-rule:nonzero;fill:rgb(96.078432%,94.901961%,96.078432%);fill-opacity:1;" d="M 174.34375 11.859375 C 175.78125 11.824219 177.21875 11.796875 178.65625 11.773438 C 179.457031 11.757812 180.257812 11.742188 181.085938 11.722656 C 183.351562 11.855469 184.863281 12.285156 186.894531 13.253906 C 186.894531 13.484375 186.894531 13.714844 186.894531 13.953125 C 185.054688 13.953125 183.210938 13.953125 181.316406 13.953125 C 181.367188 14.835938 181.417969 15.71875 181.46875 16.628906 C 181.535156 17.785156 181.597656 18.945312 181.664062 20.101562 C 181.699219 20.683594 181.730469 21.265625 181.765625 21.863281 C 181.796875 22.421875 181.828125 22.984375 181.859375 23.558594 C 181.90625 24.332031 181.90625 24.332031 181.949219 25.121094 C 182.035156 26.996094 182.011719 28.867188 181.988281 30.742188 C 181.980469 31.550781 181.976562 32.355469 181.96875 33.183594 C 181.960938 33.988281 181.953125 34.796875 181.945312 35.628906 C 181.871094 37.628906 181.871094 37.628906 182.710938 39.070312 C 183.402344 39.300781 184.089844 39.53125 184.800781 39.765625 C 184.800781 40.457031 184.800781 41.148438 184.800781 41.859375 C 181.351562 41.859375 177.898438 41.859375 174.34375 41.859375 C 174.34375 41.167969 174.34375 40.480469 174.34375 39.765625 C 175.261719 39.308594 176.183594 38.847656 177.132812 38.371094 C 177.132812 30.542969 177.132812 22.714844 177.132812 14.652344 C 176.210938 14.421875 175.289062 14.191406 174.34375 13.953125 C 174.34375 13.261719 174.34375 12.570312 174.34375 11.859375 Z M 174.34375 11.859375 "/>
<path style=" stroke:none;fill-rule:nonzero;fill:rgb(95.686275%,96.470588%,96.078432%);fill-opacity:1;" d="M 133.339844 12.410156 C 133.960938 12.484375 133.960938 12.484375 134.59375 12.558594 C 134.363281 13.019531 134.132812 13.480469 133.894531 13.953125 C 133.203125 13.953125 132.515625 13.953125 131.800781 13.953125 C 131.324219 14.875 130.863281 15.808594 130.40625 16.746094 C 130.167969 17.21875 129.925781 17.691406 129.675781 18.175781 C 128.742188 21.070312 128.785156 23.792969 128.796875 26.816406 C 128.785156 27.398438 128.773438 27.980469 128.761719 28.578125 C 128.757812 32.207031 129.304688 34.449219 131.105469 37.675781 C 131.105469 38.59375 131.105469 39.515625 131.105469 40.464844 C 127.988281 39.484375 126.179688 38.128906 124.132812 35.582031 C 121.894531 29.296875 121.972656 22.816406 124.828125 16.746094 C 126.890625 12.816406 129.09375 12.121094 133.339844 12.410156 Z M 133.339844 12.410156 "/>
<path style=" stroke:none;fill-rule:nonzero;fill:rgb(98.431373%,99.215686%,99.215686%);fill-opacity:1;" d="M 69.039062 12.558594 C 72.03125 12.558594 75.023438 12.558594 78.105469 12.558594 C 77.070312 13.59375 77.070312 13.59375 76.011719 14.652344 C 75.832031 16.554688 75.769531 18.296875 75.808594 20.195312 C 75.8125 20.734375 75.816406 21.273438 75.816406 21.832031 C 75.828125 23.550781 75.855469 25.269531 75.882812 26.992188 C 75.894531 28.15625 75.902344 29.324219 75.910156 30.492188 C 75.933594 33.351562 75.96875 36.210938 76.011719 39.070312 C 76.703125 39.300781 77.394531 39.53125 78.105469 39.765625 C 78.105469 40.226562 78.105469 40.6875 78.105469 41.164062 C 75.113281 41.164062 72.121094 41.164062 69.039062 41.164062 C 69.039062 40.703125 69.039062 40.242188 69.039062 39.765625 C 70.074219 39.421875 70.074219 39.421875 71.132812 39.070312 C 71.363281 30.78125 71.59375 22.492188 71.828125 13.953125 C 70.910156 13.492188 69.988281 13.03125 69.039062 12.558594 Z M 69.039062 12.558594 "/>
<path style=" stroke:none;fill-rule:nonzero;fill:rgb(77.254903%,26.666668%,60.392159%);fill-opacity:1;" d="M 195.21875 26.902344 C 197.574219 27.449219 198.667969 27.84375 200.582031 29.390625 C 201.835938 32.019531 202.121094 34.117188 201.539062 36.976562 C 200.277344 39.070312 200.277344 39.070312 198.75 40.464844 C 198.058594 40.464844 197.371094 40.464844 196.65625 40.464844 C 196.65625 40.003906 196.65625 39.542969 196.65625 39.070312 C 196.246094 39.023438 195.832031 38.976562 195.40625 38.929688 C 193.257812 38.152344 192.742188 37.007812 191.601562 35.058594 C 191.238281 34.457031 190.875 33.855469 190.5 33.238281 C 189.621094 31.25 189.347656 30.054688 189.683594 27.90625 C 192.09375 26.300781 192.5 26.382812 195.21875 26.902344 Z M 195.21875 26.902344 "/>
<path style=" stroke:none;fill-rule:nonzero;fill:rgb(86.666667%,88.235295%,88.235295%);fill-opacity:1;" d="M 111.578125 11.859375 C 114.570312 11.859375 117.5625 11.859375 120.644531 11.859375 C 120.414062 12.78125 120.183594 13.703125 119.949219 14.652344 C 119.257812 14.652344 118.566406 14.652344 117.855469 14.652344 C 117.855469 23.398438 117.855469 32.148438 117.855469 41.164062 C 115.5 38.023438 115.5 38.023438 115.761719 34.882812 C 115.074219 34.652344 114.382812 34.421875 113.671875 34.1875 C 113.902344 27.738281 114.132812 21.292969 114.367188 14.652344 C 113.449219 14.421875 112.527344 14.191406 111.578125 13.953125 C 111.578125 13.261719 111.578125 12.570312 111.578125 11.859375 Z M 111.578125 11.859375 "/>
<path style=" stroke:none;fill-rule:nonzero;fill:rgb(94.509804%,95.294118%,94.509804%);fill-opacity:1;" d="M 15.34375 16.046875 C 16.03125 16.277344 16.722656 16.507812 17.433594 16.746094 C 17.203125 16.972656 16.972656 17.203125 16.738281 17.441406 C 16.726562 18.992188 16.761719 20.539062 16.820312 22.089844 C 16.835938 22.550781 16.855469 23.015625 16.871094 23.492188 C 16.925781 24.980469 16.984375 26.464844 17.042969 27.949219 C 17.078125 28.957031 17.117188 29.960938 17.152344 30.964844 C 17.242188 33.433594 17.335938 35.902344 17.433594 38.371094 C 18.125 38.601562 18.816406 38.832031 19.527344 39.070312 C 19.527344 39.992188 19.527344 40.910156 19.527344 41.859375 C 16.765625 41.859375 14.003906 41.859375 11.15625 41.859375 C 11.15625 40.941406 11.15625 40.019531 11.15625 39.070312 C 12.882812 38.722656 12.882812 38.722656 14.644531 38.371094 C 14.640625 37.71875 14.636719 37.070312 14.632812 36.398438 C 14.621094 33.988281 14.613281 31.578125 14.605469 29.171875 C 14.601562 28.125 14.597656 27.082031 14.59375 26.039062 C 14.582031 24.539062 14.578125 23.042969 14.578125 21.542969 C 14.574219 20.640625 14.570312 19.738281 14.566406 18.808594 C 14.644531 16.746094 14.644531 16.746094 15.34375 16.046875 Z M 15.34375 16.046875 "/>
<path style=" stroke:none;fill-rule:nonzero;fill:rgb(88.235295%,89.411765%,89.019608%);fill-opacity:1;" d="M 52.300781 12.558594 C 52.53125 12.558594 52.761719 12.558594 53 12.558594 C 53 13.941406 53 15.320312 53 16.746094 C 53.691406 16.746094 54.378906 16.746094 55.09375 16.746094 C 56.679688 22.351562 56.679688 22.351562 55.789062 25.117188 C 55.328125 23.503906 54.867188 21.894531 54.394531 20.234375 C 53.066406 22.226562 52.515625 23.671875 51.867188 25.945312 C 51.683594 26.574219 51.503906 27.203125 51.316406 27.851562 C 51.183594 28.328125 51.046875 28.808594 50.90625 29.300781 C 51.597656 29.53125 52.289062 29.761719 53 30 C 52.539062 30.230469 52.078125 30.460938 51.605469 30.699219 C 53.90625 30.929688 56.207031 31.15625 58.578125 31.394531 C 58.578125 31.625 58.578125 31.855469 58.578125 32.09375 C 55.585938 32.09375 52.59375 32.09375 49.511719 32.09375 C 49.28125 33.472656 49.054688 34.855469 48.816406 36.277344 C 48.585938 36.277344 48.355469 36.277344 48.117188 36.277344 C 48.117188 35.128906 48.117188 33.976562 48.117188 32.789062 C 47.65625 32.789062 47.199219 32.789062 46.722656 32.789062 C 47.863281 25.835938 50.117188 19.242188 52.300781 12.558594 Z M 52.300781 12.558594 "/>
<path style=" stroke:none;fill-rule:nonzero;fill:rgb(70.980394%,26.666668%,67.450982%);fill-opacity:1;" d="M 184.800781 30 C 186.769531 31.738281 187.851562 33.664062 189.074219 35.972656 C 189.433594 36.652344 189.796875 37.328125 190.167969 38.027344 C 190.714844 39.066406 191.25 40.113281 191.777344 41.164062 C 189.476562 41.164062 187.171875 41.164062 184.800781 41.164062 C 184.800781 40.703125 184.800781 40.242188 184.800781 39.765625 C 183.882812 39.539062 182.960938 39.308594 182.011719 39.070312 C 182.011719 36.996094 182.011719 34.925781 182.011719 32.789062 C 182.472656 32.789062 182.933594 32.789062 183.40625 32.789062 C 183.867188 31.871094 184.328125 30.949219 184.800781 30 Z M 184.800781 30 "/>
<path style=" stroke:none;fill-rule:nonzero;fill:rgb(66.666669%,34.901962%,69.411767%);fill-opacity:1;" d="M 177.828125 34.882812 C 177.917969 36.539062 177.917969 36.539062 177.828125 38.371094 C 177.367188 38.832031 176.910156 39.292969 176.433594 39.765625 C 175.742188 39.765625 175.054688 39.765625 174.34375 39.765625 C 174.34375 40.226562 174.34375 40.6875 174.34375 41.164062 C 173.8125 41.179688 173.28125 41.199219 172.730469 41.21875 C 168.296875 41.460938 164.933594 42 161.046875 44.203125 C 159.699219 44.652344 159.699219 44.652344 158.171875 44.164062 C 156.90625 43.253906 156.90625 43.253906 156.210938 41.164062 C 156.625 41.179688 157.035156 41.195312 157.460938 41.210938 C 161.234375 41.296875 164.15625 41.261719 167.195312 38.765625 C 169.214844 37.359375 171.289062 36.757812 173.628906 36.035156 C 177.214844 34.882812 177.214844 34.882812 177.828125 34.882812 Z M 177.828125 34.882812 "/>
<path style=" stroke:none;fill-rule:nonzero;fill:rgb(95.294118%,96.078432%,96.078432%);fill-opacity:1;" d="M 111.578125 11.859375 C 114.570312 11.859375 117.5625 11.859375 120.644531 11.859375 C 120.414062 12.78125 120.183594 13.703125 119.949219 14.652344 C 119.027344 14.652344 118.105469 14.652344 117.15625 14.652344 C 116.929688 20.40625 116.699219 26.164062 116.460938 32.09375 C 116.230469 32.09375 116 32.09375 115.761719 32.09375 C 115.191406 29.855469 115.011719 27.734375 114.96875 25.4375 C 114.953125 24.859375 114.941406 24.28125 114.925781 23.6875 C 114.902344 22.484375 114.890625 21.277344 114.890625 20.074219 C 114.839844 18.425781 114.769531 16.949219 114.367188 15.347656 C 112.714844 13.835938 112.714844 13.835938 110.882812 13.253906 C 111.113281 12.796875 111.34375 12.335938 111.578125 11.859375 Z M 111.578125 11.859375 "/>
<path style=" stroke:none;fill-rule:nonzero;fill:rgb(98.431373%,91.764706%,98.039216%);fill-opacity:1;" d="M 186.199219 31.394531 C 186.65625 31.394531 187.117188 31.394531 187.59375 31.394531 C 188.050781 31.855469 188.511719 32.316406 188.988281 32.789062 C 189.445312 32.332031 189.90625 31.871094 190.382812 31.394531 C 190.660156 31.890625 190.9375 32.386719 191.222656 32.898438 C 191.59375 33.539062 191.960938 34.179688 192.34375 34.839844 C 192.707031 35.480469 193.070312 36.117188 193.445312 36.777344 C 194.46875 38.570312 194.46875 38.570312 196.65625 39.070312 C 196.886719 39.761719 197.117188 40.449219 197.355469 41.164062 C 194.949219 41.835938 193.664062 42.101562 191.382812 40.988281 C 188.875 38.15625 187.609375 34.878906 186.199219 31.394531 Z M 186.199219 31.394531 "/>
<path style=" stroke:none;fill-rule:nonzero;fill:rgb(94.901961%,95.294118%,95.294118%);fill-opacity:1;" d="M 23.011719 32.09375 C 23.546875 32.566406 24.078125 33.042969 24.625 33.53125 C 25.554688 34.199219 25.554688 34.199219 26.5 34.882812 C 27.191406 34.652344 27.878906 34.421875 28.59375 34.1875 C 28.265625 37.015625 27.980469 39.394531 26.5 41.859375 C 25.179688 41.703125 25.179688 41.703125 23.710938 41.164062 C 22.980469 39.792969 22.980469 39.792969 22.488281 38.109375 C 22.320312 37.558594 22.152344 37.007812 21.976562 36.4375 C 21.617188 34.882812 21.617188 34.882812 21.617188 32.789062 C 22.078125 32.558594 22.539062 32.332031 23.011719 32.09375 Z M 23.011719 32.09375 "/>
<path style=" stroke:none;fill-rule:nonzero;fill:rgb(92.54902%,92.54902%,92.54902%);fill-opacity:1;" d="M 75.316406 25.117188 C 78.996094 25.117188 82.679688 25.117188 86.472656 25.117188 C 87.628906 27.425781 87.242188 29.992188 87.214844 32.527344 C 87.210938 33.089844 87.207031 33.648438 87.207031 34.222656 C 87.195312 35.605469 87.183594 36.988281 87.171875 38.371094 C 86.710938 38.601562 86.25 38.832031 85.777344 39.070312 C 85.777344 35.15625 85.777344 31.242188 85.777344 27.210938 C 82.324219 27.210938 78.871094 27.210938 75.316406 27.210938 C 75.316406 26.519531 75.316406 25.828125 75.316406 25.117188 Z M 75.316406 25.117188 "/>
<path style=" stroke:none;fill-rule:nonzero;fill:rgb(85.490197%,86.274511%,85.882354%);fill-opacity:1;" d="M 52.300781 12.558594 C 52.53125 12.558594 52.761719 12.558594 53 12.558594 C 53 13.941406 53 15.320312 53 16.746094 C 53.691406 16.746094 54.378906 16.746094 55.09375 16.746094 C 56.679688 22.351562 56.679688 22.351562 55.789062 25.117188 C 55.328125 23.503906 54.867188 21.894531 54.394531 20.234375 C 53.703125 21.269531 53.703125 21.269531 53 22.324219 C 52.308594 23.363281 52.308594 23.363281 51.605469 24.417969 C 51.375 23.957031 51.144531 23.496094 50.90625 23.023438 C 50.21875 23.367188 50.21875 23.367188 49.511719 23.722656 C 50.316406 19.953125 51.203125 16.25 52.300781 12.558594 Z M 52.300781 12.558594 "/>
<path style=" stroke:none;fill-rule:nonzero;fill:rgb(67.058825%,30.588236%,50.588238%);fill-opacity:1;" d="M 195.21875 26.902344 C 197.574219 27.449219 198.667969 27.84375 200.582031 29.390625 C 201.90625 32.160156 201.839844 33.917969 201.539062 36.976562 C 201.078125 37.4375 200.617188 37.898438 200.144531 38.371094 C 200.144531 36.070312 200.144531 33.765625 200.144531 31.394531 C 199.222656 31.394531 198.304688 31.394531 197.355469 31.394531 C 197.355469 30.472656 197.355469 29.554688 197.355469 28.605469 C 194.011719 28.28125 194.011719 28.28125 191.121094 29.652344 C 190.878906 29.996094 190.632812 30.34375 190.382812 30.699219 C 190.152344 29.777344 189.921875 28.855469 189.683594 27.90625 C 192.09375 26.300781 192.5 26.382812 195.21875 26.902344 Z M 195.21875 26.902344 "/>
<path style=" stroke:none;fill-rule:nonzero;fill:rgb(73.333335%,29.411766%,67.058825%);fill-opacity:1;" d="M 195.261719 34.1875 C 195.722656 34.648438 196.183594 35.105469 196.65625 35.582031 C 198.472656 35.359375 198.472656 35.359375 200.144531 34.882812 C 200.230469 36.890625 200.230469 36.890625 200.144531 39.070312 C 199.683594 39.53125 199.222656 39.992188 198.75 40.464844 C 198.058594 40.464844 197.371094 40.464844 196.65625 40.464844 C 196.65625 40.003906 196.65625 39.542969 196.65625 39.070312 C 196.011719 39.003906 196.011719 39.003906 195.351562 38.9375 C 193.867188 38.371094 193.867188 38.371094 192.996094 36.585938 C 192.824219 36.023438 192.652344 35.460938 192.472656 34.882812 C 193.78125 34.449219 193.78125 34.449219 195.261719 34.1875 Z M 195.261719 34.1875 "/>
<path style=" stroke:none;fill-rule:nonzero;fill:rgb(97.254902%,98.431373%,98.039216%);fill-opacity:1;" d="M 46.722656 32.789062 C 47.183594 32.789062 47.644531 32.789062 48.117188 32.789062 C 48.152344 33.277344 48.1875 33.765625 48.222656 34.269531 C 48.273438 34.902344 48.328125 35.539062 48.378906 36.191406 C 48.429688 36.824219 48.476562 37.453125 48.527344 38.105469 C 48.671875 39.894531 48.671875 39.894531 50.210938 41.164062 C 47.679688 41.164062 45.148438 41.164062 42.539062 41.164062 C 42.539062 40.703125 42.539062 40.242188 42.539062 39.765625 C 43.230469 39.539062 43.921875 39.308594 44.632812 39.070312 C 45.34375 37.605469 45.34375 37.605469 45.808594 35.886719 C 45.984375 35.308594 46.160156 34.734375 46.339844 34.140625 C 46.464844 33.695312 46.59375 33.25 46.722656 32.789062 Z M 46.722656 32.789062 "/>
<path style=" stroke:none;fill-rule:nonzero;fill:rgb(58.823532%,58.823532%,59.607846%);fill-opacity:1;" d="M 11.15625 13.953125 C 13.859375 14.5625 13.859375 14.5625 14.644531 15.347656 C 14.707031 17.058594 14.726562 18.746094 14.710938 20.453125 C 14.710938 20.964844 14.710938 21.472656 14.710938 22 C 14.707031 23.632812 14.695312 25.269531 14.6875 26.902344 C 14.683594 28.011719 14.683594 29.117188 14.679688 30.222656 C 14.671875 32.9375 14.660156 35.65625 14.644531 38.371094 C 14.414062 38.371094 14.183594 38.371094 13.949219 38.371094 C 13.949219 31.925781 13.949219 25.480469 13.949219 18.835938 C 13.488281 18.835938 13.027344 18.835938 12.550781 18.835938 C 12.550781 17.917969 12.550781 16.996094 12.550781 16.046875 C 12.09375 15.816406 11.632812 15.585938 11.15625 15.347656 C 11.15625 14.886719 11.15625 14.429688 11.15625 13.953125 Z M 11.15625 13.953125 "/>
<path style=" stroke:none;fill-rule:nonzero;fill:rgb(85.882354%,85.882354%,85.882354%);fill-opacity:1;" d="M 126.222656 38.371094 C 129.535156 39.679688 129.535156 39.679688 131.105469 40.464844 C 131.105469 39.773438 131.105469 39.082031 131.105469 38.371094 C 132.945312 38.601562 134.789062 38.832031 136.683594 39.070312 C 135.765625 39.300781 134.84375 39.53125 133.894531 39.765625 C 133.894531 40.226562 133.894531 40.6875 133.894531 41.164062 C 137 40.816406 137 40.816406 140.171875 40.464844 C 138.148438 42.488281 136.730469 42.421875 133.894531 42.558594 C 130.503906 41.84375 128.191406 41.324219 126.222656 38.371094 Z M 126.222656 38.371094 "/>
<path style=" stroke:none;fill-rule:nonzero;fill:rgb(83.529413%,84.705883%,83.92157%);fill-opacity:1;" d="M 46.027344 32.789062 C 46.257812 32.789062 46.488281 32.789062 46.722656 32.789062 C 46.199219 37.414062 46.199219 37.414062 44.632812 39.765625 C 43.941406 39.765625 43.25 39.765625 42.539062 39.765625 C 42.539062 40.226562 42.539062 40.6875 42.539062 41.164062 C 45.644531 40.816406 45.644531 40.816406 48.816406 40.464844 C 48.816406 39.773438 48.816406 39.082031 48.816406 38.371094 C 49.734375 38.832031 50.65625 39.292969 51.605469 39.765625 C 51.375 40.457031 51.144531 41.148438 50.90625 41.859375 C 47.917969 41.859375 44.925781 41.859375 41.84375 41.859375 C 41.84375 40.941406 41.84375 40.019531 41.84375 39.070312 C 42.53125 38.839844 43.222656 38.609375 43.933594 38.371094 C 44.644531 37.070312 44.644531 37.070312 45.109375 35.539062 C 45.285156 35.027344 45.460938 34.515625 45.640625 33.988281 C 45.769531 33.59375 45.894531 33.199219 46.027344 32.789062 Z M 46.027344 32.789062 "/>
<path style=" stroke:none;fill-rule:nonzero;fill:rgb(75.686276%,22.745098%,68.235296%);fill-opacity:1;" d="M 184.105469 32.789062 C 184.566406 32.789062 185.027344 32.789062 185.5 32.789062 C 185.800781 33.460938 185.800781 33.460938 186.109375 34.140625 C 186.773438 35.6875 186.773438 35.6875 188.289062 36.277344 C 188.726562 38.414062 188.726562 38.414062 188.988281 40.464844 C 187.679688 40.289062 187.679688 40.289062 186.199219 39.765625 C 185.414062 38.371094 185.414062 38.371094 184.800781 36.976562 C 184.34375 36.746094 183.882812 36.515625 183.40625 36.277344 C 183.636719 35.128906 183.867188 33.976562 184.105469 32.789062 Z M 184.105469 32.789062 "/>
<path style=" stroke:none;fill-rule:nonzero;fill:rgb(87.843138%,89.411765%,89.411765%);fill-opacity:1;" d="M 124.132812 18.140625 C 124.757812 20.28125 124.910156 22.179688 124.898438 24.40625 C 124.894531 25.058594 124.890625 25.710938 124.890625 26.382812 C 124.882812 27.058594 124.878906 27.734375 124.871094 28.429688 C 124.871094 29.117188 124.867188 29.800781 124.863281 30.507812 C 124.855469 32.199219 124.84375 33.890625 124.828125 35.582031 C 122.277344 31.753906 122.4375 27.507812 122.738281 23.023438 C 123.085938 21.316406 123.558594 19.789062 124.132812 18.140625 Z M 124.132812 18.140625 "/>
<path style=" stroke:none;fill-rule:nonzero;fill:rgb(87.058824%,87.450981%,87.058824%);fill-opacity:1;" d="M 33.472656 16.046875 C 33.703125 16.046875 33.933594 16.046875 34.171875 16.046875 C 34.171875 18.578125 34.171875 21.113281 34.171875 23.722656 C 33.710938 23.261719 33.25 22.800781 32.777344 22.324219 C 30.453125 23.875 30.160156 24.660156 29.289062 27.210938 C 28.171875 24.417969 29.085938 22.292969 29.988281 19.535156 C 30.21875 20.226562 30.445312 20.917969 30.683594 21.628906 C 31.144531 21.628906 31.605469 21.628906 32.078125 21.628906 C 32.230469 20.636719 32.230469 20.636719 32.382812 19.621094 C 32.777344 17.441406 32.777344 17.441406 33.472656 16.046875 Z M 33.472656 16.046875 "/>
<path style=" stroke:none;fill-rule:nonzero;fill:rgb(76.47059%,33.725491%,60.000002%);fill-opacity:1;" d="M 194.695312 28.125 C 195.667969 28.363281 195.667969 28.363281 196.65625 28.605469 C 196.65625 29.066406 196.65625 29.527344 196.65625 30 C 195.507812 30 194.355469 30 193.171875 30 C 193.171875 31.382812 193.171875 32.761719 193.171875 34.1875 C 192.480469 34.53125 192.480469 34.53125 191.777344 34.882812 C 190.6875 33.226562 190.6875 33.226562 189.683594 31.394531 C 190.996094 28.773438 191.621094 27.824219 194.695312 28.125 Z M 194.695312 28.125 "/>
<path style=" stroke:none;fill-rule:nonzero;fill:rgb(67.843139%,34.117648%,68.235296%);fill-opacity:1;" d="M 188.289062 36.277344 C 190.992188 39.59375 190.992188 39.59375 191.777344 41.164062 C 189.476562 41.164062 187.171875 41.164062 184.800781 41.164062 C 184.800781 40.703125 184.800781 40.242188 184.800781 39.765625 C 184.113281 39.765625 183.421875 39.765625 182.710938 39.765625 C 182.710938 39.308594 182.710938 38.847656 182.710938 38.371094 C 185.042969 38.761719 186.917969 39.316406 188.988281 40.464844 C 188.757812 39.082031 188.527344 37.703125 188.289062 36.277344 Z M 188.289062 36.277344 "/>
<path style=" stroke:none;fill-rule:nonzero;fill:rgb(73.725492%,64.705884%,84.313726%);fill-opacity:1;" d="M 156.210938 41.164062 C 158.742188 41.164062 161.273438 41.164062 163.882812 41.164062 C 163.652344 41.851562 163.421875 42.542969 163.183594 43.253906 C 160.699219 44.085938 160.699219 44.085938 158.300781 44.652344 C 157.613281 43.5 156.921875 42.347656 156.210938 41.164062 Z M 156.210938 41.164062 "/>
<path style=" stroke:none;fill-rule:nonzero;fill:rgb(53.333336%,41.568628%,56.862748%);fill-opacity:1;" d="M 168.066406 37.675781 C 168.757812 38.136719 169.445312 38.59375 170.15625 39.070312 C 169.929688 39.53125 169.699219 39.992188 169.460938 40.464844 C 171.070312 40.464844 172.683594 40.464844 174.34375 40.464844 C 174.34375 40.695312 174.34375 40.925781 174.34375 41.164062 C 170.890625 41.394531 167.4375 41.625 163.882812 41.859375 C 165.277344 40.464844 166.671875 39.070312 168.066406 37.675781 Z M 168.066406 37.675781 "/>
<path style=" stroke:none;fill-rule:nonzero;fill:rgb(95.686275%,96.470588%,96.078432%);fill-opacity:1;" d="M 30.683594 22.324219 C 31.144531 22.554688 31.605469 22.785156 32.078125 23.023438 C 31.902344 24.042969 31.710938 25.058594 31.511719 26.074219 C 31.40625 26.640625 31.300781 27.207031 31.195312 27.792969 C 30.683594 29.300781 30.683594 29.300781 28.59375 30.699219 C 28.945312 27.683594 29.425781 25.09375 30.683594 22.324219 Z M 30.683594 22.324219 "/>
<path style=" stroke:none;fill-rule:nonzero;fill:rgb(74.901962%,24.705882%,66.666669%);fill-opacity:1;" d="M 200.144531 34.882812 C 200.144531 36.265625 200.144531 37.648438 200.144531 39.070312 C 199.453125 39.414062 199.453125 39.414062 198.75 39.765625 C 198.75 39.308594 198.75 38.847656 198.75 38.371094 C 197.597656 38.140625 196.449219 37.910156 195.261719 37.675781 C 195.261719 37.214844 195.261719 36.753906 195.261719 36.277344 C 197.433594 34.832031 197.683594 34.882812 200.144531 34.882812 Z M 200.144531 34.882812 "/>
<path style=" stroke:none;fill-rule:nonzero;fill:rgb(81.960785%,82.352942%,82.352942%);fill-opacity:1;" d="M 32.777344 11.859375 C 35.539062 11.859375 38.300781 11.859375 41.144531 11.859375 C 41.144531 12.78125 41.144531 13.703125 41.144531 14.652344 C 40.222656 14.421875 39.304688 14.191406 38.355469 13.953125 C 38.585938 13.722656 38.816406 13.492188 39.050781 13.253906 C 36.257812 13.132812 36.257812 13.132812 33.472656 13.253906 C 33.011719 13.714844 32.554688 14.175781 32.078125 14.652344 C 32.308594 13.730469 32.539062 12.808594 32.777344 11.859375 Z M 32.777344 11.859375 "/>
<path style=" stroke:none;fill-rule:nonzero;fill:rgb(70.980394%,24.705882%,72.941178%);fill-opacity:1;" d="M 176.433594 36.976562 C 176.433594 37.898438 176.433594 38.820312 176.433594 39.765625 C 174.824219 39.996094 173.210938 40.226562 171.550781 40.464844 C 171.550781 39.773438 171.550781 39.082031 171.550781 38.371094 C 173.398438 37.351562 174.269531 36.976562 176.433594 36.976562 Z M 176.433594 36.976562 "/>
<path style=" stroke:none;fill-rule:nonzero;fill:rgb(72.156864%,38.039216%,66.274512%);fill-opacity:1;" d="M 184.800781 30 C 186.957031 31.765625 187.527344 33.644531 188.289062 36.277344 C 187.597656 36.050781 186.910156 35.820312 186.199219 35.582031 C 185.71875 34.140625 185.71875 34.140625 185.5 32.789062 C 184.808594 32.789062 184.121094 32.789062 183.40625 32.789062 C 183.867188 31.871094 184.328125 30.949219 184.800781 30 Z M 184.800781 30 "/>
<path style=" stroke:none;fill-rule:nonzero;fill:rgb(94.117647%,94.901961%,94.509804%);fill-opacity:1;" d="M 32.078125 14.652344 C 32.539062 14.652344 33 14.652344 33.472656 14.652344 C 33.097656 17.007812 32.699219 19.324219 32.078125 21.628906 C 31.617188 21.628906 31.160156 21.628906 30.683594 21.628906 C 30.78125 20.59375 30.882812 19.5625 30.988281 18.53125 C 31.046875 17.957031 31.101562 17.382812 31.160156 16.789062 C 31.382812 15.347656 31.382812 15.347656 32.078125 14.652344 Z M 32.078125 14.652344 "/>
<path style=" stroke:none;fill-rule:nonzero;fill:rgb(84.705883%,85.09804%,85.09804%);fill-opacity:1;" d="M 95.539062 39.070312 C 95.769531 39.761719 96 40.449219 96.238281 41.164062 C 98.539062 40.933594 100.839844 40.703125 103.210938 40.464844 C 102.980469 40.003906 102.75 39.542969 102.511719 39.070312 C 103.433594 39.300781 104.355469 39.53125 105.300781 39.765625 C 105.074219 40.457031 104.84375 41.148438 104.605469 41.859375 C 101.613281 41.859375 98.621094 41.859375 95.539062 41.859375 C 95.539062 40.941406 95.539062 40.019531 95.539062 39.070312 Z M 95.539062 39.070312 "/>
<path style=" stroke:none;fill-rule:nonzero;fill:rgb(84.313726%,85.882354%,85.09804%);fill-opacity:1;" d="M 31.382812 39.070312 C 32.070312 39.300781 32.761719 39.53125 33.472656 39.765625 C 33.242188 39.996094 33.011719 40.226562 32.777344 40.464844 C 35.539062 40.695312 38.300781 40.925781 41.144531 41.164062 C 41.144531 41.394531 41.144531 41.625 41.144531 41.859375 C 37.921875 41.859375 34.699219 41.859375 31.382812 41.859375 C 31.382812 40.941406 31.382812 40.019531 31.382812 39.070312 Z M 31.382812 39.070312 "/>
<path style=" stroke:none;fill-rule:nonzero;fill:rgb(97.254902%,98.039216%,98.039216%);fill-opacity:1;" d="M 50.90625 22.324219 C 51.386719 23.460938 51.386719 23.460938 51.605469 25.117188 C 50.601562 27.382812 50.601562 27.382812 49.511719 29.300781 C 48.808594 27.398438 48.785156 26.609375 49.425781 24.636719 C 50.210938 23.023438 50.210938 23.023438 50.90625 22.324219 Z M 50.90625 22.324219 "/>
<path style=" stroke:none;fill-rule:nonzero;fill:rgb(74.901962%,20.392157%,74.509805%);fill-opacity:1;" d="M 184.800781 36.976562 C 186.527344 37.320312 186.527344 37.320312 188.289062 37.675781 C 188.519531 38.59375 188.75 39.515625 188.988281 40.464844 C 187.679688 40.289062 187.679688 40.289062 186.199219 39.765625 C 185.324219 38.328125 185.324219 38.328125 184.800781 36.976562 Z M 184.800781 36.976562 "/>
</g>
</svg>
